<svg class="main-svg" xmlns="http://www.w3.org/2000/svg" xmlns:xlink="http://www.w3.org/1999/xlink" width="700" height="500" style="" viewBox="0 0 700 500"><rect x="0" y="0" width="700" height="500" style="fill: rgb(255, 255, 255); fill-opacity: 1;"/><defs id="defs-35501a"><g class="clips"><clipPath id="clip35501axyplot" class="plotclip"><rect width="434" height="320"/></clipPath><clipPath class="axesclip" id="clip35501ax"><rect x="98" y="0" width="434" height="500"/></clipPath><clipPath class="axesclip" id="clip35501ay"><rect x="0" y="100" width="700" height="320"/></clipPath><clipPath class="axesclip" id="clip35501axy"><rect x="98" y="100" width="434" height="320"/></clipPath></g><g class="gradients"/></defs><g class="bglayer"/><g class="layer-below"><g class="imagelayer"/><g class="shapelayer"/></g><g class="cartesianlayer"><g class="subplot xy"><g class="layer-subplot"><g class="shapelayer"/><g class="imagelayer"/></g><g class="gridlayer"><g class="x"/><g class="y"/></g><g class="zerolinelayer"/><path class="xlines-below"/><path class="ylines-below"/><g class="overlines-below"/><g class="xaxislayer-below"/><g class="yaxislayer-below"/><g class="overaxes-below"/><g class="plot" transform="translate(98,100)" clip-path="url('#clip35501axyplot')"><g class="scatterlayer mlayer"><g class="trace scatter traceefa570" style="stroke-miterlimit: 2; opacity: 0.8;"><g class="fills"/><g class="errorbars"/><g class="lines"><path class="js-line" d="M0,202.1L12.93,202.82L12.98,202.86L20.12,205.38L20.17,205.41L26.11,207.75L26.16,207.8L31.22,210.51L31.27,210.63L44.35,217L44.4,217.06L73.48,229.88L73.53,229.94L81.11,233.15L81.16,233.15L85.57,234.77L85.62,234.82L95.83,239L95.88,239.03L97.96,239.75L98.01,239.76L103.61,241.55L103.66,241.56L106.88,242.96L106.93,242.98L110.2,244.27L110.25,244.28L113.57,245.42L113.62,245.42L116.54,246.41L116.59,246.42L121.89,248.07L121.94,248.08L127.59,249.94L127.64,249.97L130.02,250.67L130.07,250.67L134.53,251.88L134.58,251.9L166.98,261.35L167.03,261.36L172.43,262.82L172.48,262.84L206.07,271.05L206.12,271.05L213.16,272.73L213.21,272.78L217.52,273.81L217.57,273.83L226.44,275.75L226.49,275.77L234.66,277.06L234.71,277.07L251.06,279.98L251.11,280.01L306.06,290.51L306.11,290.51L331.19,294.77L331.24,294.77L352.94,297.44L352.99,297.44L356.36,298L356.41,298L362.65,298.87L362.7,298.87L365.37,299.3L365.42,299.3L368.89,299.67L368.94,299.67L384.7,301.02L384.75,301.02L403.68,302.8L403.73,302.8L434,304" style="vector-effect: non-scaling-stroke; fill: none; stroke: rgb(26, 36, 65); stroke-opacity: 1; stroke-width: 2px; opacity: 1;"/></g><g class="points"/><g class="text"/></g><g class="trace scatter traceb92f59" style="stroke-miterlimit: 2; opacity: 0.8;"><g class="fills"/><g class="errorbars"/><g class="lines"><path class="js-line" d="M0,16L12.19,16.75L12.24,16.81L16.4,20.13L16.45,20.25L19.23,23.52L19.27,23.55L21.21,26.1L21.26,26.11L23.34,28.08L23.39,28.1L27,32.37L27.05,32.51L28.09,33.99L28.14,34.03L29.83,36.68L29.88,36.8L31.56,39.02L31.61,39.15L36.96,45.52L37.01,45.53L38.55,48.06L38.6,48.09L40.09,49.16L40.13,49.18L44.89,55.99L44.94,56.17L46.33,59.1L46.38,59.16L54.21,69.14L54.26,69.17L56.19,72.17L56.24,72.21L59.95,76.61L60,76.7L60.65,77.47L60.7,77.52L63.37,81.45L63.42,81.49L64.66,83.01L64.71,83.02L66.25,84.65L66.3,84.68L67.39,86.7L67.44,86.71L68.48,88.1L68.53,88.11L71.8,91.07L71.85,91.14L73.23,93.09L73.28,93.14L74.77,95.62L74.82,95.65L77.64,98.63L77.69,98.66L83.79,106.31L83.84,106.32L85.72,108.59L85.77,108.59L89.39,112.38L89.44,112.54L91.52,114.84L91.57,114.95L94.69,117.87L94.74,118.03L99.49,122.79L99.54,123.15L103.21,128.22L103.26,128.22L111.29,136.83L111.34,136.85L114.11,140.06L114.16,140.29L116.64,142.17L116.69,142.31L118.67,144.04L118.72,144.25L122.29,147.92L122.34,148.08L123.62,149.43L123.67,149.51L124.76,150.67L124.81,150.67L126.2,152.15L126.25,152.17L134.08,159.83L134.13,160.07L139.28,164.92L139.33,164.94L140.67,165.74L140.72,165.88L142.85,167.95L142.9,167.97L144.73,169.37L144.78,169.59L146.22,170.58L146.27,170.66L148.5,172.47L148.55,172.72L153.95,177.09L154,177.3L156.57,179.35L156.62,179.36L158.31,181.17L158.36,181.21L160.14,182.66L160.19,182.86L162.42,184.84L162.47,184.85L164.16,185.79L164.21,185.85L184.07,200.95L184.12,200.96L187.25,203.24L187.3,203.47L203.84,214.63L203.89,214.64L206.97,216.35L207.02,216.56L227.13,229.04L227.18,229.04L232.24,231.54L232.29,231.54L268.31,249.99L268.36,250.13L276.19,254.14L276.24,254.15L279.8,255.84L279.85,255.9L289.47,260.54L289.52,260.62L292.34,262.26L292.39,262.31L304.88,268.93L304.92,268.94L308.05,270.32L308.1,270.39L324.15,277.66L324.2,277.66L337.28,281.9L337.33,281.96L342.53,283.91L342.58,283.91L368.99,292.13L369.04,292.13L374.29,293.58L374.34,293.6L377.17,294.44L377.22,294.44L388.27,297.39L388.32,297.43L400.8,300.6L400.85,300.6L421.66,304L421.71,304L434,304" style="vector-effect: non-scaling-stroke; fill: none; stroke: rgb(27, 97, 69); stroke-opacity: 1; stroke-width: 2px; opacity: 1;"/></g><g class="points"/><g class="text"/></g><g class="trace scatter trace3cf58b" style="stroke-miterlimit: 2; opacity: 0.8;"><g class="fills"/><g class="errorbars"/><g class="lines"><path class="js-line" d="M0,161.51L12.19,162.24L12.24,162.28L17.39,164.27L17.44,164.42L23.54,167.21L23.59,167.22L28.34,170.27L28.39,170.44L36.86,177.41L36.91,177.42L44.25,182.81L44.3,182.94L63.18,196.43L63.22,196.43L67.49,198.64L67.54,198.72L79.43,206.35L79.48,206.42L82.85,209.04L82.9,209.11L85.42,210.98L85.47,211.03L89.34,213.04L89.39,213.11L98.11,217.95L98.16,217.99L100.88,219.29L100.93,219.33L104.15,221.1L104.2,221.17L106.68,222.46L106.73,222.49L140.17,237.81L140.22,237.82L148.7,240.95L148.75,240.96L154.1,242.82L154.15,242.82L173.62,249.93L173.67,249.94L218.51,264.12L218.56,264.12L224.9,265.71L224.95,265.74L230.11,266.8L230.16,266.85L233.62,267.75L233.67,267.76L236.79,268.76L236.84,268.77L241.55,270.12L241.6,270.17L246.21,271.22L246.26,271.24L257.51,274.23L257.56,274.27L265.24,276.22L265.29,276.25L271.18,277.93L271.23,277.95L322.22,288.85L322.27,288.94L333.66,291.22L333.71,291.23L338.62,292.08L338.67,292.08L358.44,295.42L358.49,295.44L394.31,300.94L394.36,300.96L405.86,302.51L405.91,302.51L420.13,304L420.18,304L434,304" style="vector-effect: non-scaling-stroke; fill: none; stroke: rgb(105, 123, 48); stroke-opacity: 1; stroke-width: 2px; opacity: 1;"/></g><g class="points"/><g class="text"/></g><g class="trace scatter trace211bbb" style="stroke-miterlimit: 2; opacity: 0.8;"><g class="fills"/><g class="errorbars"/><g class="lines"><path class="js-line" d="M0,185.41L13.68,186.16L13.73,186.19L19.18,188.06L19.23,188.11L24.82,190.3L24.87,190.38L29.83,192.91L29.88,192.98L33,194.57L33.05,194.65L38,197.09L38.05,197.19L44.25,199.71L44.3,199.73L46.82,200.94L46.87,200.95L51.28,203.53L51.33,203.54L54.6,205.15L54.65,205.22L63.92,209.98L63.97,209.98L65.16,210.51L65.21,210.53L74.67,214.77L74.72,214.78L94.99,223.84L95.04,223.86L96.32,224.52L96.37,224.54L98.65,225.43L98.7,225.45L102.62,226.96L102.67,227.01L105.89,228.24L105.94,228.29L109.01,229.58L109.06,229.58L116.89,232.44L116.94,232.47L125.31,235.87L125.36,235.88L142.8,242.25L142.85,242.31L147.26,243.94L147.31,243.99L155.93,247.19L155.98,247.2L164.7,250.21L164.75,250.3L168.22,251.32L168.27,251.32L181.94,255.7L181.99,255.73L203.8,262.3L203.84,262.33L213.7,265.04L213.75,265.07L246.26,273.05L246.31,273.05L256.91,275.2L256.96,275.28L268.31,278.29L268.36,278.32L275.15,279.96L275.2,279.99L315.18,288.2L315.23,288.2L320.14,289.25L320.19,289.28L337.08,292.99L337.13,292.99L347.44,294.42L347.49,294.43L356.75,295.79L356.8,295.81L364.48,297.07L364.53,297.09L380.24,299.49L380.29,299.49L410.37,302.81L410.41,302.81L433.36,304L433.41,304L434,304" style="vector-effect: non-scaling-stroke; fill: none; stroke: rgb(200, 123, 124); stroke-opacity: 1; stroke-width: 2px; opacity: 1;"/></g><g class="points"/><g class="text"/></g><g class="trace scatter traceafcbce" style="stroke-miterlimit: 2; opacity: 0.8;"><g class="fills"/><g class="errorbars"/><g class="lines"><path class="js-line" d="M0,235.31L18.73,236.06L18.78,236.07L22.05,237.02L22.1,237.05L24.82,237.66L24.87,237.67L34.29,240.69L34.34,240.73L45.14,243.55L45.19,243.55L50.74,245.36L50.79,245.45L70.41,251.42L70.46,251.47L76.11,252.93L76.16,252.94L117.68,263.36L117.73,263.36L130.71,265.84L130.76,265.85L136.11,266.95L136.16,266.96L202.95,280.04L203,280.04L205.93,280.58L205.98,280.58L218.96,282.68L219.01,282.71L226.84,283.98L226.89,284L258.75,288.07L258.79,288.12L317.61,295.44L317.66,295.44L328.16,296.79L328.21,296.79L364.43,299.93L364.48,299.96L393.87,302.17L393.91,302.18L434,304" style="vector-effect: non-scaling-stroke; fill: none; stroke: rgb(205, 162, 224); stroke-opacity: 1; stroke-width: 2px; opacity: 1;"/></g><g class="points"/><g class="text"/></g><g class="trace scatter tracefc3dc9" style="stroke-miterlimit: 2; opacity: 0.8;"><g class="fills"/><g class="errorbars"/><g class="lines"><path class="js-line" d="M0,165.01L12.98,165.76L13.03,165.78L16.55,166.74L16.6,166.81L18.58,168.06L18.63,168.07L30.32,174.04L30.37,174.18L41.57,180.17L41.62,180.17L49.85,184.82L49.9,184.86L62.13,191.85L62.18,191.86L114.01,219.33L114.06,219.33L116.89,220.64L116.94,220.64L118.57,221.29L118.62,221.3L131.8,227.58L131.85,227.58L137.8,230.32L137.85,230.36L140.57,231.72L140.62,231.72L146.76,234.49L146.81,234.6L149.89,236.4L149.94,236.47L156.67,239.49L156.72,239.49L158.95,240.7L159,240.72L172.53,246.33L172.58,246.33L183.58,249.89L183.63,249.96L186.7,250.94L186.75,250.95L195.57,254.02L195.62,254.11L199.98,255.71L200.03,255.76L232.09,265.66L232.14,265.67L239.97,267.97L240.02,268.03L308.79,285.76L308.84,285.76L312.11,286.46L312.16,286.47L315.92,287.17L315.97,287.18L345.95,293.12L346,293.12L353.63,294.38L353.68,294.39L364.28,296.45L364.33,296.45L380.19,298.89L380.24,298.89L392.43,300.45L392.48,300.47L404.87,302.21L404.91,302.21L411.85,302.84L411.9,302.84L418.19,303.59L418.24,303.6L432.56,304L432.61,304L434,304" style="vector-effect: non-scaling-stroke; fill: none; stroke: rgb(198, 225, 241); stroke-opacity: 1; stroke-width: 2px; opacity: 1;"/></g><g class="points"/><g class="text"/></g></g></g><g class="overplot"/><path class="xlines-above crisp" d="M97,420.5H532" style="fill: none; stroke-width: 1px; stroke: rgb(36, 36, 36); stroke-opacity: 1;"/><path class="ylines-above crisp" d="M97.5,100V420" style="fill: none; stroke-width: 1px; stroke: rgb(36, 36, 36); stroke-opacity: 1;"/><g class="overlines-above"/><g class="xaxislayer-above"><path class="xtick ticks crisp" d="M0,421v5" transform="translate(184.76,0)" style="stroke: rgb(68, 68, 68); stroke-opacity: 1; stroke-width: 1px;"/><path class="xtick ticks crisp" d="M0,421v5" transform="translate(271.57,0)" style="stroke: rgb(68, 68, 68); stroke-opacity: 1; stroke-width: 1px;"/><path class="xtick ticks crisp" d="M0,421v5" transform="translate(358.38,0)" style="stroke: rgb(68, 68, 68); stroke-opacity: 1; stroke-width: 1px;"/><path class="xtick ticks crisp" d="M0,421v5" transform="translate(445.19,0)" style="stroke: rgb(68, 68, 68); stroke-opacity: 1; stroke-width: 1px;"/><path class="xtick ticks crisp" d="M0,421v5" transform="translate(532,0)" style="stroke: rgb(68, 68, 68); stroke-opacity: 1; stroke-width: 1px;"/><g class="xtick"><text text-anchor="middle" x="0" y="440.4" transform="translate(184.76,0)" style="font-family: 'Open Sans', verdana, arial, sans-serif; font-size: 12px; fill: rgb(36, 36, 36); fill-opacity: 1; white-space: pre;">20%</text></g><g class="xtick"><text text-anchor="middle" x="0" y="440.4" transform="translate(271.57,0)" style="font-family: 'Open Sans', verdana, arial, sans-serif; font-size: 12px; fill: rgb(36, 36, 36); fill-opacity: 1; white-space: pre;">40%</text></g><g class="xtick"><text text-anchor="middle" x="0" y="440.4" transform="translate(358.38,0)" style="font-family: 'Open Sans', verdana, arial, sans-serif; font-size: 12px; fill: rgb(36, 36, 36); fill-opacity: 1; white-space: pre;">60%</text></g><g class="xtick"><text text-anchor="middle" x="0" y="440.4" transform="translate(445.19,0)" style="font-family: 'Open Sans', verdana, arial, sans-serif; font-size: 12px; fill: rgb(36, 36, 36); fill-opacity: 1; white-space: pre;">80%</text></g><g class="xtick"><text text-anchor="middle" x="0" y="440.4" transform="translate(532,0)" style="font-family: 'Open Sans', verdana, arial, sans-serif; font-size: 12px; fill: rgb(36, 36, 36); fill-opacity: 1; white-space: pre;">100%</text></g></g><g class="yaxislayer-above"><path class="ytick ticks crisp" d="M97,0h-5" transform="translate(0,404)" style="stroke: rgb(68, 68, 68); stroke-opacity: 1; stroke-width: 1px;"/><path class="ytick ticks crisp" d="M97,0h-5" transform="translate(0,284.48)" style="stroke: rgb(68, 68, 68); stroke-opacity: 1; stroke-width: 1px;"/><path class="ytick ticks crisp" d="M97,0h-5" transform="translate(0,164.95)" style="stroke: rgb(68, 68, 68); stroke-opacity: 1; stroke-width: 1px;"/><g class="ytick"><text text-anchor="end" x="89.6" y="4.199999999999999" transform="translate(0,404)" style="font-family: 'Open Sans', verdana, arial, sans-serif; font-size: 12px; fill: rgb(36, 36, 36); fill-opacity: 1; white-space: pre;">0 MW</text></g><g class="ytick"><text text-anchor="end" x="89.6" y="4.199999999999999" transform="translate(0,284.48)" style="font-family: 'Open Sans', verdana, arial, sans-serif; font-size: 12px; fill: rgb(36, 36, 36); fill-opacity: 1; white-space: pre;">500 MW</text></g><g class="ytick"><text text-anchor="end" x="89.6" y="4.199999999999999" transform="translate(0,164.95)" style="font-family: 'Open Sans', verdana, arial, sans-serif; font-size: 12px; fill: rgb(36, 36, 36); fill-opacity: 1; white-space: pre;">1000 MW</text></g></g><g class="overaxes-above"/></g></g><g class="polarlayer"/><g class="ternarylayer"/><g class="geolayer"/><g class="funnelarealayer"/><g class="pielayer"/><g class="treemaplayer"/><g class="sunburstlayer"/><g class="glimages"/><defs id="topdefs-35501a"><g class="clips"/><clipPath id="legend35501a"><rect width="145" height="124" x="1" y="1"/></clipPath></defs><g class="layer-above"><g class="imagelayer"/><g class="shapelayer"/></g><g class="infolayer"><g class="legend" pointer-events="all" transform="translate(540.6800000000001,100)"><rect class="bg" shape-rendering="crispEdges" width="146" height="125" x="0.5" y="0.5" style="stroke: rgb(232, 232, 232); stroke-opacity: 1; fill: rgb(255, 255, 255); fill-opacity: 1; stroke-width: 1px;"/><g class="scrollbox" transform="" clip-path="url('#legend35501a')"><g class="groups"><g class="traces" transform="translate(1,15.5)" style="opacity: 1;"><text class="legendtext" text-anchor="start" x="40" y="4.680000000000001" style="font-family: 'Open Sans', verdana, arial, sans-serif; font-size: 12px; fill: rgb(36, 36, 36); fill-opacity: 1; white-space: pre;">Achterhoek</text><g class="layers" style="opacity: 0.8;"><g class="legendfill"/><g class="legendlines"><path class="js-line" d="M5,0h30" style="fill: none; stroke: rgb(26, 36, 65); stroke-opacity: 1; stroke-width: 2px;"/></g><g class="legendsymbols"><g class="legendpoints"/></g></g><rect class="legendtoggle" x="0" y="-9.5" width="139.8125" height="19" style="fill: rgb(0, 0, 0); fill-opacity: 0;"/></g><g class="traces" transform="translate(1,34.5)" style="opacity: 1;"><text class="legendtext" text-anchor="start" x="40" y="4.680000000000001" style="font-family: 'Open Sans', verdana, arial, sans-serif; font-size: 12px; fill: rgb(36, 36, 36); fill-opacity: 1; white-space: pre;">ArnhemNijmegen</text><g class="layers" style="opacity: 0.8;"><g class="legendfill"/><g class="legendlines"><path class="js-line" d="M5,0h30" style="fill: none; stroke: rgb(27, 97, 69); stroke-opacity: 1; stroke-width: 2px;"/></g><g class="legendsymbols"><g class="legendpoints"/></g></g><rect class="legendtoggle" x="0" y="-9.5" width="139.8125" height="19" style="fill: rgb(0, 0, 0); fill-opacity: 0;"/></g><g class="traces" transform="translate(1,53.5)" style="opacity: 1;"><text class="legendtext" text-anchor="start" x="40" y="4.680000000000001" style="font-family: 'Open Sans', verdana, arial, sans-serif; font-size: 12px; fill: rgb(36, 36, 36); fill-opacity: 1; white-space: pre;">Cleantech</text><g class="layers" style="opacity: 0.8;"><g class="legendfill"/><g class="legendlines"><path class="js-line" d="M5,0h30" style="fill: none; stroke: rgb(105, 123, 48); stroke-opacity: 1; stroke-width: 2px;"/></g><g class="legendsymbols"><g class="legendpoints"/></g></g><rect class="legendtoggle" x="0" y="-9.5" width="139.8125" height="19" style="fill: rgb(0, 0, 0); fill-opacity: 0;"/></g><g class="traces" transform="translate(1,72.5)" style="opacity: 1;"><text class="legendtext" text-anchor="start" x="40" y="4.680000000000001" style="font-family: 'Open Sans', verdana, arial, sans-serif; font-size: 12px; fill: rgb(36, 36, 36); fill-opacity: 1; white-space: pre;">Foodvalley </text><g class="layers" style="opacity: 0.8;"><g class="legendfill"/><g class="legendlines"><path class="js-line" d="M5,0h30" style="fill: none; stroke: rgb(200, 123, 124); stroke-opacity: 1; stroke-width: 2px;"/></g><g class="legendsymbols"><g class="legendpoints"/></g></g><rect class="legendtoggle" x="0" y="-9.5" width="139.8125" height="19" style="fill: rgb(0, 0, 0); fill-opacity: 0;"/></g><g class="traces" transform="translate(1,91.5)" style="opacity: 1;"><text class="legendtext" text-anchor="start" x="40" y="4.680000000000001" style="font-family: 'Open Sans', verdana, arial, sans-serif; font-size: 12px; fill: rgb(36, 36, 36); fill-opacity: 1; white-space: pre;">NoordVeluwe</text><g class="layers" style="opacity: 0.8;"><g class="legendfill"/><g class="legendlines"><path class="js-line" d="M5,0h30" style="fill: none; stroke: rgb(205, 162, 224); stroke-opacity: 1; stroke-width: 2px;"/></g><g class="legendsymbols"><g class="legendpoints"/></g></g><rect class="legendtoggle" x="0" y="-9.5" width="139.8125" height="19" style="fill: rgb(0, 0, 0); fill-opacity: 0;"/></g><g class="traces" transform="translate(1,110.5)" style="opacity: 1;"><text class="legendtext" text-anchor="start" x="40" y="4.680000000000001" style="font-family: 'Open Sans', verdana, arial, sans-serif; font-size: 12px; fill: rgb(36, 36, 36); fill-opacity: 1; white-space: pre;">Rivierenland</text><g class="layers" style="opacity: 0.8;"><g class="legendfill"/><g class="legendlines"><path class="js-line" d="M5,0h30" style="fill: none; stroke: rgb(198, 225, 241); stroke-opacity: 1; stroke-width: 2px;"/></g><g class="legendsymbols"><g class="legendpoints"/></g></g><rect class="legendtoggle" x="0" y="-9.5" width="139.8125" height="19" style="fill: rgb(0, 0, 0); fill-opacity: 0;"/></g></g></g><rect class="scrollbar" rx="20" ry="3" width="0" height="0" x="0" y="0" style="fill: rgb(128, 139, 164); fill-opacity: 1;"/></g><g class="g-gtitle"/><g class="g-xtitle"><text class="xtitle" x="315" y="469.20625" text-anchor="middle" style="font-family: 'Open Sans', verdana, arial, sans-serif; font-size: 14px; fill: rgb(36, 36, 36); opacity: 1; font-weight: normal; white-space: pre;"><tspan style="font-weight:bold">Cumulative duration</tspan></text></g><g class="g-ytitle" transform="translate(2.7060546875,0)"><text class="ytitle" transform="rotate(-90,12.293750000000003,260)" x="12.293750000000003" y="260" text-anchor="middle" style="font-family: 'Open Sans', verdana, arial, sans-serif; font-size: 14px; fill: rgb(36, 36, 36); opacity: 1; font-weight: normal; white-space: pre;"><tspan style="font-weight:bold">Power</tspan></text></g></g></svg>