<svg class="main-svg" xmlns="http://www.w3.org/2000/svg" xmlns:xlink="http://www.w3.org/1999/xlink" width="700" height="500" style="" viewBox="0 0 700 500"><rect x="0" y="0" width="700" height="500" style="fill: rgb(255, 255, 255); fill-opacity: 1;"/><defs id="defs-81583b"><g class="clips"><clipPath id="clip81583bxyplot" class="plotclip"><rect width="434" height="320"/></clipPath><clipPath class="axesclip" id="clip81583bx"><rect x="98" y="0" width="434" height="500"/></clipPath><clipPath class="axesclip" id="clip81583by"><rect x="0" y="100" width="700" height="320"/></clipPath><clipPath class="axesclip" id="clip81583bxy"><rect x="98" y="100" width="434" height="320"/></clipPath></g><g class="gradients"/></defs><g class="bglayer"/><g class="layer-below"><g class="imagelayer"/><g class="shapelayer"/></g><g class="cartesianlayer"><g class="subplot xy"><g class="layer-subplot"><g class="shapelayer"/><g class="imagelayer"/></g><g class="gridlayer"><g class="x"/><g class="y"/></g><g class="zerolinelayer"/><path class="xlines-below"/><path class="ylines-below"/><g class="overlines-below"/><g class="xaxislayer-below"/><g class="yaxislayer-below"/><g class="overaxes-below"/><g class="plot" transform="translate(98,100)" clip-path="url('#clip81583bxyplot')"><g class="scatterlayer mlayer"><g class="trace scatter trace1d27e6" style="stroke-miterlimit: 2; opacity: 0.8;"><g class="fills"/><g class="errorbars"/><g class="lines"><path class="js-line" d="M0,171.64L0.99,177.75L1.04,177.89L2.03,181.18L2.08,181.2L3.22,185.35L3.27,185.35L8.27,197.95L8.32,198.03L9.17,199.23L9.22,199.63L14.27,207.66L14.32,207.66L17.19,211.99L17.24,212.02L18.38,214.79L18.43,214.83L19.18,215.68L19.23,215.85L21.85,218.9L21.9,219.01L23.24,220.46L23.29,220.51L33.74,232.41L33.79,232.43L35.87,235.04L35.92,235.08L38.85,237.82L38.9,238.06L39.44,238.8L39.49,239.09L44.74,243.09L44.79,243.17L49.1,246.26L49.15,246.34L51.68,248.3L51.73,248.39L53.02,249.78L53.07,249.85L54.4,250.75L54.45,250.76L56.58,252.46L56.63,252.52L64.81,258.7L64.86,258.72L70.76,262.55L70.81,262.67L78.14,267L78.19,267.03L80.86,268.8L80.91,268.81L92.41,274.85L92.46,274.85L99.89,277.97L99.94,277.97L105.79,280.61L105.84,280.72L107.97,281.7L108.02,281.78L110.44,282.69L110.49,282.76L145.72,291.84L145.77,291.84L147.36,292.25L147.41,292.26L149.14,292.63L149.19,292.63L153.21,293.38L153.26,293.39L160.79,294.86L160.84,294.91L166.39,296.16L166.44,296.16L169.75,296.87L169.8,296.93L175.85,298.08L175.9,298.09L205.33,303.22L205.38,303.22L206.52,303.48L206.57,303.48L434,304" style="vector-effect: non-scaling-stroke; fill: none; stroke: rgb(26, 36, 65); stroke-opacity: 1; stroke-width: 2px; opacity: 1;"/></g><g class="points"/><g class="text"/></g><g class="trace scatter trace83cae6" style="stroke-miterlimit: 2; opacity: 0.8;"><g class="fills"/><g class="errorbars"/><g class="lines"><path class="js-line" d="M0,16L1.29,31.42L1.34,31.52L2.58,38.58L2.63,39.78L3.47,44.32L3.52,44.69L5.1,51.16L5.15,51.18L5.55,52.59L5.6,53.14L6.34,54.87L6.39,55.34L7.73,64.12L7.78,64.34L8.52,68.55L8.57,69.69L13.13,89.49L13.18,89.49L16.4,102.64L16.45,102.71L17.39,105.75L17.44,105.81L18.13,107.07L18.18,107.3L20.41,113.78L20.46,114.2L21.11,115.39L21.16,115.66L23.63,121.49L23.68,121.49L28.59,132.64L28.64,132.8L30.47,137.26L30.52,137.33L31.61,139.59L31.66,139.6L36.22,151.21L36.27,151.83L37.41,154.21L37.46,154.22L39.74,159.61L39.79,159.64L40.73,161.34L40.78,161.59L41.22,162.31L41.27,162.55L42.41,164.59L42.46,164.63L46.48,171.74L46.53,171.74L48.86,175.82L48.9,175.97L50.49,178.38L50.54,178.44L55.64,186.2L55.69,186.88L61.14,194.28L61.19,194.3L62.48,196.41L62.53,196.42L68.28,206.14L68.33,206.41L69.32,207.9L69.37,208L70.46,210.28L70.51,210.51L72.19,213.38L72.24,213.39L74.03,215.66L74.08,215.72L76.9,219.76L76.95,219.79L78.09,220.98L78.14,221L79.23,222.12L79.28,222.44L83.99,229.11L84.04,229.14L85.62,230.51L85.67,230.52L93.99,239.36L94.04,239.36L95.38,240.49L95.43,240.51L99.64,244.65L99.69,244.93L102.12,247.35L102.17,247.44L104.8,249.85L104.85,249.85L107.03,251.57L107.08,251.57L108.96,253.13L109.01,253.17L110.74,254.62L110.79,254.74L122.09,263.79L122.14,263.81L135.32,271.98L135.37,271.98L138.59,273.74L138.64,273.95L139.68,274.69L139.73,274.8L141.12,275.48L141.17,275.62L142.9,276.72L142.95,276.78L144.34,277.8L144.39,277.88L148.4,279.4L148.45,279.5L152.51,281.32L152.56,281.32L155.78,282.74L155.83,282.74L158.46,283.75L158.51,283.87L161.48,285.64L161.53,285.82L164.8,287.08L164.85,287.27L166.58,288L166.63,288.12L168.47,288.71L168.52,288.89L174.12,291.24L174.16,291.24L175.06,291.81L175.11,291.81L177.14,292.5L177.19,292.58L180.51,293.51L180.56,293.51L183.08,294.67L183.13,294.85L187.39,296.34L187.44,296.34L189.57,297.05L189.62,297.11L193.98,298.61L194.03,298.61L196.66,299.32L196.71,299.42L201.71,301.16L201.76,301.45L204.44,302.02L204.49,302.24L209,303.43L209.05,303.43L434,304" style="vector-effect: non-scaling-stroke; fill: none; stroke: rgb(27, 97, 69); stroke-opacity: 1; stroke-width: 2px; opacity: 1;"/></g><g class="points"/><g class="text"/></g><g class="trace scatter trace664bc7" style="stroke-miterlimit: 2; opacity: 0.8;"><g class="fills"/><g class="errorbars"/><g class="lines"><path class="js-line" d="M0,125.45L0.99,136.84L1.04,136.99L1.34,137.82L1.39,138.01L2.53,142.84L2.58,142.94L4.26,148.79L4.31,148.81L5.35,155.06L5.4,155.23L13.23,180.97L13.28,180.99L14.86,185.66L14.91,185.97L15.81,186.99L15.86,187.12L16.9,189.08L16.95,189.17L20.36,194.62L20.41,194.68L24.18,200.46L24.23,200.74L25.91,203.88L25.96,203.9L28.19,206.62L28.24,206.81L29.83,209.43L29.88,209.5L31.07,211.6L31.12,211.76L34.09,216.5L34.14,216.52L38.95,221.7L39,221.73L49.05,232.43L49.1,232.58L60.8,243.04L60.85,243.22L66.2,247.17L66.25,247.19L68.92,249.36L68.97,249.36L71.85,251.2L71.9,251.21L75.31,253.67L75.36,253.78L76.9,254.85L76.95,254.88L78.88,256.71L78.93,256.8L83.64,259.72L83.69,259.81L85.72,261.03L85.77,261.04L87.11,262.03L87.16,262.08L89.98,263.45L90.03,263.66L100.93,270.03L100.98,270.05L106.63,272.93L106.68,272.94L108.46,273.94L108.51,273.95L110.49,275.23L110.54,275.28L118.47,278.8L118.52,278.8L119.76,279.31L119.81,279.32L128.83,282.45L128.88,282.55L134.87,284.53L134.92,284.53L137.75,285.41L137.8,285.52L158.8,291.49L158.85,291.49L161.68,292.23L161.73,292.26L179.37,297.4L179.42,297.4L180.66,297.92L180.71,297.92L184.32,298.63L184.37,298.73L191.56,300.35L191.61,300.35L195.37,301.09L195.42,301.22L199.98,301.91L200.03,302.09L203.45,302.78L203.5,302.92L210.43,304L210.48,304L434,304" style="vector-effect: non-scaling-stroke; fill: none; stroke: rgb(105, 123, 48); stroke-opacity: 1; stroke-width: 2px; opacity: 1;"/></g><g class="points"/><g class="text"/></g><g class="trace scatter trace1a0d4d" style="stroke-miterlimit: 2; opacity: 0.8;"><g class="fills"/><g class="errorbars"/><g class="lines"><path class="js-line" d="M0,181.88L1.73,193.34L1.78,193.36L5.7,206.43L5.75,206.43L6.84,209.31L6.89,209.34L8.97,212.34L9.02,212.34L10.11,213.8L10.16,213.9L14.47,221.72L14.52,222.01L17.04,225.16L17.09,225.18L17.94,226.24L17.99,226.35L18.73,227.33L18.78,227.43L20.36,228.94L20.41,229.02L21.65,230.48L21.7,230.53L23.73,232.58L23.78,232.6L24.63,233.44L24.68,233.48L27.65,236.52L27.7,236.52L29.88,238.39L29.93,238.39L31.86,240.32L31.91,240.34L33.79,241.83L33.84,241.85L48.06,251.86L48.11,251.87L51.28,253.99L51.33,254L53.71,255.88L53.76,256.04L59.61,259.92L59.66,259.99L62.43,261.72L62.48,261.73L86.36,275.12L86.41,275.21L89.14,276.48L89.19,276.58L91.12,277.39L91.17,277.39L95.63,279.23L95.68,279.34L109.01,284.74L109.06,284.75L122.98,288.69L123.03,288.69L129.12,290.22L129.17,290.27L142.01,292.93L142.06,292.93L145.43,293.68L145.48,293.69L148.45,294.36L148.5,294.36L152.86,295.08L152.91,295.13L156.23,295.66L156.28,295.66L159.5,296.38L159.55,296.38L181.55,300.07L181.6,300.07L187.3,300.79L187.34,300.89L198.84,302.33L198.89,302.45L203.1,303.17L203.15,303.29L434,304" style="vector-effect: non-scaling-stroke; fill: none; stroke: rgb(200, 123, 124); stroke-opacity: 1; stroke-width: 2px; opacity: 1;"/></g><g class="points"/><g class="text"/></g><g class="trace scatter trace949dc5" style="stroke-miterlimit: 2; opacity: 0.8;"><g class="fills"/><g class="errorbars"/><g class="lines"><path class="js-line" d="M0,235.87L0.99,240.2L1.04,240.27L2.92,244.85L2.97,244.86L7.78,251.74L7.83,251.75L12.49,256.26L12.54,256.31L13.48,257.03L13.53,257.04L15.71,259.15L15.76,259.17L25.32,264.48L25.37,264.48L31.17,267.95L31.22,268.07L33.4,269.16L33.45,269.22L40.18,272.21L40.23,272.22L44.99,274.21L45.04,274.22L48.06,275.68L48.11,275.68L51.28,276.63L51.33,276.67L53.56,277.38L53.61,277.41L57.68,278.69L57.72,278.72L65.7,281.6L65.75,281.65L69.62,282.87L69.67,282.88L73.83,284.07L73.88,284.12L84.13,286.92L84.18,286.96L102.91,291.18L102.96,291.19L107.67,292.28L107.72,292.28L111.83,293.02L111.88,293.04L129.72,295.88L129.77,295.88L172.33,300.9L172.38,300.9L181,301.64L181.05,301.66L184.17,301.91L184.22,301.91L188.39,302.25L188.43,302.25L198.3,302.99L198.34,303.03L205.28,303.66L205.33,303.66L224.8,304L224.85,304L434,304" style="vector-effect: non-scaling-stroke; fill: none; stroke: rgb(205, 162, 224); stroke-opacity: 1; stroke-width: 2px; opacity: 1;"/></g><g class="points"/><g class="text"/></g><g class="trace scatter trace6445d7" style="stroke-miterlimit: 2; opacity: 0.8;"><g class="fills"/><g class="errorbars"/><g class="lines"><path class="js-line" d="M0,46.08L2.48,70.54L2.53,70.87L6.29,93.16L6.34,93.24L7.33,96.85L7.38,96.9L8.72,102.23L8.77,102.23L9.51,104.76L9.56,104.91L11,108.99L11.05,109.18L12.54,113.37L12.59,113.38L13.68,116.13L13.73,116.17L14.96,119.69L15.01,120.09L18.63,130.16L18.68,131.27L19.18,132.55L19.23,132.88L20.22,134.36L20.27,134.44L22.89,139L22.94,139.24L24.03,142.1L24.08,142.43L29.09,153.5L29.13,153.54L30.62,156.58L30.67,156.6L33.2,162.06L33.25,162.1L38.45,172.73L38.5,172.99L40.04,175.61L40.09,176.09L41.03,177.13L41.08,177.43L45.14,184.14L45.19,184.37L46.48,186.37L46.53,186.39L53.91,198.41L53.96,198.43L69.17,220.51L69.22,220.56L72.69,225.3L72.74,225.31L79.97,232.34L80.02,232.45L83.89,236.37L83.94,236.42L85.57,237.97L85.62,237.97L89.63,242.44L89.68,242.44L90.67,243.28L90.72,243.47L94.59,247.18L94.64,247.4L96.67,249.91L96.72,249.92L98.7,251.65L98.75,251.67L103.36,255.78L103.41,255.79L108.26,260.17L108.31,260.32L110.3,261.76L110.35,261.88L111.93,263.29L111.98,263.33L138.09,276.94L138.14,276.95L139.18,277.55L139.23,277.57L140.77,278.47L140.82,278.47L142.7,279.24L142.75,279.25L162.47,287.66L162.52,287.66L164.65,288.68L164.7,288.68L167.08,289.71L167.13,289.71L169.16,290.46L169.21,290.47L170.8,291.14L170.85,291.24L173.03,291.97L173.07,292L175.11,292.74L175.16,292.77L177.09,293.35L177.14,293.53L178.87,294.26L178.92,294.29L180.95,295.11L181,295.2L185.16,296.34L185.21,296.34L187.3,297.03L187.34,297.1L190.27,297.87L190.32,298.03L192.94,298.89L192.99,298.89L194.93,299.41L194.98,299.66L197.5,300.36L197.55,300.42L200.72,301.31L200.77,301.43L203.15,302.36L203.2,302.47L205.63,303.22L205.68,303.23L208.95,303.95L209,304L434,304" style="vector-effect: non-scaling-stroke; fill: none; stroke: rgb(198, 225, 241); stroke-opacity: 1; stroke-width: 2px; opacity: 1;"/></g><g class="points"/><g class="text"/></g></g></g><g class="overplot"/><path class="xlines-above crisp" d="M97,420.5H532" style="fill: none; stroke-width: 1px; stroke: rgb(36, 36, 36); stroke-opacity: 1;"/><path class="ylines-above crisp" d="M97.5,100V420" style="fill: none; stroke-width: 1px; stroke: rgb(36, 36, 36); stroke-opacity: 1;"/><g class="overlines-above"/><g class="xaxislayer-above"><path class="xtick ticks crisp" d="M0,421v5" transform="translate(184.76,0)" style="stroke: rgb(68, 68, 68); stroke-opacity: 1; stroke-width: 1px;"/><path class="xtick ticks crisp" d="M0,421v5" transform="translate(271.57,0)" style="stroke: rgb(68, 68, 68); stroke-opacity: 1; stroke-width: 1px;"/><path class="xtick ticks crisp" d="M0,421v5" transform="translate(358.38,0)" style="stroke: rgb(68, 68, 68); stroke-opacity: 1; stroke-width: 1px;"/><path class="xtick ticks crisp" d="M0,421v5" transform="translate(445.19,0)" style="stroke: rgb(68, 68, 68); stroke-opacity: 1; stroke-width: 1px;"/><path class="xtick ticks crisp" d="M0,421v5" transform="translate(532,0)" style="stroke: rgb(68, 68, 68); stroke-opacity: 1; stroke-width: 1px;"/><g class="xtick"><text text-anchor="middle" x="0" y="440.4" transform="translate(184.76,0)" style="font-family: 'Open Sans', verdana, arial, sans-serif; font-size: 12px; fill: rgb(36, 36, 36); fill-opacity: 1; white-space: pre;">20%</text></g><g class="xtick"><text text-anchor="middle" x="0" y="440.4" transform="translate(271.57,0)" style="font-family: 'Open Sans', verdana, arial, sans-serif; font-size: 12px; fill: rgb(36, 36, 36); fill-opacity: 1; white-space: pre;">40%</text></g><g class="xtick"><text text-anchor="middle" x="0" y="440.4" transform="translate(358.38,0)" style="font-family: 'Open Sans', verdana, arial, sans-serif; font-size: 12px; fill: rgb(36, 36, 36); fill-opacity: 1; white-space: pre;">60%</text></g><g class="xtick"><text text-anchor="middle" x="0" y="440.4" transform="translate(445.19,0)" style="font-family: 'Open Sans', verdana, arial, sans-serif; font-size: 12px; fill: rgb(36, 36, 36); fill-opacity: 1; white-space: pre;">80%</text></g><g class="xtick"><text text-anchor="middle" x="0" y="440.4" transform="translate(532,0)" style="font-family: 'Open Sans', verdana, arial, sans-serif; font-size: 12px; fill: rgb(36, 36, 36); fill-opacity: 1; white-space: pre;">100%</text></g></g><g class="yaxislayer-above"><path class="ytick ticks crisp" d="M97,0h-5" transform="translate(0,404)" style="stroke: rgb(68, 68, 68); stroke-opacity: 1; stroke-width: 1px;"/><path class="ytick ticks crisp" d="M97,0h-5" transform="translate(0,313.23)" style="stroke: rgb(68, 68, 68); stroke-opacity: 1; stroke-width: 1px;"/><path class="ytick ticks crisp" d="M97,0h-5" transform="translate(0,222.45)" style="stroke: rgb(68, 68, 68); stroke-opacity: 1; stroke-width: 1px;"/><path class="ytick ticks crisp" d="M97,0h-5" transform="translate(0,131.68)" style="stroke: rgb(68, 68, 68); stroke-opacity: 1; stroke-width: 1px;"/><g class="ytick"><text text-anchor="end" x="89.6" y="4.199999999999999" transform="translate(0,404)" style="font-family: 'Open Sans', verdana, arial, sans-serif; font-size: 12px; fill: rgb(36, 36, 36); fill-opacity: 1; white-space: pre;">0 MW</text></g><g class="ytick"><text text-anchor="end" x="89.6" y="4.199999999999999" transform="translate(0,313.23)" style="font-family: 'Open Sans', verdana, arial, sans-serif; font-size: 12px; fill: rgb(36, 36, 36); fill-opacity: 1; white-space: pre;">500 MW</text></g><g class="ytick"><text text-anchor="end" x="89.6" y="4.199999999999999" transform="translate(0,222.45)" style="font-family: 'Open Sans', verdana, arial, sans-serif; font-size: 12px; fill: rgb(36, 36, 36); fill-opacity: 1; white-space: pre;">1000 MW</text></g><g class="ytick"><text text-anchor="end" x="89.6" y="4.199999999999999" transform="translate(0,131.68)" style="font-family: 'Open Sans', verdana, arial, sans-serif; font-size: 12px; fill: rgb(36, 36, 36); fill-opacity: 1; white-space: pre;">1500 MW</text></g></g><g class="overaxes-above"/></g></g><g class="polarlayer"/><g class="ternarylayer"/><g class="geolayer"/><g class="funnelarealayer"/><g class="pielayer"/><g class="treemaplayer"/><g class="sunburstlayer"/><g class="glimages"/><defs id="topdefs-81583b"><g class="clips"/><clipPath id="legend81583b"><rect width="145" height="124" x="1" y="1"/></clipPath></defs><g class="layer-above"><g class="imagelayer"/><g class="shapelayer"/></g><g class="infolayer"><g class="legend" pointer-events="all" transform="translate(540.6800000000001,100)"><rect class="bg" shape-rendering="crispEdges" width="146" height="125" x="0.5" y="0.5" style="stroke: rgb(232, 232, 232); stroke-opacity: 1; fill: rgb(255, 255, 255); fill-opacity: 1; stroke-width: 1px;"/><g class="scrollbox" transform="" clip-path="url('#legend81583b')"><g class="groups"><g class="traces" transform="translate(1,15.5)" style="opacity: 1;"><text class="legendtext" text-anchor="start" x="40" y="4.680000000000001" style="font-family: 'Open Sans', verdana, arial, sans-serif; font-size: 12px; fill: rgb(36, 36, 36); fill-opacity: 1; white-space: pre;">Achterhoek</text><g class="layers" style="opacity: 0.8;"><g class="legendfill"/><g class="legendlines"><path class="js-line" d="M5,0h30" style="fill: none; stroke: rgb(26, 36, 65); stroke-opacity: 1; stroke-width: 2px;"/></g><g class="legendsymbols"><g class="legendpoints"/></g></g><rect class="legendtoggle" x="0" y="-9.5" width="139.8125" height="19" style="fill: rgb(0, 0, 0); fill-opacity: 0;"/></g><g class="traces" transform="translate(1,34.5)" style="opacity: 1;"><text class="legendtext" text-anchor="start" x="40" y="4.680000000000001" style="font-family: 'Open Sans', verdana, arial, sans-serif; font-size: 12px; fill: rgb(36, 36, 36); fill-opacity: 1; white-space: pre;">ArnhemNijmegen</text><g class="layers" style="opacity: 0.8;"><g class="legendfill"/><g class="legendlines"><path class="js-line" d="M5,0h30" style="fill: none; stroke: rgb(27, 97, 69); stroke-opacity: 1; stroke-width: 2px;"/></g><g class="legendsymbols"><g class="legendpoints"/></g></g><rect class="legendtoggle" x="0" y="-9.5" width="139.8125" height="19" style="fill: rgb(0, 0, 0); fill-opacity: 0;"/></g><g class="traces" transform="translate(1,53.5)" style="opacity: 1;"><text class="legendtext" text-anchor="start" x="40" y="4.680000000000001" style="font-family: 'Open Sans', verdana, arial, sans-serif; font-size: 12px; fill: rgb(36, 36, 36); fill-opacity: 1; white-space: pre;">Cleantech</text><g class="layers" style="opacity: 0.8;"><g class="legendfill"/><g class="legendlines"><path class="js-line" d="M5,0h30" style="fill: none; stroke: rgb(105, 123, 48); stroke-opacity: 1; stroke-width: 2px;"/></g><g class="legendsymbols"><g class="legendpoints"/></g></g><rect class="legendtoggle" x="0" y="-9.5" width="139.8125" height="19" style="fill: rgb(0, 0, 0); fill-opacity: 0;"/></g><g class="traces" transform="translate(1,72.5)" style="opacity: 1;"><text class="legendtext" text-anchor="start" x="40" y="4.680000000000001" style="font-family: 'Open Sans', verdana, arial, sans-serif; font-size: 12px; fill: rgb(36, 36, 36); fill-opacity: 1; white-space: pre;">Foodvalley </text><g class="layers" style="opacity: 0.8;"><g class="legendfill"/><g class="legendlines"><path class="js-line" d="M5,0h30" style="fill: none; stroke: rgb(200, 123, 124); stroke-opacity: 1; stroke-width: 2px;"/></g><g class="legendsymbols"><g class="legendpoints"/></g></g><rect class="legendtoggle" x="0" y="-9.5" width="139.8125" height="19" style="fill: rgb(0, 0, 0); fill-opacity: 0;"/></g><g class="traces" transform="translate(1,91.5)" style="opacity: 1;"><text class="legendtext" text-anchor="start" x="40" y="4.680000000000001" style="font-family: 'Open Sans', verdana, arial, sans-serif; font-size: 12px; fill: rgb(36, 36, 36); fill-opacity: 1; white-space: pre;">NoordVeluwe</text><g class="layers" style="opacity: 0.8;"><g class="legendfill"/><g class="legendlines"><path class="js-line" d="M5,0h30" style="fill: none; stroke: rgb(205, 162, 224); stroke-opacity: 1; stroke-width: 2px;"/></g><g class="legendsymbols"><g class="legendpoints"/></g></g><rect class="legendtoggle" x="0" y="-9.5" width="139.8125" height="19" style="fill: rgb(0, 0, 0); fill-opacity: 0;"/></g><g class="traces" transform="translate(1,110.5)" style="opacity: 1;"><text class="legendtext" text-anchor="start" x="40" y="4.680000000000001" style="font-family: 'Open Sans', verdana, arial, sans-serif; font-size: 12px; fill: rgb(36, 36, 36); fill-opacity: 1; white-space: pre;">Rivierenland</text><g class="layers" style="opacity: 0.8;"><g class="legendfill"/><g class="legendlines"><path class="js-line" d="M5,0h30" style="fill: none; stroke: rgb(198, 225, 241); stroke-opacity: 1; stroke-width: 2px;"/></g><g class="legendsymbols"><g class="legendpoints"/></g></g><rect class="legendtoggle" x="0" y="-9.5" width="139.8125" height="19" style="fill: rgb(0, 0, 0); fill-opacity: 0;"/></g></g></g><rect class="scrollbar" rx="20" ry="3" width="0" height="0" x="0" y="0" style="fill: rgb(128, 139, 164); fill-opacity: 1;"/></g><g class="g-gtitle"/><g class="g-xtitle"><text class="xtitle" x="315" y="469.20625" text-anchor="middle" style="font-family: 'Open Sans', verdana, arial, sans-serif; font-size: 14px; fill: rgb(36, 36, 36); opacity: 1; font-weight: normal; white-space: pre;"><tspan style="font-weight:bold">Cumulative duration</tspan></text></g><g class="g-ytitle" transform="translate(2.7060546875,0)"><text class="ytitle" transform="rotate(-90,12.293750000000003,260)" x="12.293750000000003" y="260" text-anchor="middle" style="font-family: 'Open Sans', verdana, arial, sans-serif; font-size: 14px; fill: rgb(36, 36, 36); opacity: 1; font-weight: normal; white-space: pre;"><tspan style="font-weight:bold">Power</tspan></text></g></g></svg>