<svg class="main-svg" xmlns="http://www.w3.org/2000/svg" xmlns:xlink="http://www.w3.org/1999/xlink" width="700" height="500" style="" viewBox="0 0 700 500"><rect x="0" y="0" width="700" height="500" style="fill: rgb(255, 255, 255); fill-opacity: 1;"/><defs id="defs-f45347"><g class="clips"/><g class="gradients"/></defs><g class="bglayer"/><g class="layer-below"><g class="imagelayer"/><g class="shapelayer"/></g><g class="cartesianlayer"/><g class="polarlayer"/><g class="ternarylayer"/><g class="geolayer"/><g class="funnelarealayer"/><g class="pielayer"><g class="trace" stroke-linejoin="round" style="opacity: 0.8;"><g class="slice"><path class="surface" d="M65.83333333333334,319.25l0,-45.833333333333336a45.833333333333336,45.833333333333336 0 1 1 -29.513893566296336,80.89933582865316Z" style="pointer-events: all; stroke-width: 0; fill: rgb(140, 192, 237); fill-opacity: 1; stroke: rgb(68, 68, 68); stroke-opacity: 1;"/></g><g class="slice"><path class="surface" d="M65.83333333333334,319.25l-29.513893566296346,35.06600249531982a45.833333333333336,45.833333333333336 0 0 1 29.513893566296346,-80.89933582865316Z" style="pointer-events: all; stroke-width: 0; fill: rgb(235, 210, 91); fill-opacity: 1; stroke: rgb(68, 68, 68); stroke-opacity: 1;"/></g></g><g class="trace" stroke-linejoin="round" style="opacity: 0.8;"><g class="slice"><path class="surface" d="M65.83333333333334,119.75l0,-45.833333333333336a45.833333333333336,45.833333333333336 0 1 1 -12.307710656591468,89.9832450301654Z" style="pointer-events: all; stroke-width: 0; fill: rgb(196, 174, 67); fill-opacity: 1; stroke: rgb(68, 68, 68); stroke-opacity: 1;"/></g><g class="slice"><path class="surface" d="M65.83333333333334,119.75l-12.30771065659148,44.14991169683207a45.833333333333336,45.833333333333336 0 0 1 12.30771065659148,-89.9832450301654Z" style="pointer-events: all; stroke-width: 0; fill: rgb(104, 148, 186); fill-opacity: 1; stroke: rgb(68, 68, 68); stroke-opacity: 1;"/></g></g><g class="trace" stroke-linejoin="round" style="opacity: 0.8;"><g class="slice"><path class="surface" d="M179.5,319.25l0,-45.833333333333336a45.833333333333336,45.833333333333336 0 1 1 -40.447780771928926,67.38957315085301Z" style="pointer-events: all; stroke-width: 0; fill: rgb(140, 192, 237); fill-opacity: 1; stroke: rgb(68, 68, 68); stroke-opacity: 1;"/></g><g class="slice"><path class="surface" d="M179.5,319.25l-40.447780771928926,21.55623981751969a45.833333333333336,45.833333333333336 0 0 1 40.447780771928926,-67.38957315085302Z" style="pointer-events: all; stroke-width: 0; fill: rgb(235, 210, 91); fill-opacity: 1; stroke: rgb(68, 68, 68); stroke-opacity: 1;"/></g></g><g class="trace" stroke-linejoin="round" style="opacity: 0.8;"><g class="slice"><path class="surface" d="M179.5,119.75l0,-45.833333333333336a45.833333333333336,45.833333333333336 0 1 1 -38.68041025731041,70.42032800064882Z" style="pointer-events: all; stroke-width: 0; fill: rgb(196, 174, 67); fill-opacity: 1; stroke: rgb(68, 68, 68); stroke-opacity: 1;"/></g><g class="slice"><path class="surface" d="M179.5,119.75l-38.6804102573104,24.58699466731551a45.833333333333336,45.833333333333336 0 0 1 38.6804102573104,-70.42032800064885Z" style="pointer-events: all; stroke-width: 0; fill: rgb(104, 148, 186); fill-opacity: 1; stroke: rgb(68, 68, 68); stroke-opacity: 1;"/></g></g><g class="trace" stroke-linejoin="round" style="opacity: 0.8;"><g class="slice"><path class="surface" d="M293.16666666666663,319.25l0,-45.833333333333336a45.833333333333336,45.833333333333336 0 1 1 -32.04780489463629,78.5996673650765Z" style="pointer-events: all; stroke-width: 0; fill: rgb(140, 192, 237); fill-opacity: 1; stroke: rgb(68, 68, 68); stroke-opacity: 1;"/></g><g class="slice"><path class="surface" d="M293.16666666666663,319.25l-32.04780489463627,32.76633403174319a45.833333333333336,45.833333333333336 0 0 1 32.04780489463627,-78.59966736507653Z" style="pointer-events: all; stroke-width: 0; fill: rgb(235, 210, 91); fill-opacity: 1; stroke: rgb(68, 68, 68); stroke-opacity: 1;"/></g></g><g class="trace" stroke-linejoin="round" style="opacity: 0.8;"><g class="slice"><path class="surface" d="M293.16666666666663,119.75l0,-45.833333333333336a45.833333333333336,45.833333333333336 0 1 1 -31.195965888363425,12.254974875295062Z" style="pointer-events: all; stroke-width: 0; fill: rgb(196, 174, 67); fill-opacity: 1; stroke: rgb(68, 68, 68); stroke-opacity: 1;"/></g><g class="slice"><path class="surface" d="M293.16666666666663,119.75l-31.195965888363432,-33.57835845803827a45.833333333333336,45.833333333333336 0 0 1 31.195965888363432,-12.25497487529507Z" style="pointer-events: all; stroke-width: 0; fill: rgb(104, 148, 186); fill-opacity: 1; stroke: rgb(68, 68, 68); stroke-opacity: 1;"/></g></g><g class="trace" stroke-linejoin="round" style="opacity: 0.8;"><g class="slice"><path class="surface" d="M406.8333333333334,319.25l0,-45.83333333333336a45.83333333333336,45.83333333333336 0 1 1 -39.840206350274585,68.49282146550411Z" style="pointer-events: all; stroke-width: 0; fill: rgb(140, 192, 237); fill-opacity: 1; stroke: rgb(68, 68, 68); stroke-opacity: 1;"/></g><g class="slice"><path class="surface" d="M406.8333333333334,319.25l-39.8402063502746,22.65948813217073a45.83333333333336,45.83333333333336 0 0 1 39.8402063502746,-68.49282146550408Z" style="pointer-events: all; stroke-width: 0; fill: rgb(235, 210, 91); fill-opacity: 1; stroke: rgb(68, 68, 68); stroke-opacity: 1;"/></g></g><g class="trace" stroke-linejoin="round" style="opacity: 0.8;"><g class="slice"><path class="surface" d="M406.8333333333334,73.91666666666664a45.83333333333336,45.83333333333336 0 1 1 5.612964496092039e-15,91.66666666666671a45.83333333333336,45.83333333333336 0 1 1 -5.612964496092039e-15,-91.66666666666671Z" style="pointer-events: all; stroke-width: 0; fill: rgb(196, 174, 67); fill-opacity: 1; stroke: rgb(68, 68, 68); stroke-opacity: 1;"/></g><g class="slice"><path class="surface" d="M406.8333333333334,119.75l0,-45.83333333333336a45.83333333333336,45.83333333333336 0 0 1 0,0Z" style="pointer-events: all; stroke-width: 0; fill: rgb(104, 148, 186); fill-opacity: 1; stroke: rgb(68, 68, 68); stroke-opacity: 1;"/></g></g><g class="trace" stroke-linejoin="round" style="opacity: 0.8;"><g class="slice"><path class="surface" d="M520.5,319.25l0,-45.833333333333314a45.833333333333314,45.833333333333314 0 1 1 -40.521189621530766,67.2512612466584Z" style="pointer-events: all; stroke-width: 0; fill: rgb(140, 192, 237); fill-opacity: 1; stroke: rgb(68, 68, 68); stroke-opacity: 1;"/></g><g class="slice"><path class="surface" d="M520.5,319.25l-40.52118962153078,21.417927913325055a45.833333333333314,45.833333333333314 0 0 1 40.52118962153078,-67.25126124665837Z" style="pointer-events: all; stroke-width: 0; fill: rgb(235, 210, 91); fill-opacity: 1; stroke: rgb(68, 68, 68); stroke-opacity: 1;"/></g></g><g class="trace" stroke-linejoin="round" style="opacity: 0.8;"><g class="slice"><path class="surface" d="M520.5,119.75l0,-45.833333333333314a45.833333333333314,45.833333333333314 0 1 1 -9.2852616667892,90.71627397032475Z" style="pointer-events: all; stroke-width: 0; fill: rgb(104, 148, 186); fill-opacity: 1; stroke: rgb(68, 68, 68); stroke-opacity: 1;"/></g><g class="slice"><path class="surface" d="M520.5,119.75l-9.28526166678923,44.882940636991435a45.833333333333314,45.833333333333314 0 0 1 9.28526166678923,-90.71627397032475Z" style="pointer-events: all; stroke-width: 0; fill: rgb(196, 174, 67); fill-opacity: 1; stroke: rgb(68, 68, 68); stroke-opacity: 1;"/></g></g><g class="trace" stroke-linejoin="round" style="opacity: 0.8;"><g class="slice"><path class="surface" d="M634.1666666666666,319.25l0,-45.83333333333336a45.83333333333336,45.83333333333336 0 1 1 -6.731289457752252,91.1696784295186Z" style="pointer-events: all; stroke-width: 0; fill: rgb(140, 192, 237); fill-opacity: 1; stroke: rgb(68, 68, 68); stroke-opacity: 1;"/></g><g class="slice"><path class="surface" d="M634.1666666666666,319.25l-6.731289457752284,45.33634509618524a45.83333333333336,45.83333333333336 0 0 1 6.731289457752284,-91.1696784295186Z" style="pointer-events: all; stroke-width: 0; fill: rgb(235, 210, 91); fill-opacity: 1; stroke: rgb(68, 68, 68); stroke-opacity: 1;"/></g></g><g class="trace" stroke-linejoin="round" style="opacity: 0.8;"><g class="slice"><path class="surface" d="M634.1666666666666,119.75l0,-45.83333333333336a45.83333333333336,45.83333333333336 0 1 1 -41.89550804404551,64.41991048394837Z" style="pointer-events: all; stroke-width: 0; fill: rgb(104, 148, 186); fill-opacity: 1; stroke: rgb(68, 68, 68); stroke-opacity: 1;"/></g><g class="slice"><path class="surface" d="M634.1666666666666,119.75l-41.895508044045506,18.586577150615025a45.83333333333336,45.83333333333336 0 0 1 41.895508044045506,-64.41991048394839Z" style="pointer-events: all; stroke-width: 0; fill: rgb(196, 174, 67); fill-opacity: 1; stroke: rgb(68, 68, 68); stroke-opacity: 1;"/></g></g></g><g class="treemaplayer"/><g class="sunburstlayer"/><g class="glimages"/><defs id="topdefs-f45347"><g class="clips"/><clipPath id="legendf45347"><rect width="618" height="29" x="0" y="0"/></clipPath></defs><g class="layer-above"><g class="imagelayer"/><g class="shapelayer"/></g><g class="infolayer"><g class="legend" pointer-events="all" transform="translate(20,458.90000000000003)"><rect class="bg" shape-rendering="crispEdges" style="stroke: rgb(68, 68, 68); stroke-opacity: 1; fill: rgb(255, 255, 255); fill-opacity: 1; stroke-width: 0px;" width="618" height="29" x="0" y="0"/><g class="scrollbox" transform="" clip-path="url('#legendf45347')"><g class="groups"><g class="traces" transform="translate(0,14.5)" style="opacity: 1;"><text class="legendtext" text-anchor="start" x="40" y="4.680000000000001" style="font-family: 'Open Sans', verdana, arial, sans-serif; font-size: 12px; fill: rgb(42, 63, 95); fill-opacity: 1; white-space: pre;">Wind optimal yield %</text><g class="layers" style="opacity: 0.8;"><g class="legendfill"/><g class="legendlines"/><g class="legendsymbols"><g class="legendpoints"><path class="legendpie" d="M6,6H-6V-6H6Z" transform="translate(20,0)" style="stroke-width: 0; fill: rgb(140, 192, 237); fill-opacity: 1; stroke: rgb(68, 68, 68); stroke-opacity: 1;"/></g></g></g><rect class="legendtoggle" x="0" y="-9.5" width="160.671875" height="19" style="fill: rgb(0, 0, 0); fill-opacity: 0;"/></g><g class="traces" transform="translate(163.171875,14.5)" style="opacity: 1;"><text class="legendtext" text-anchor="start" x="40" y="4.680000000000001" style="font-family: 'Open Sans', verdana, arial, sans-serif; font-size: 12px; fill: rgb(42, 63, 95); fill-opacity: 1; white-space: pre;">PV optimal yield %</text><g class="layers" style="opacity: 0.8;"><g class="legendfill"/><g class="legendlines"/><g class="legendsymbols"><g class="legendpoints"><path class="legendpie" d="M6,6H-6V-6H6Z" transform="translate(20,0)" style="stroke-width: 0; fill: rgb(235, 210, 91); fill-opacity: 1; stroke: rgb(68, 68, 68); stroke-opacity: 1;"/></g></g></g><rect class="legendtoggle" x="0" y="-9.5" width="145.171875" height="19" style="fill: rgb(0, 0, 0); fill-opacity: 0;"/></g><g class="traces" transform="translate(310.84375,14.5)" style="opacity: 1;"><text class="legendtext" text-anchor="start" x="40" y="4.680000000000001" style="font-family: 'Open Sans', verdana, arial, sans-serif; font-size: 12px; fill: rgb(42, 63, 95); fill-opacity: 1; white-space: pre;">PV RES 1.0 yield %</text><g class="layers" style="opacity: 0.8;"><g class="legendfill"/><g class="legendlines"/><g class="legendsymbols"><g class="legendpoints"><path class="legendpie" d="M6,6H-6V-6H6Z" transform="translate(20,0)" style="stroke-width: 0; fill: rgb(196, 174, 67); fill-opacity: 1; stroke: rgb(68, 68, 68); stroke-opacity: 1;"/></g></g></g><rect class="legendtoggle" x="0" y="-9.5" width="143.140625" height="19" style="fill: rgb(0, 0, 0); fill-opacity: 0;"/></g><g class="traces" transform="translate(456.484375,14.5)" style="opacity: 1;"><text class="legendtext" text-anchor="start" x="40" y="4.680000000000001" style="font-family: 'Open Sans', verdana, arial, sans-serif; font-size: 12px; fill: rgb(42, 63, 95); fill-opacity: 1; white-space: pre;">Wind RES 1.0 yield %</text><g class="layers" style="opacity: 0.8;"><g class="legendfill"/><g class="legendlines"/><g class="legendsymbols"><g class="legendpoints"><path class="legendpie" d="M6,6H-6V-6H6Z" transform="translate(20,0)" style="stroke-width: 0; fill: rgb(104, 148, 186); fill-opacity: 1; stroke: rgb(68, 68, 68); stroke-opacity: 1;"/></g></g></g><rect class="legendtoggle" x="0" y="-9.5" width="158.640625" height="19" style="fill: rgb(0, 0, 0); fill-opacity: 0;"/></g></g></g><rect class="scrollbar" rx="20" ry="3" width="0" height="0" style="fill: rgb(128, 139, 164); fill-opacity: 1;" x="0" y="0"/></g><g class="g-gtitle"/><g class="annotation" data-index="0" style="opacity: 1;"><g class="annotation-text-g" transform="rotate(0,65.83333333333334,6.9999999999999964)"><g class="cursor-pointer" transform="translate(20,-6)"><rect class="bg" x="0.5" y="0.5" width="90" height="25" style="stroke-width: 1px; stroke: rgb(0, 0, 0); stroke-opacity: 0; fill: rgb(0, 0, 0); fill-opacity: 0;"/><text class="annotation-text" text-anchor="middle" x="45.796875" y="19" style="font-family: 'Open Sans', verdana, arial, sans-serif; font-size: 16px; fill: rgb(42, 63, 95); fill-opacity: 1; white-space: pre;">Achterhoek</text></g></g></g><g class="annotation" data-index="1" style="opacity: 1;"><g class="annotation-text-g" transform="rotate(0,179.5,6.9999999999999964)"><g class="cursor-pointer" transform="translate(111,-6)"><rect class="bg" x="0.5" y="0.5" width="136" height="25" style="stroke-width: 1px; stroke: rgb(0, 0, 0); stroke-opacity: 0; fill: rgb(0, 0, 0); fill-opacity: 0;"/><text class="annotation-text" text-anchor="middle" x="68.875" y="19" style="font-family: 'Open Sans', verdana, arial, sans-serif; font-size: 16px; fill: rgb(42, 63, 95); fill-opacity: 1; white-space: pre;">ArnhemNijmegen</text></g></g></g><g class="annotation" data-index="2" style="opacity: 1;"><g class="annotation-text-g" transform="rotate(0,293.16666666666663,6.999999999999998)"><g class="cursor-pointer" transform="translate(254,-6)"><rect class="bg" x="0.5" y="0.5" width="77" height="25" style="stroke-width: 1px; stroke: rgb(0, 0, 0); stroke-opacity: 0; fill: rgb(0, 0, 0); fill-opacity: 0;"/><text class="annotation-text" text-anchor="middle" x="38.953125" y="19" style="font-family: 'Open Sans', verdana, arial, sans-serif; font-size: 16px; fill: rgb(42, 63, 95); fill-opacity: 1; white-space: pre;">Cleantech</text></g></g></g><g class="annotation" data-index="3" style="opacity: 1;"><g class="annotation-text-g" transform="rotate(0,406.8333333333334,6.9999999999999964)"><g class="cursor-pointer" transform="translate(363,-6)"><rect class="bg" x="0.5" y="0.5" width="87" height="25" style="stroke-width: 1px; stroke: rgb(0, 0, 0); stroke-opacity: 0; fill: rgb(0, 0, 0); fill-opacity: 0;"/><text class="annotation-text" text-anchor="middle" x="43.796875" y="19" style="font-family: 'Open Sans', verdana, arial, sans-serif; font-size: 16px; fill: rgb(42, 63, 95); fill-opacity: 1; white-space: pre;">Foodvalley </text></g></g></g><g class="annotation" data-index="4" style="opacity: 1;"><g class="annotation-text-g" transform="rotate(0,520.5,6.9999999999999964)"><g class="cursor-pointer" transform="translate(468,-6)"><rect class="bg" x="0.5" y="0.5" width="105" height="25" style="stroke-width: 1px; stroke: rgb(0, 0, 0); stroke-opacity: 0; fill: rgb(0, 0, 0); fill-opacity: 0;"/><text class="annotation-text" text-anchor="middle" x="52.765625" y="19" style="font-family: 'Open Sans', verdana, arial, sans-serif; font-size: 16px; fill: rgb(42, 63, 95); fill-opacity: 1; white-space: pre;">NoordVeluwe</text></g></g></g><g class="annotation" data-index="5" style="opacity: 1;"><g class="annotation-text-g" transform="rotate(0,634.1666666666666,6.9999999999999964)"><g class="cursor-pointer" transform="translate(586,-6)"><rect class="bg" x="0.5" y="0.5" width="96" height="25" style="stroke-width: 1px; stroke: rgb(0, 0, 0); stroke-opacity: 0; fill: rgb(0, 0, 0); fill-opacity: 0;"/><text class="annotation-text" text-anchor="middle" x="48.4375" y="19" style="font-family: 'Open Sans', verdana, arial, sans-serif; font-size: 16px; fill: rgb(42, 63, 95); fill-opacity: 1; white-space: pre;">Rivierenland</text></g></g></g></g></svg>