<svg class="main-svg" xmlns="http://www.w3.org/2000/svg" xmlns:xlink="http://www.w3.org/1999/xlink" width="700" height="500" style="" viewBox="0 0 700 500"><rect x="0" y="0" width="700" height="500" style="fill: rgb(255, 255, 255); fill-opacity: 1;"/><defs id="defs-baf227"><g class="clips"><clipPath id="clipbaf227xyplot" class="plotclip"><rect width="441" height="320"/></clipPath><clipPath class="axesclip" id="clipbaf227x"><rect x="91" y="0" width="441" height="500"/></clipPath><clipPath class="axesclip" id="clipbaf227y"><rect x="0" y="100" width="700" height="320"/></clipPath><clipPath class="axesclip" id="clipbaf227xy"><rect x="91" y="100" width="441" height="320"/></clipPath></g><g class="gradients"/></defs><g class="bglayer"/><g class="layer-below"><g class="imagelayer"/><g class="shapelayer"/></g><g class="cartesianlayer"><g class="subplot xy"><g class="layer-subplot"><g class="shapelayer"/><g class="imagelayer"/></g><g class="gridlayer"><g class="x"/><g class="y"/></g><g class="zerolinelayer"/><path class="xlines-below"/><path class="ylines-below"/><g class="overlines-below"/><g class="xaxislayer-below"/><g class="yaxislayer-below"/><g class="overaxes-below"/><g class="plot" transform="translate(91,100)" clip-path="url('#clipbaf227xyplot')"><g class="scatterlayer mlayer"><g class="trace scatter traceb93304" style="stroke-miterlimit: 2; opacity: 0.8;"><g class="fills"/><g class="errorbars"/><g class="lines"><path class="js-line" d="M0,246.17L7.4,246.72L7.45,246.94L9.97,252.56L10.02,252.56L10.57,253.27L10.62,253.38L12.03,256.11L12.08,256.2L14.75,261.05L14.8,261.05L17.77,265.58L17.82,265.88L19.54,268.18L19.59,268.28L20.64,270.12L20.69,270.13L22,272.02L22.05,272.02L24.02,274.56L24.07,274.59L28.19,279.15L28.25,279.16L30.76,281.47L30.81,281.48L31.82,282.43L31.87,282.57L46.47,293.67L46.52,293.67L51.15,294.41L51.2,294.45L63.49,302.01L63.54,302.02L67.82,303.99L67.87,303.99L441,304" style="vector-effect: non-scaling-stroke; fill: none; stroke: rgb(26, 36, 65); stroke-opacity: 1; stroke-width: 2px; opacity: 1;"/></g><g class="points"/><g class="text"/></g><g class="trace scatter trace9e6ce2" style="stroke-miterlimit: 2; opacity: 0.8;"><g class="fills"/><g class="errorbars"/><g class="lines"><path class="js-line" d="M0,114.07L2.52,114.71L2.57,114.85L3.12,122.92L3.17,123.63L8.36,160.87L8.41,160.92L9.97,169.32L10.02,169.43L16.26,196.59L16.31,196.61L16.92,198.94L16.97,199.32L17.92,201.85L17.97,202.03L20.54,210.49L20.59,210.54L25.88,225.89L25.93,225.97L28.19,230.96L28.25,230.97L29.55,234.05L29.6,234.23L31.12,237.62L31.17,237.66L40.23,255.8L40.28,255.82L50.55,270.09L50.6,270.09L51.36,270.8L51.41,270.88L53.47,273.94L53.52,273.97L55.89,277.55L55.94,277.56L57.9,280.78L57.95,280.81L59.31,282.71L59.36,282.78L62.18,287.28L62.23,287.29L64.09,290.42L64.14,290.42L65.3,291.58L65.35,291.95L66.86,293.73L66.91,293.74L76.98,303.47L77.03,303.51L85.44,303.92L85.49,303.92L441,304" style="vector-effect: non-scaling-stroke; fill: none; stroke: rgb(27, 97, 69); stroke-opacity: 1; stroke-width: 2px; opacity: 1;"/></g><g class="points"/><g class="text"/></g><g class="trace scatter trace9f8ca6" style="stroke-miterlimit: 2; opacity: 0.8;"><g class="fills"/><g class="errorbars"/><g class="lines"><path class="js-line" d="M0,116.98L1.16,155.22L1.21,155.7L3.12,168.62L3.17,168.74L3.57,172.2L3.63,173.31L5.09,181.54L5.14,182.39L7.25,190.71L7.3,191.52L14.25,214.89L14.3,214.89L17.12,222.13L17.17,222.7L17.57,223.56L17.62,223.88L19.28,228.13L19.33,228.16L20.54,230.68L20.59,230.75L31.12,247.3L31.17,247.32L32.02,248.57L32.07,248.77L34.74,252.53L34.79,252.71L36.96,256.05L37.01,256.06L38.31,257.84L38.37,257.89L39.57,259.5L39.62,259.52L40.38,260.48L40.43,260.64L45.97,267.68L46.02,267.69L47.18,268.8L47.23,269.02L48.69,270.64L48.74,270.81L50.55,272.59L50.6,272.68L53.12,275.12L53.17,275.17L57.7,280.02L57.75,280.02L58.91,281.25L58.96,281.35L64.19,285.7L64.24,285.76L67.37,288.31L67.42,288.42L68.88,289.97L68.93,290.1L70.08,291.41L70.14,291.42L81.72,301.16L81.77,301.17L83.48,302.2L83.53,302.21L86.95,303.88L87,303.88L99.64,303.98L99.69,303.98L441,304" style="vector-effect: non-scaling-stroke; fill: none; stroke: rgb(105, 123, 48); stroke-opacity: 1; stroke-width: 2px; opacity: 1;"/></g><g class="points"/><g class="text"/></g><g class="trace scatter trace28d5d0" style="stroke-miterlimit: 2; opacity: 0.8;"><g class="fills"/><g class="errorbars"/><g class="lines"><path class="js-line" d="M0,215.11L2.42,215.82L2.47,216L4.78,225.37L4.83,225.43L5.84,229.89L5.89,229.9L6.6,231.99L6.65,232.61L10.98,245.35L11.03,245.35L12.23,247.85L12.28,247.95L16.87,256.5L16.92,256.55L19.28,259.76L19.33,259.78L27.94,269.93L27.99,270.15L31.87,274.95L31.92,274.96L36.91,279.72L36.96,279.88L39.27,281.69L39.32,281.77L40.43,282.98L40.48,282.98L44.16,286.24L44.21,286.25L46.72,287.64L46.77,287.73L50.75,289.74L50.8,289.78L55.23,293.43L55.28,293.43L58.2,295.11L58.25,295.21L60.07,296.44L60.12,296.5L63.14,298.05L63.19,298.1L73.26,303.59L73.31,303.6L89.17,303.93L89.22,303.93L441,304" style="vector-effect: non-scaling-stroke; fill: none; stroke: rgb(200, 123, 124); stroke-opacity: 1; stroke-width: 2px; opacity: 1;"/></g><g class="points"/><g class="text"/></g><g class="trace scatter trace0f204d" style="stroke-miterlimit: 2; opacity: 0.8;"><g class="fills"/><g class="errorbars"/><g class="lines"><path class="js-line" d="M0,256.61L3.47,257.34L3.52,257.6L4.13,258.76L4.18,259.27L7.35,265.3L7.4,265.32L8.56,267.13L8.61,267.13L9.57,268.47L9.62,268.48L16.01,277.16L16.06,277.17L20.59,281.93L20.64,281.93L22,282.82L22.05,282.9L23.31,283.89L23.36,284.02L29.05,287.63L29.1,287.64L33.88,289.96L33.93,289.98L42.64,294.06L42.7,294.06L45.51,295.35L45.57,295.35L73.46,303.98L73.51,303.98L85.04,304L85.09,304L441,304" style="vector-effect: non-scaling-stroke; fill: none; stroke: rgb(205, 162, 224); stroke-opacity: 1; stroke-width: 2px; opacity: 1;"/></g><g class="points"/><g class="text"/></g><g class="trace scatter trace9eec4f" style="stroke-miterlimit: 2; opacity: 0.8;"><g class="fills"/><g class="errorbars"/><g class="lines"><path class="js-line" d="M0,16L1.36,75.04L1.41,75.62L3.47,100.5L3.52,100.69L5.49,119.62L5.54,119.71L10.98,147.83L11.03,147.89L17.22,169.01L17.27,170.05L18.33,172.93L18.38,173.23L23.01,185.52L23.06,185.92L24.17,188.18L24.22,188.4L26.79,194.82L26.84,195.17L31.42,205.8L31.47,205.86L33.68,210.07L33.73,210.38L35.65,213.83L35.7,213.87L50.45,237.74L50.5,237.74L53.92,241.49L53.97,241.59L56.59,244.99L56.64,245.01L60.82,251.04L60.87,251.04L65.55,257.73L65.6,257.9L66.36,259.14L66.41,259.27L69.78,263.58L69.83,263.59L72.15,265.45L72.2,265.56L73.81,267.65L73.86,267.67L86.75,281.1L86.8,281.35L90.27,284.89L90.32,285.04L91.13,285.87L91.18,285.97L92.74,287.51L92.79,287.56L94.6,289.17L94.65,289.2L96.47,290.68L96.52,290.71L99.89,293.51L99.94,293.79L102.71,295.96L102.76,295.97L106.34,298.88L106.39,298.93L107.85,300.37L107.9,300.57L110.56,302.46L110.62,302.69L112.53,303.87L112.58,303.87L116.96,303.99L117.01,303.99L441,304" style="vector-effect: non-scaling-stroke; fill: none; stroke: rgb(198, 225, 241); stroke-opacity: 1; stroke-width: 2px; opacity: 1;"/></g><g class="points"/><g class="text"/></g></g></g><g class="overplot"/><path class="xlines-above crisp" d="M90,420.5H532" style="fill: none; stroke-width: 1px; stroke: rgb(36, 36, 36); stroke-opacity: 1;"/><path class="ylines-above crisp" d="M90.5,100V420" style="fill: none; stroke-width: 1px; stroke: rgb(36, 36, 36); stroke-opacity: 1;"/><g class="overlines-above"/><g class="xaxislayer-above"><path class="xtick ticks crisp" d="M0,421v5" transform="translate(179.16,0)" style="stroke: rgb(68, 68, 68); stroke-opacity: 1; stroke-width: 1px;"/><path class="xtick ticks crisp" d="M0,421v5" transform="translate(267.37,0)" style="stroke: rgb(68, 68, 68); stroke-opacity: 1; stroke-width: 1px;"/><path class="xtick ticks crisp" d="M0,421v5" transform="translate(355.58,0)" style="stroke: rgb(68, 68, 68); stroke-opacity: 1; stroke-width: 1px;"/><path class="xtick ticks crisp" d="M0,421v5" transform="translate(443.79,0)" style="stroke: rgb(68, 68, 68); stroke-opacity: 1; stroke-width: 1px;"/><path class="xtick ticks crisp" d="M0,421v5" transform="translate(532,0)" style="stroke: rgb(68, 68, 68); stroke-opacity: 1; stroke-width: 1px;"/><g class="xtick"><text text-anchor="middle" x="0" y="440.4" transform="translate(179.16,0)" style="font-family: 'Open Sans', verdana, arial, sans-serif; font-size: 12px; fill: rgb(36, 36, 36); fill-opacity: 1; white-space: pre;">20%</text></g><g class="xtick"><text text-anchor="middle" x="0" y="440.4" transform="translate(267.37,0)" style="font-family: 'Open Sans', verdana, arial, sans-serif; font-size: 12px; fill: rgb(36, 36, 36); fill-opacity: 1; white-space: pre;">40%</text></g><g class="xtick"><text text-anchor="middle" x="0" y="440.4" transform="translate(355.58,0)" style="font-family: 'Open Sans', verdana, arial, sans-serif; font-size: 12px; fill: rgb(36, 36, 36); fill-opacity: 1; white-space: pre;">60%</text></g><g class="xtick"><text text-anchor="middle" x="0" y="440.4" transform="translate(443.79,0)" style="font-family: 'Open Sans', verdana, arial, sans-serif; font-size: 12px; fill: rgb(36, 36, 36); fill-opacity: 1; white-space: pre;">80%</text></g><g class="xtick"><text text-anchor="middle" x="0" y="440.4" transform="translate(532,0)" style="font-family: 'Open Sans', verdana, arial, sans-serif; font-size: 12px; fill: rgb(36, 36, 36); fill-opacity: 1; white-space: pre;">100%</text></g></g><g class="yaxislayer-above"><path class="ytick ticks crisp" d="M90,0h-5" transform="translate(0,404)" style="stroke: rgb(68, 68, 68); stroke-opacity: 1; stroke-width: 1px;"/><path class="ytick ticks crisp" d="M90,0h-5" transform="translate(0,324.84000000000003)" style="stroke: rgb(68, 68, 68); stroke-opacity: 1; stroke-width: 1px;"/><path class="ytick ticks crisp" d="M90,0h-5" transform="translate(0,245.68)" style="stroke: rgb(68, 68, 68); stroke-opacity: 1; stroke-width: 1px;"/><path class="ytick ticks crisp" d="M90,0h-5" transform="translate(0,166.51999999999998)" style="stroke: rgb(68, 68, 68); stroke-opacity: 1; stroke-width: 1px;"/><g class="ytick"><text text-anchor="end" x="82.6" y="4.199999999999999" transform="translate(0,404)" style="font-family: 'Open Sans', verdana, arial, sans-serif; font-size: 12px; fill: rgb(36, 36, 36); fill-opacity: 1; white-space: pre;">0 MW</text></g><g class="ytick"><text text-anchor="end" x="82.6" y="4.199999999999999" transform="translate(0,324.84000000000003)" style="font-family: 'Open Sans', verdana, arial, sans-serif; font-size: 12px; fill: rgb(36, 36, 36); fill-opacity: 1; white-space: pre;">100 MW</text></g><g class="ytick"><text text-anchor="end" x="82.6" y="4.199999999999999" transform="translate(0,245.68)" style="font-family: 'Open Sans', verdana, arial, sans-serif; font-size: 12px; fill: rgb(36, 36, 36); fill-opacity: 1; white-space: pre;">200 MW</text></g><g class="ytick"><text text-anchor="end" x="82.6" y="4.199999999999999" transform="translate(0,166.51999999999998)" style="font-family: 'Open Sans', verdana, arial, sans-serif; font-size: 12px; fill: rgb(36, 36, 36); fill-opacity: 1; white-space: pre;">300 MW</text></g></g><g class="overaxes-above"/></g></g><g class="polarlayer"/><g class="ternarylayer"/><g class="geolayer"/><g class="funnelarealayer"/><g class="pielayer"/><g class="treemaplayer"/><g class="sunburstlayer"/><g class="glimages"/><defs id="topdefs-baf227"><g class="clips"/><clipPath id="legendbaf227"><rect width="145" height="124" x="1" y="1"/></clipPath></defs><g class="layer-above"><g class="imagelayer"/><g class="shapelayer"/></g><g class="infolayer"><g class="legend" pointer-events="all" transform="translate(540.8199999999999,100)"><rect class="bg" shape-rendering="crispEdges" width="146" height="125" x="0.5" y="0.5" style="stroke: rgb(232, 232, 232); stroke-opacity: 1; fill: rgb(255, 255, 255); fill-opacity: 1; stroke-width: 1px;"/><g class="scrollbox" transform="" clip-path="url('#legendbaf227')"><g class="groups"><g class="traces" transform="translate(1,15.5)" style="opacity: 1;"><text class="legendtext" text-anchor="start" x="40" y="4.680000000000001" style="font-family: 'Open Sans', verdana, arial, sans-serif; font-size: 12px; fill: rgb(36, 36, 36); fill-opacity: 1; white-space: pre;">Achterhoek</text><g class="layers" style="opacity: 0.8;"><g class="legendfill"/><g class="legendlines"><path class="js-line" d="M5,0h30" style="fill: none; stroke: rgb(26, 36, 65); stroke-opacity: 1; stroke-width: 2px;"/></g><g class="legendsymbols"><g class="legendpoints"/></g></g><rect class="legendtoggle" x="0" y="-9.5" width="139.8125" height="19" style="fill: rgb(0, 0, 0); fill-opacity: 0;"/></g><g class="traces" transform="translate(1,34.5)" style="opacity: 1;"><text class="legendtext" text-anchor="start" x="40" y="4.680000000000001" style="font-family: 'Open Sans', verdana, arial, sans-serif; font-size: 12px; fill: rgb(36, 36, 36); fill-opacity: 1; white-space: pre;">ArnhemNijmegen</text><g class="layers" style="opacity: 0.8;"><g class="legendfill"/><g class="legendlines"><path class="js-line" d="M5,0h30" style="fill: none; stroke: rgb(27, 97, 69); stroke-opacity: 1; stroke-width: 2px;"/></g><g class="legendsymbols"><g class="legendpoints"/></g></g><rect class="legendtoggle" x="0" y="-9.5" width="139.8125" height="19" style="fill: rgb(0, 0, 0); fill-opacity: 0;"/></g><g class="traces" transform="translate(1,53.5)" style="opacity: 1;"><text class="legendtext" text-anchor="start" x="40" y="4.680000000000001" style="font-family: 'Open Sans', verdana, arial, sans-serif; font-size: 12px; fill: rgb(36, 36, 36); fill-opacity: 1; white-space: pre;">Cleantech</text><g class="layers" style="opacity: 0.8;"><g class="legendfill"/><g class="legendlines"><path class="js-line" d="M5,0h30" style="fill: none; stroke: rgb(105, 123, 48); stroke-opacity: 1; stroke-width: 2px;"/></g><g class="legendsymbols"><g class="legendpoints"/></g></g><rect class="legendtoggle" x="0" y="-9.5" width="139.8125" height="19" style="fill: rgb(0, 0, 0); fill-opacity: 0;"/></g><g class="traces" transform="translate(1,72.5)" style="opacity: 1;"><text class="legendtext" text-anchor="start" x="40" y="4.680000000000001" style="font-family: 'Open Sans', verdana, arial, sans-serif; font-size: 12px; fill: rgb(36, 36, 36); fill-opacity: 1; white-space: pre;">Foodvalley </text><g class="layers" style="opacity: 0.8;"><g class="legendfill"/><g class="legendlines"><path class="js-line" d="M5,0h30" style="fill: none; stroke: rgb(200, 123, 124); stroke-opacity: 1; stroke-width: 2px;"/></g><g class="legendsymbols"><g class="legendpoints"/></g></g><rect class="legendtoggle" x="0" y="-9.5" width="139.8125" height="19" style="fill: rgb(0, 0, 0); fill-opacity: 0;"/></g><g class="traces" transform="translate(1,91.5)" style="opacity: 1;"><text class="legendtext" text-anchor="start" x="40" y="4.680000000000001" style="font-family: 'Open Sans', verdana, arial, sans-serif; font-size: 12px; fill: rgb(36, 36, 36); fill-opacity: 1; white-space: pre;">NoordVeluwe</text><g class="layers" style="opacity: 0.8;"><g class="legendfill"/><g class="legendlines"><path class="js-line" d="M5,0h30" style="fill: none; stroke: rgb(205, 162, 224); stroke-opacity: 1; stroke-width: 2px;"/></g><g class="legendsymbols"><g class="legendpoints"/></g></g><rect class="legendtoggle" x="0" y="-9.5" width="139.8125" height="19" style="fill: rgb(0, 0, 0); fill-opacity: 0;"/></g><g class="traces" transform="translate(1,110.5)" style="opacity: 1;"><text class="legendtext" text-anchor="start" x="40" y="4.680000000000001" style="font-family: 'Open Sans', verdana, arial, sans-serif; font-size: 12px; fill: rgb(36, 36, 36); fill-opacity: 1; white-space: pre;">Rivierenland</text><g class="layers" style="opacity: 0.8;"><g class="legendfill"/><g class="legendlines"><path class="js-line" d="M5,0h30" style="fill: none; stroke: rgb(198, 225, 241); stroke-opacity: 1; stroke-width: 2px;"/></g><g class="legendsymbols"><g class="legendpoints"/></g></g><rect class="legendtoggle" x="0" y="-9.5" width="139.8125" height="19" style="fill: rgb(0, 0, 0); fill-opacity: 0;"/></g></g></g><rect class="scrollbar" rx="20" ry="3" width="0" height="0" x="0" y="0" style="fill: rgb(128, 139, 164); fill-opacity: 1;"/></g><g class="g-gtitle"/><g class="g-xtitle"><text class="xtitle" x="311.5" y="469.20625" text-anchor="middle" style="font-family: 'Open Sans', verdana, arial, sans-serif; font-size: 14px; fill: rgb(36, 36, 36); opacity: 1; font-weight: normal; white-space: pre;"><tspan style="font-weight:bold">Cumulative duration</tspan></text></g><g class="g-ytitle" transform="translate(2.8466796875,0)"><text class="ytitle" transform="rotate(-90,12.153125000000003,260)" x="12.153125000000003" y="260" text-anchor="middle" style="font-family: 'Open Sans', verdana, arial, sans-serif; font-size: 14px; fill: rgb(36, 36, 36); opacity: 1; font-weight: normal; white-space: pre;"><tspan style="font-weight:bold">Power</tspan></text></g></g></svg>