<svg class="main-svg" xmlns="http://www.w3.org/2000/svg" xmlns:xlink="http://www.w3.org/1999/xlink" width="700" height="500" style="" viewBox="0 0 700 500"><rect x="0" y="0" width="700" height="500" style="fill: rgb(255, 255, 255); fill-opacity: 1;"/><defs id="defs-283045"><g class="clips"><clipPath id="clip283045xyplot" class="plotclip"><rect width="452" height="320"/></clipPath><clipPath class="axesclip" id="clip283045x"><rect x="80" y="0" width="452" height="500"/></clipPath><clipPath class="axesclip" id="clip283045y"><rect x="0" y="100" width="700" height="320"/></clipPath><clipPath class="axesclip" id="clip283045xy"><rect x="80" y="100" width="452" height="320"/></clipPath></g><g class="gradients"/></defs><g class="bglayer"/><g class="layer-below"><g class="imagelayer"/><g class="shapelayer"/></g><g class="cartesianlayer"><g class="subplot xy"><g class="layer-subplot"><g class="shapelayer"/><g class="imagelayer"/></g><g class="gridlayer"><g class="x"/><g class="y"/></g><g class="zerolinelayer"/><path class="xlines-below"/><path class="ylines-below"/><g class="overlines-below"/><g class="xaxislayer-below"/><g class="yaxislayer-below"/><g class="overaxes-below"/><g class="plot" transform="translate(80,100)" clip-path="url('#clip283045xyplot')"><g class="scatterlayer mlayer"><g class="trace scatter trace2eca07" style="stroke-miterlimit: 2; opacity: 0.8;"><g class="fills"/><g class="errorbars"/><g class="lines"><path class="js-line" d="M0,16L0.98,29.15L1.03,29.3L8.46,73.18L8.51,73.22L9.5,75.69L9.55,76.04L10.48,79.49L10.53,79.5L11.56,82.87L11.61,83L13.37,89.82L13.42,89.92L14.24,92.73L14.29,93.47L15.74,96.65L15.79,97.2L16.2,98.64L16.26,98.99L18.06,105L18.11,105.66L20.13,112.33L20.18,112.47L21.42,115.02L21.47,115.08L22.6,118.45L22.65,118.56L31.48,139.74L31.53,139.81L32.67,142.71L32.72,142.72L33.9,145.57L33.96,145.77L35.3,148.7L35.35,149.08L35.86,150.17L35.92,150.44L38.45,156.13L38.5,156.16L39.43,158.18L39.48,158.45L41.8,164.2L41.85,164.28L44.64,168.29L44.69,168.52L47.32,172.79L47.37,173.15L50.93,177.82L50.98,178.13L54.13,183.21L54.18,183.77L57.18,189.01L57.23,189.02L58.88,191.83L58.93,191.85L61.56,196.59L61.62,196.89L77.04,218.07L77.1,218.1L90.26,233.95L90.31,233.97L94.64,239.28L94.69,239.36L96.34,240.62L96.4,240.73L98.92,242.49L98.98,242.56L99.91,243.36L99.96,243.38L101.3,244.69L101.35,244.94L103.72,247.15L103.78,247.23L109.25,252.24L109.3,252.39L113.17,256.21L113.22,256.22L114.1,256.83L114.15,257.07L122.35,262.51L122.4,262.7L126.12,264.75L126.17,264.89L127.51,265.5L127.57,265.52L130.2,266.8L130.25,266.89L134.12,268.85L134.17,268.94L158.94,280.7L158.99,280.71L170.55,285.51L170.6,285.71L176.28,288.1L176.33,288.1L177.52,288.93L177.57,288.93L179.32,289.5L179.38,289.53L180.77,290.06L180.82,290.06L182.21,290.81L182.27,290.83L185.26,291.77L185.31,291.77L186.96,292.47L187.01,292.55L196.1,295.75L196.15,295.75L197.28,296.3L197.33,296.32L199.45,296.89L199.5,297.16L202.44,298.03L202.49,298.24L210.96,301.16L211.01,301.16L212.14,301.72L212.2,301.72L213.9,302.29L213.95,302.58L217,303.21L217.05,303.43L452,304" style="vector-effect: non-scaling-stroke; fill: none; stroke: rgb(26, 36, 65); stroke-opacity: 1; stroke-width: 2px; opacity: 1;"/></g><g class="points"/><g class="text"/></g><g class="trace scatter traced038e5" style="stroke-miterlimit: 2; opacity: 0.8;"><g class="fills"/><g class="errorbars"/><g class="lines"><path class="js-line" d="M0,16L1.29,31.41L1.34,31.42L2.58,37.48L2.63,37.89L4.03,47.65L4.08,47.7L5.78,52.59L5.83,53.14L6.61,54.87L6.66,55.34L7.95,63.73L8,63.8L11.71,82.79L11.77,82.9L12.54,85.72L12.59,86L19.82,110.39L19.87,110.4L21.83,114.97L21.88,115.08L24.62,121.49L24.67,121.49L30.81,135.05L30.86,135.24L32.46,138.87L32.51,139.13L33.7,140.9L33.75,141.33L35.4,145.32L35.45,145.39L37.1,150.07L37.15,150.1L41.95,160.68L42.01,160.97L42.99,162.55L43.04,162.81L45.67,167.03L45.72,167.16L47.11,169.5L47.17,169.54L48.77,172.07L48.82,172.08L59.65,188.75L59.71,188.75L68.38,201.47L68.43,201.65L69.72,203.58L69.77,203.6L76.68,214.96L76.74,214.96L77.87,216.93L77.92,216.94L78.95,218.34L79.01,218.43L82,221.67L82.05,221.68L83.65,223.62L83.7,223.81L87.31,229.03L87.37,229.04L91.08,232.32L91.13,232.45L95.47,237.09L95.52,237.35L100.06,241.2L100.11,241.34L101.25,242.21L101.3,242.58L104.24,245.23L104.29,245.46L108.47,249.25L108.52,249.26L109.61,250.15L109.66,250.19L112.19,252.12L112.24,252.27L125.29,262.61L125.35,262.61L126.22,263.36L126.28,263.36L129.73,265.44L129.78,265.63L136.85,269.45L136.91,269.59L143.61,273.38L143.67,273.38L145.47,274.69L145.52,274.8L146.97,275.48L147.02,275.62L148.83,276.72L148.88,276.78L150.32,277.8L150.37,277.88L155.28,279.76L155.33,279.9L159.46,281.7L159.51,281.77L168.18,285.64L168.23,285.82L171.64,287.08L171.69,287.27L173.49,288L173.54,288.12L175.45,288.71L175.51,288.89L182.11,291.58L182.16,291.58L183.4,292.09L183.45,292.09L198.21,297.44L198.26,297.47L201.46,298.37L201.51,298.55L212.09,301.73L212.14,301.73L213.33,302.3L213.38,302.58L216.63,303.15L216.69,303.43L452,304" style="vector-effect: non-scaling-stroke; fill: none; stroke: rgb(27, 97, 69); stroke-opacity: 1; stroke-width: 2px; opacity: 1;"/></g><g class="points"/><g class="text"/></g><g class="trace scatter traced51977" style="stroke-miterlimit: 2; opacity: 0.8;"><g class="fills"/><g class="errorbars"/><g class="lines"><path class="js-line" d="M0,16L0.98,34L1.03,34.38L2.94,45.6L2.99,46.99L4.9,57.14L4.95,57.15L5.11,58.7L5.16,59.13L6.5,70.34L6.55,70.43L8.77,82.33L8.82,82.37L10.22,88.77L10.27,88.82L11.3,93.93L11.35,94.37L14.71,109.1L14.76,109.27L17.86,119.3L17.91,119.31L23.89,133.58L23.94,133.66L27.76,143.75L27.81,143.79L33.54,157.99L33.59,158L38.91,168.73L38.96,168.77L42.47,173.63L42.52,173.65L52.07,189.86L52.12,189.88L53.15,191.29L53.2,191.68L54.49,193.45L54.55,193.49L55.94,194.93L55.99,194.94L56.97,195.9L57.02,196.11L57.8,197.29L57.85,197.54L59.4,200.28L59.45,200.28L60.38,201.08L60.43,201.14L61.72,203.17L61.77,203.18L62.96,205.21L63.01,205.24L64.25,206.89L64.3,206.91L66.72,209.77L66.78,209.77L68.69,212.11L68.74,212.13L81.22,226.34L81.28,226.72L87.26,232.79L87.31,233L88.66,234.45L88.71,234.45L99.08,243.92L99.13,244.21L102.02,246.81L102.07,246.81L105.38,249.42L105.43,249.45L111.67,254.39L111.72,254.61L114.72,257.25L114.77,257.27L117.19,259.43L117.24,259.44L118.28,259.99L118.33,259.99L121.79,262.41L121.84,262.45L126.79,265.13L126.84,265.23L152.95,278.23L153.01,278.24L154.24,279.02L154.3,279.05L156.05,279.79L156.1,279.86L159.46,281.21L159.51,281.25L162.97,282.82L163.02,282.88L166.94,284.38L166.99,284.38L168.95,285.22L169,285.22L170.09,285.89L170.14,285.97L172.36,286.94L172.41,287.05L173.7,287.53L173.75,287.54L175.82,288.58L175.87,288.58L178.65,289.89L178.7,289.92L182.94,291.77L182.99,291.95L184.74,292.69L184.79,292.71L191.66,295.31L191.71,295.31L193.36,295.87L193.41,296.11L200.74,298.61L200.79,298.66L203.47,299.3L203.53,299.51L206.98,300.18L207.04,300.36L208.94,300.92L209,301.2L211.06,301.76L211.11,302.04L213.8,302.67L213.85,302.88L217.41,303.44L217.46,303.78L218.96,304L219.01,304L452,304" style="vector-effect: non-scaling-stroke; fill: none; stroke: rgb(105, 123, 48); stroke-opacity: 1; stroke-width: 2px; opacity: 1;"/></g><g class="points"/><g class="text"/></g><g class="trace scatter tracea47331" style="stroke-miterlimit: 2; opacity: 0.8;"><g class="fills"/><g class="errorbars"/><g class="lines"><path class="js-line" d="M0,16L1.75,42.94L1.81,43.03L2.68,50.47L2.74,51.39L7.74,83.72L7.79,83.74L13.78,104.79L13.83,105.19L14.5,107.68L14.55,108.05L15.27,111.29L15.33,111.74L17.86,118.15L17.91,118.16L19.15,121.83L19.2,122.41L21.05,126.52L21.11,126.82L21.98,129.35L22.03,129.66L24.77,135.61L24.82,135.61L36.17,158.7L36.23,158.75L38.19,163.04L38.24,163.16L39.48,165.06L39.53,165.38L41.13,168.2L41.18,168.21L42.62,170.3L42.68,170.36L43.81,172.29L43.86,172.37L45,174.09L45.05,174.12L48.2,178.3L48.25,178.35L52.95,185.46L53,185.51L54.08,187.3L54.13,187.52L58.42,194.11L58.47,194.11L66.41,205.83L66.47,205.84L67.19,206.85L67.24,207.04L70.08,210.8L70.13,211.01L71.99,213.6L72.04,213.6L72.97,214.81L73.02,214.94L74.36,216.69L74.41,216.74L77.46,220.13L77.51,220.43L82.88,226.67L82.93,226.68L84.17,228.3L84.22,228.53L85.15,229.68L85.2,229.75L86.08,230.87L86.13,231.11L88.4,233.88L88.45,233.95L96.6,242.5L96.65,242.5L98.82,245.03L98.87,245.03L99.91,246.04L99.96,246.09L103.41,249.56L103.47,249.87L111.16,256.59L111.21,256.59L113.79,258.75L113.84,258.77L115.18,259.63L115.23,259.84L120.7,263.28L120.75,263.56L122.3,264.49L122.35,264.54L130.92,269.59L130.97,269.67L138.87,273.88L138.92,273.94L140.72,274.79L140.78,274.86L152.03,280.06L152.08,280.13L153.93,280.87L153.99,280.9L162.71,284.34L162.76,284.34L164.36,285.41L164.41,285.43L169.42,287.25L169.47,287.38L181.8,292.11L181.85,292.21L183.56,292.89L183.61,293.03L187.53,294.17L187.58,294.31L197.49,297.26L197.54,297.26L199.76,297.82L199.81,297.82L200.79,298.36L200.84,298.37L204.51,299.23L204.56,299.33L205.38,299.51L205.44,299.51L207.09,300.07L207.14,300.35L208.94,300.91L209,301.19L211.11,301.75L211.16,302.03L213.38,302.65L213.43,302.88L217.46,303.51L217.51,303.72L221.07,304L221.12,304L452,304" style="vector-effect: non-scaling-stroke; fill: none; stroke: rgb(200, 123, 124); stroke-opacity: 1; stroke-width: 2px; opacity: 1;"/></g><g class="points"/><g class="text"/></g><g class="trace scatter trace8ec0a9" style="stroke-miterlimit: 2; opacity: 0.8;"><g class="fills"/><g class="errorbars"/><g class="lines"><path class="js-line" d="M0,16L0.98,33.52L1.03,34.33L1.44,40.55L1.5,41.5L3.46,56.72L3.51,56.89L3.87,60.05L3.92,61.51L7.69,81.22L7.74,81.28L10.11,91.7L10.17,91.7L11.3,96.72L11.35,97.65L13.42,103.78L13.47,103.8L15.07,109.8L15.12,109.83L16.41,114.49L16.46,114.5L17.55,116.55L17.6,116.62L20.07,124.24L20.13,124.27L20.54,125.13L20.59,125.33L22.34,129.92L22.4,129.94L23.89,133.07L23.94,133.11L26.32,136.83L26.37,136.96L26.99,138.44L27.04,138.96L28.64,142.88L28.69,143.22L29.93,145.51L29.98,146.12L32.3,150.92L32.36,151.26L34.11,155.12L34.16,155.2L34.78,156.75L34.83,156.98L38.45,164.7L38.5,164.76L40.15,167.43L40.2,167.48L42.06,170.06L42.11,170.13L52.38,186.81L52.43,186.85L53.51,188.51L53.57,188.75L54.6,189.88L54.65,189.94L55.68,191.33L55.73,191.39L58.67,195.23L58.73,195.28L63.83,201.56L63.89,201.57L64.61,202.46L64.66,202.5L66,204.93L66.05,204.96L70.7,212.57L70.75,212.58L78.03,221.22L78.08,221.5L82.57,226.69L82.62,226.74L87.26,231.1L87.31,231.3L90.46,233.96L90.51,234.01L94.18,236.91L94.23,236.93L95.26,237.96L95.31,238.23L97.74,240.61L97.79,240.69L98.51,241.62L98.56,241.77L100.11,243L100.16,243.1L105.74,248.67L105.79,248.67L107.28,249.91L107.34,250.01L109.4,251.98L109.45,252.22L111.31,253.64L111.36,253.66L114.66,256.6L114.72,256.66L116.21,257.41L116.26,257.51L118.17,258.89L118.22,258.93L119.41,259.99L119.46,260.04L130.35,266.92L130.4,266.92L132.36,267.89L132.42,267.95L138.45,271.49L138.51,271.49L144.44,274.98L144.49,275.09L150.17,277.76L150.22,277.76L152.03,278.62L152.08,278.62L154.3,279.66L154.35,279.69L179.63,290.88L179.69,290.88L180.61,291.45L180.67,291.45L182.83,292.17L182.88,292.26L209.98,301.15L210.03,301.43L212.14,302L212.2,302.29L215.6,303.02L215.65,303.05L217.82,303.43L217.87,303.43L452,304" style="vector-effect: non-scaling-stroke; fill: none; stroke: rgb(205, 162, 224); stroke-opacity: 1; stroke-width: 2px; opacity: 1;"/></g><g class="points"/><g class="text"/></g><g class="trace scatter trace54ed3e" style="stroke-miterlimit: 2; opacity: 0.8;"><g class="fills"/><g class="errorbars"/><g class="lines"><path class="js-line" d="M0,16L2.37,41.97L2.43,42.19L3.97,54.15L4.03,54.28L6.55,68.57L6.61,68.66L7.59,72.58L7.64,72.69L10.01,81.84L10.06,81.89L18.84,107.4L18.89,108.21L20.64,114.01L20.69,114.02L22.24,116.64L22.29,116.7L23.63,119.19L23.69,119.28L25.75,125.02L25.8,125.24L27.56,130.51L27.61,130.52L32.97,141.73L33.03,141.75L34.57,145.51L34.63,145.56L39.99,157.15L40.04,157.42L41.33,160L41.39,160.13L44.64,166.23L44.69,166.43L48.82,173.27L48.87,173.73L51.35,177.1L51.4,177.11L52.74,180.55L52.79,180.58L53.36,181.35L53.41,181.51L54.65,183.56L54.7,183.71L55.37,185.12L55.42,185.27L56.71,187.22L56.76,187.35L57.8,188.85L57.85,189.04L63.58,197.68L63.63,197.68L65.49,200.53L65.54,200.57L66.52,202.2L66.57,202.24L69.51,206.96L69.56,206.98L71.16,209.71L71.21,209.71L72.81,211.35L72.86,211.76L79.99,220.15L80.04,220.15L84.53,225.45L84.58,225.46L86.23,227.3L86.28,227.52L87.47,228.63L87.52,228.75L88.71,230.07L88.76,230.09L92.89,234.74L92.94,234.86L97.07,238.69L97.12,238.7L98.31,240.26L98.36,240.35L102.23,245.28L102.28,245.28L105.63,248.44L105.69,248.64L107.75,250.24L107.8,250.28L112.34,254.69L112.39,254.69L113.63,255.86L113.68,255.96L115.75,257.94L115.8,257.97L117.5,259L117.55,259.01L131.07,267.34L131.13,267.46L137.68,270.75L137.73,270.86L162.29,282.62L162.35,282.62L164.77,283.76L164.82,283.76L166.32,284.51L166.37,284.52L172,287.18L172.05,287.18L178.86,290.03L178.91,290.03L181.9,291.14L181.96,291.17L187.17,293.45L187.22,293.45L189.18,294.31L189.23,294.31L191.97,295.16L192.02,295.26L193,295.45L193.05,295.45L193.82,295.73L193.88,295.73L199.71,297.73L199.76,297.74L200.84,298.3L200.89,298.3L203.01,298.87L203.06,299.15L205.64,299.8L205.69,299.94L214.78,303.14L214.83,303.14L217.51,303.87L217.56,303.9L219.11,304L219.16,304L452,304" style="vector-effect: non-scaling-stroke; fill: none; stroke: rgb(198, 225, 241); stroke-opacity: 1; stroke-width: 2px; opacity: 1;"/></g><g class="points"/><g class="text"/></g></g></g><g class="overplot"/><path class="xlines-above crisp" d="M79,420.5H532" style="fill: none; stroke-width: 1px; stroke: rgb(36, 36, 36); stroke-opacity: 1;"/><path class="ylines-above crisp" d="M79.5,100V420" style="fill: none; stroke-width: 1px; stroke: rgb(36, 36, 36); stroke-opacity: 1;"/><g class="overlines-above"/><g class="xaxislayer-above"><path class="xtick ticks crisp" d="M0,421v5" transform="translate(170.36,0)" style="stroke: rgb(68, 68, 68); stroke-opacity: 1; stroke-width: 1px;"/><path class="xtick ticks crisp" d="M0,421v5" transform="translate(260.77,0)" style="stroke: rgb(68, 68, 68); stroke-opacity: 1; stroke-width: 1px;"/><path class="xtick ticks crisp" d="M0,421v5" transform="translate(351.18,0)" style="stroke: rgb(68, 68, 68); stroke-opacity: 1; stroke-width: 1px;"/><path class="xtick ticks crisp" d="M0,421v5" transform="translate(441.59,0)" style="stroke: rgb(68, 68, 68); stroke-opacity: 1; stroke-width: 1px;"/><path class="xtick ticks crisp" d="M0,421v5" transform="translate(532,0)" style="stroke: rgb(68, 68, 68); stroke-opacity: 1; stroke-width: 1px;"/><g class="xtick"><text text-anchor="middle" x="0" y="440.4" transform="translate(170.36,0)" style="font-family: 'Open Sans', verdana, arial, sans-serif; font-size: 12px; fill: rgb(36, 36, 36); fill-opacity: 1; white-space: pre;">20%</text></g><g class="xtick"><text text-anchor="middle" x="0" y="440.4" transform="translate(260.77,0)" style="font-family: 'Open Sans', verdana, arial, sans-serif; font-size: 12px; fill: rgb(36, 36, 36); fill-opacity: 1; white-space: pre;">40%</text></g><g class="xtick"><text text-anchor="middle" x="0" y="440.4" transform="translate(351.18,0)" style="font-family: 'Open Sans', verdana, arial, sans-serif; font-size: 12px; fill: rgb(36, 36, 36); fill-opacity: 1; white-space: pre;">60%</text></g><g class="xtick"><text text-anchor="middle" x="0" y="440.4" transform="translate(441.59,0)" style="font-family: 'Open Sans', verdana, arial, sans-serif; font-size: 12px; fill: rgb(36, 36, 36); fill-opacity: 1; white-space: pre;">80%</text></g><g class="xtick"><text text-anchor="middle" x="0" y="440.4" transform="translate(532,0)" style="font-family: 'Open Sans', verdana, arial, sans-serif; font-size: 12px; fill: rgb(36, 36, 36); fill-opacity: 1; white-space: pre;">100%</text></g></g><g class="yaxislayer-above"><path class="ytick ticks crisp" d="M79,0h-5" transform="translate(0,404)" style="stroke: rgb(68, 68, 68); stroke-opacity: 1; stroke-width: 1px;"/><path class="ytick ticks crisp" d="M79,0h-5" transform="translate(0,260)" style="stroke: rgb(68, 68, 68); stroke-opacity: 1; stroke-width: 1px;"/><path class="ytick ticks crisp" d="M79,0h-5" transform="translate(0,116)" style="stroke: rgb(68, 68, 68); stroke-opacity: 1; stroke-width: 1px;"/><g class="ytick"><text text-anchor="end" x="71.6" y="4.199999999999999" transform="translate(0,404)" style="font-family: 'Open Sans', verdana, arial, sans-serif; font-size: 12px; fill: rgb(36, 36, 36); fill-opacity: 1; white-space: pre;">0</text></g><g class="ytick"><text text-anchor="end" x="71.6" y="4.199999999999999" transform="translate(0,260)" style="font-family: 'Open Sans', verdana, arial, sans-serif; font-size: 12px; fill: rgb(36, 36, 36); fill-opacity: 1; white-space: pre;">0.5</text></g><g class="ytick"><text text-anchor="end" x="71.6" y="4.199999999999999" transform="translate(0,116)" style="font-family: 'Open Sans', verdana, arial, sans-serif; font-size: 12px; fill: rgb(36, 36, 36); fill-opacity: 1; white-space: pre;">1</text></g></g><g class="overaxes-above"/></g></g><g class="polarlayer"/><g class="ternarylayer"/><g class="geolayer"/><g class="funnelarealayer"/><g class="pielayer"/><g class="treemaplayer"/><g class="sunburstlayer"/><g class="glimages"/><defs id="topdefs-283045"><g class="clips"/><clipPath id="legend283045"><rect width="145" height="124" x="1" y="1"/></clipPath></defs><g class="layer-above"><g class="imagelayer"/><g class="shapelayer"/></g><g class="infolayer"><g class="legend" pointer-events="all" transform="translate(541.04,100)"><rect class="bg" shape-rendering="crispEdges" width="146" height="125" x="0.5" y="0.5" style="stroke: rgb(232, 232, 232); stroke-opacity: 1; fill: rgb(255, 255, 255); fill-opacity: 1; stroke-width: 1px;"/><g class="scrollbox" transform="" clip-path="url('#legend283045')"><g class="groups"><g class="traces" transform="translate(1,15.5)" style="opacity: 1;"><text class="legendtext" text-anchor="start" x="40" y="4.680000000000001" style="font-family: 'Open Sans', verdana, arial, sans-serif; font-size: 12px; fill: rgb(36, 36, 36); fill-opacity: 1; white-space: pre;">Achterhoek</text><g class="layers" style="opacity: 0.8;"><g class="legendfill"/><g class="legendlines"><path class="js-line" d="M5,0h30" style="fill: none; stroke: rgb(26, 36, 65); stroke-opacity: 1; stroke-width: 2px;"/></g><g class="legendsymbols"><g class="legendpoints"/></g></g><rect class="legendtoggle" x="0" y="-9.5" width="139.8125" height="19" style="fill: rgb(0, 0, 0); fill-opacity: 0;"/></g><g class="traces" transform="translate(1,34.5)" style="opacity: 1;"><text class="legendtext" text-anchor="start" x="40" y="4.680000000000001" style="font-family: 'Open Sans', verdana, arial, sans-serif; font-size: 12px; fill: rgb(36, 36, 36); fill-opacity: 1; white-space: pre;">ArnhemNijmegen</text><g class="layers" style="opacity: 0.8;"><g class="legendfill"/><g class="legendlines"><path class="js-line" d="M5,0h30" style="fill: none; stroke: rgb(27, 97, 69); stroke-opacity: 1; stroke-width: 2px;"/></g><g class="legendsymbols"><g class="legendpoints"/></g></g><rect class="legendtoggle" x="0" y="-9.5" width="139.8125" height="19" style="fill: rgb(0, 0, 0); fill-opacity: 0;"/></g><g class="traces" transform="translate(1,53.5)" style="opacity: 1;"><text class="legendtext" text-anchor="start" x="40" y="4.680000000000001" style="font-family: 'Open Sans', verdana, arial, sans-serif; font-size: 12px; fill: rgb(36, 36, 36); fill-opacity: 1; white-space: pre;">Cleantech</text><g class="layers" style="opacity: 0.8;"><g class="legendfill"/><g class="legendlines"><path class="js-line" d="M5,0h30" style="fill: none; stroke: rgb(105, 123, 48); stroke-opacity: 1; stroke-width: 2px;"/></g><g class="legendsymbols"><g class="legendpoints"/></g></g><rect class="legendtoggle" x="0" y="-9.5" width="139.8125" height="19" style="fill: rgb(0, 0, 0); fill-opacity: 0;"/></g><g class="traces" transform="translate(1,72.5)" style="opacity: 1;"><text class="legendtext" text-anchor="start" x="40" y="4.680000000000001" style="font-family: 'Open Sans', verdana, arial, sans-serif; font-size: 12px; fill: rgb(36, 36, 36); fill-opacity: 1; white-space: pre;">Foodvalley </text><g class="layers" style="opacity: 0.8;"><g class="legendfill"/><g class="legendlines"><path class="js-line" d="M5,0h30" style="fill: none; stroke: rgb(200, 123, 124); stroke-opacity: 1; stroke-width: 2px;"/></g><g class="legendsymbols"><g class="legendpoints"/></g></g><rect class="legendtoggle" x="0" y="-9.5" width="139.8125" height="19" style="fill: rgb(0, 0, 0); fill-opacity: 0;"/></g><g class="traces" transform="translate(1,91.5)" style="opacity: 1;"><text class="legendtext" text-anchor="start" x="40" y="4.680000000000001" style="font-family: 'Open Sans', verdana, arial, sans-serif; font-size: 12px; fill: rgb(36, 36, 36); fill-opacity: 1; white-space: pre;">NoordVeluwe</text><g class="layers" style="opacity: 0.8;"><g class="legendfill"/><g class="legendlines"><path class="js-line" d="M5,0h30" style="fill: none; stroke: rgb(205, 162, 224); stroke-opacity: 1; stroke-width: 2px;"/></g><g class="legendsymbols"><g class="legendpoints"/></g></g><rect class="legendtoggle" x="0" y="-9.5" width="139.8125" height="19" style="fill: rgb(0, 0, 0); fill-opacity: 0;"/></g><g class="traces" transform="translate(1,110.5)" style="opacity: 1;"><text class="legendtext" text-anchor="start" x="40" y="4.680000000000001" style="font-family: 'Open Sans', verdana, arial, sans-serif; font-size: 12px; fill: rgb(36, 36, 36); fill-opacity: 1; white-space: pre;">Rivierenland</text><g class="layers" style="opacity: 0.8;"><g class="legendfill"/><g class="legendlines"><path class="js-line" d="M5,0h30" style="fill: none; stroke: rgb(198, 225, 241); stroke-opacity: 1; stroke-width: 2px;"/></g><g class="legendsymbols"><g class="legendpoints"/></g></g><rect class="legendtoggle" x="0" y="-9.5" width="139.8125" height="19" style="fill: rgb(0, 0, 0); fill-opacity: 0;"/></g></g></g><rect class="scrollbar" rx="20" ry="3" width="0" height="0" x="0" y="0" style="fill: rgb(128, 139, 164); fill-opacity: 1;"/></g><g class="g-gtitle"/><g class="g-xtitle"><text class="xtitle" x="306" y="469.20625" text-anchor="middle" style="font-family: 'Open Sans', verdana, arial, sans-serif; font-size: 14px; fill: rgb(36, 36, 36); opacity: 1; font-weight: normal; white-space: pre;"><tspan style="font-weight:bold">Cumulative duration</tspan></text></g><g class="g-ytitle"><text class="ytitle" transform="rotate(-90,29.871875000000003,260)" x="29.871875000000003" y="260" text-anchor="middle" style="font-family: 'Open Sans', verdana, arial, sans-serif; font-size: 14px; fill: rgb(36, 36, 36); opacity: 1; font-weight: normal; white-space: pre;"><tspan style="font-weight:bold">Normalized power</tspan></text></g></g></svg>