<svg class="main-svg" xmlns="http://www.w3.org/2000/svg" xmlns:xlink="http://www.w3.org/1999/xlink" width="700" height="500" style="" viewBox="0 0 700 500"><rect x="0" y="0" width="700" height="500" style="fill: rgb(255, 255, 255); fill-opacity: 1;"/><defs id="defs-4c0f0a"><g class="clips"><clipPath id="clip4c0f0axyplot" class="plotclip"><rect width="452" height="320"/></clipPath><clipPath class="axesclip" id="clip4c0f0ax"><rect x="80" y="0" width="452" height="500"/></clipPath><clipPath class="axesclip" id="clip4c0f0ay"><rect x="0" y="100" width="700" height="320"/></clipPath><clipPath class="axesclip" id="clip4c0f0axy"><rect x="80" y="100" width="452" height="320"/></clipPath></g><g class="gradients"/></defs><g class="bglayer"/><g class="layer-below"><g class="imagelayer"/><g class="shapelayer"/></g><g class="cartesianlayer"><g class="subplot xy"><g class="layer-subplot"><g class="shapelayer"/><g class="imagelayer"/></g><g class="gridlayer"><g class="x"/><g class="y"/></g><g class="zerolinelayer"/><path class="xlines-below"/><path class="ylines-below"/><g class="overlines-below"/><g class="xaxislayer-below"/><g class="yaxislayer-below"/><g class="overaxes-below"/><g class="plot" transform="translate(80,100)" clip-path="url('#clip4c0f0axyplot')"><g class="scatterlayer mlayer"><g class="trace scatter tracec02825" style="stroke-miterlimit: 2; opacity: 0.8;"><g class="fills"/><g class="errorbars"/><g class="lines"><path class="js-line" d="M0,16L11.3,16.72L11.35,16.76L12.64,17.56L12.69,17.57L15.12,19.08L15.17,19.1L16.36,20.26L16.41,20.39L20.23,24.4L20.28,24.49L25.85,29.82L25.91,29.85L27.4,32.28L27.45,32.28L28.33,33.38L28.38,33.83L30.14,36.46L30.19,36.84L31.22,38.11L31.27,38.13L32.51,39.76L32.56,40.1L36.79,45.66L36.85,45.95L37.98,47.39L38.03,47.44L39.89,49.44L39.94,49.6L52.43,65.83L52.48,65.85L53.51,67.18L53.57,67.24L58.88,72.95L58.93,73.14L60.43,74.26L60.48,74.41L62.65,76.76L62.7,77.06L67.55,82.78L67.6,82.89L68.74,84.33L68.79,84.44L71.32,87.17L71.37,87.19L76.17,93.66L76.22,93.91L78.28,96.53L78.33,96.58L79.21,97.49L79.26,97.62L80.5,99.56L80.55,99.56L82.98,102.42L83.03,102.43L84.84,103.94L84.89,103.94L86.75,105.75L86.8,105.76L87.83,106.79L87.88,106.98L89.89,109.12L89.95,109.16L90.87,110.94L90.93,111.07L92.63,112.64L92.68,112.71L94.85,115.58L94.9,115.63L105.79,125.87L105.84,126L108.52,128.05L108.57,128.12L112.03,132.38L112.08,132.4L116.47,136.7L116.52,136.73L117.5,137.74L117.55,137.78L121.68,141.53L121.73,141.54L122.82,142.48L122.87,142.55L127.26,146.05L127.31,146.06L128.65,147.6L128.7,147.63L130.92,149.49L130.97,149.5L133.34,151.73L133.4,151.75L134.79,152.69L134.84,152.7L136.54,154.04L136.6,154.06L138.81,155.42L138.87,155.45L141.76,158.02L141.81,158.09L145.52,160.75L145.58,160.75L152.18,166.3L152.23,166.31L154.24,168.32L154.3,168.34L161.68,174.93L161.73,174.94L163.17,175.97L163.22,175.99L165.18,177.19L165.24,177.31L168.02,179.77L168.07,179.77L169.62,180.93L169.67,180.94L170.76,181.66L170.81,181.67L173.91,183.45L173.96,183.49L176.49,184.91L176.54,184.96L185,191.23L185.05,191.24L193.93,197L193.98,197.13L233.82,223.14L233.87,223.14L239.13,225.8L239.18,225.8L260.91,235.65L260.96,235.75L275,243.53L275.05,243.64L278.15,244.98L278.2,245.03L280.42,246.73L280.47,246.74L285.11,249.37L285.16,249.43L288.16,251.13L288.21,251.22L289.91,252.19L289.96,252.35L296.47,255.13L296.52,255.24L299.3,256.53L299.36,256.53L301.99,257.79L302.04,257.85L304.57,259.12L304.62,259.16L307.61,260.78L307.66,260.8L316.8,264.93L316.85,265L319.12,265.98L319.17,266.01L322.06,267.25L322.11,267.25L325.67,268.89L325.72,268.92L327.74,270.1L327.79,270.11L331.56,271.55L331.61,271.74L336.46,274.1L336.51,274.1L340.9,276.32L340.95,276.39L342.81,277.12L342.86,277.13L345.39,278.07L345.44,278.08L353.85,280.66L353.9,280.66L385.84,292.03L385.9,292.04L388.22,292.58L388.27,292.58L392.35,293.6L392.4,293.62L404.37,296.62L404.42,296.74L410.1,298.18L410.15,298.22L440.34,304L440.39,304L452,304" style="vector-effect: non-scaling-stroke; fill: none; stroke: rgb(26, 36, 65); stroke-opacity: 1; stroke-width: 2px; opacity: 1;"/></g><g class="points"/><g class="text"/></g><g class="trace scatter traceb9b4e2" style="stroke-miterlimit: 2; opacity: 0.8;"><g class="fills"/><g class="errorbars"/><g class="lines"><path class="js-line" d="M0,16L12.69,16.75L12.75,16.81L17.18,20.28L17.24,20.42L19.4,22.69L19.45,22.78L20.49,24.08L20.54,24.08L21.88,25.82L21.93,25.91L23.02,26.91L23.07,26.92L24.15,27.87L24.2,27.92L27.2,30.96L27.25,31.03L31.74,37.3L31.79,37.35L32.72,38.65L32.77,38.75L33.96,40.21L34.01,40.26L34.47,41.2L34.52,41.28L45.98,54.65L46.03,54.79L47.06,56.74L47.11,56.84L48.87,60.15L48.92,60.15L73.43,89.99L73.48,89.99L74.77,91.07L74.83,91.14L76.17,93.02L76.22,93.05L96.4,115.9L96.45,115.91L97.63,116.93L97.69,117.04L101.87,120.64L101.92,120.77L106.2,126.57L106.25,126.78L108.99,129.87L109.04,129.89L111.1,132.04L111.16,132.05L115.39,136.3L115.44,136.44L120.55,141.45L120.6,141.46L122.15,142.69L122.2,142.81L125.6,146.2L125.66,146.3L126.64,147.1L126.69,147.28L128.49,149.17L128.55,149.17L132.26,152.91L132.31,152.92L134.33,154.85L134.38,154.95L136.49,156.85L136.54,156.85L137.63,157.74L137.68,157.79L138.76,158.77L138.81,158.79L140.26,160.5L140.31,160.53L142.79,163.09L142.84,163.11L152.95,171.11L153.01,171.11L154.76,172.72L154.81,172.79L156.82,174.28L156.88,174.34L165.96,181.8L166.01,181.8L166.94,182.93L166.99,183.08L171.38,186.02L171.43,186.14L176.07,190L176.12,190.02L177.26,190.85L177.31,190.93L178.81,192.03L178.86,192.16L182.88,195.08L182.94,195.19L184.38,196.22L184.43,196.26L187.27,197.88L187.32,197.99L192.02,201.07L192.07,201.07L193.46,202.05L193.52,202.05L196.15,204.29L196.2,204.29L198.26,205.32L198.31,205.33L201.26,207.49L201.31,207.49L202.8,208.43L202.86,208.55L204.56,210L204.61,210.03L209,212.9L209.05,212.93L211.53,214.35L211.58,214.39L215.55,216.35L215.6,216.56L221.79,220.65L221.85,220.74L223.65,221.81L223.7,221.89L227.73,224.23L227.78,224.23L233.04,227.37L233.1,227.37L238,229.71L238.05,229.76L245.64,233.46L245.69,233.48L247.85,234.49L247.91,234.49L258.07,239.26L258.12,239.39L259.52,240.31L259.57,240.34L273.91,246.78L273.97,246.92L277.37,248.8L277.42,248.86L279.69,250.24L279.75,250.27L281.4,251.23L281.45,251.25L284.29,252.89L284.34,252.91L287.54,254.09L287.59,254.1L308.49,264.48L308.54,264.53L332.43,275.71L332.48,275.8L341.72,279.03L341.77,279.03L345.85,280.28L345.9,280.33L361.49,285.38L361.54,285.38L364.43,286.27L364.48,286.28L367.89,287.29L367.94,287.29L371.14,288.45L371.19,288.48L374.23,289.63L374.28,289.65L385.22,292.42L385.28,292.47L419.64,301L419.7,301L438.43,304L438.48,304L452,304" style="vector-effect: non-scaling-stroke; fill: none; stroke: rgb(27, 97, 69); stroke-opacity: 1; stroke-width: 2px; opacity: 1;"/></g><g class="points"/><g class="text"/></g><g class="trace scatter traceddd7e6" style="stroke-miterlimit: 2; opacity: 0.8;"><g class="fills"/><g class="errorbars"/><g class="lines"><path class="js-line" d="M0,16L11.66,16.75L11.71,16.83L18.06,21.44L18.11,21.57L18.99,22.48L19.04,22.61L20.28,24.02L20.33,24.1L21.42,25.26L21.47,25.28L23.33,26.61L23.38,26.62L25.29,28.17L25.34,28.18L29.47,33.34L29.52,33.7L30.55,35.71L30.6,35.83L31.79,37.85L31.84,37.85L33.49,40.26L33.54,40.27L37.21,46.84L37.26,46.85L40.92,51.04L40.97,51.05L42.93,53.31L42.99,53.62L44.79,57.14L44.84,57.18L47.37,61.12L47.42,61.4L50.52,66.34L50.57,66.41L53.77,70.59L53.82,70.59L59.4,77.95L59.45,77.97L61.25,80.35L61.31,80.65L63.21,83.07L63.27,83.26L66.98,87.43L67.03,87.46L68.01,88.54L68.07,88.61L82.72,106.63L82.77,106.77L86.08,111.36L86.13,111.82L89.79,116.83L89.84,116.87L91.65,119.01L91.7,119.02L95.31,122.49L95.36,122.54L101.35,129.19L101.4,129.29L116.93,144.74L116.99,144.74L119.05,146.49L119.1,146.62L124.06,151.63L124.11,151.66L125.45,152.97L125.5,153.13L128.08,155.06L128.13,155.07L138.3,164.36L138.35,164.38L147.79,171.26L147.85,171.26L150.84,173.63L150.89,173.73L174.37,190.48L174.42,190.48L181.9,195.18L181.96,195.19L184.85,197.13L184.9,197.21L197.23,205.03L197.28,205.22L198.62,206.12L198.68,206.13L200.48,207.16L200.53,207.17L206.98,211.11L207.04,211.26L215.45,216.01L215.5,216.02L219.63,218.64L219.68,218.65L222.16,220.46L222.21,220.47L223.5,221.28L223.55,221.31L225.46,222.59L225.51,222.61L229.43,224.15L229.48,224.19L244.81,231.71L244.86,231.74L249.66,234.34L249.71,234.39L254.72,237L254.77,237.01L258.33,238.71L258.38,238.72L282.43,251.3L282.48,251.34L297.96,257.64L298.01,257.64L304.93,260.36L304.98,260.6L312.46,263.33L312.51,263.33L322.11,267.87L322.16,267.89L324.38,268.91L324.43,268.95L327.63,270.09L327.69,270.13L332.12,271.74L332.18,271.8L335.58,273.38L335.63,273.55L342.81,276.74L342.86,276.76L393.53,292.95L393.58,292.95L412.26,298.39L412.32,298.44L416.7,299.78L416.75,299.8L441.16,304L441.21,304L452,304" style="vector-effect: non-scaling-stroke; fill: none; stroke: rgb(105, 123, 48); stroke-opacity: 1; stroke-width: 2px; opacity: 1;"/></g><g class="points"/><g class="text"/></g><g class="trace scatter tracedf1b17" style="stroke-miterlimit: 2; opacity: 0.8;"><g class="fills"/><g class="errorbars"/><g class="lines"><path class="js-line" d="M0,16L12.8,16.74L12.85,16.78L15.07,18.29L15.12,18.3L18.42,21L18.47,21.13L21.26,23.73L21.31,23.75L23.12,25.43L23.17,25.55L24.87,27.09L24.92,27.1L26.47,28.45L26.52,28.54L28.69,30.7L28.74,30.77L30.03,32.76L30.09,32.79L33.85,37.42L33.9,37.46L36.64,40.88L36.69,40.88L38.19,42.26L38.24,42.58L42.93,47.94L42.99,47.94L44.43,49.28L44.48,49.39L47.37,52.03L47.42,52.14L51.5,57.14L51.55,57.18L53.2,59.79L53.26,59.88L55.32,62.51L55.37,62.57L56.92,64.12L56.97,64.21L71.99,81.49L72.04,81.49L73.74,83.5L73.79,83.52L75.19,85.26L75.24,85.26L76.37,86.17L76.43,86.41L80.55,90.1L80.61,90.31L81.64,92.22L81.69,92.22L84.37,94.62L84.42,94.75L85.2,96L85.25,96.34L95.78,106.65L95.83,106.66L98.15,108.63L98.2,108.78L104.03,114.33L104.09,114.36L106.3,116.55L106.36,116.56L108.68,118.63L108.73,118.68L110.95,120.83L111,120.94L114.2,123.83L114.25,123.84L117.35,126.32L117.4,126.46L120.13,128.71L120.19,128.73L121.48,129.75L121.53,129.95L123.28,131.67L123.33,131.83L124.83,133.08L124.88,133.43L129.47,137.75L129.53,137.75L136.23,142.65L136.29,142.66L138.25,144.75L138.3,144.9L141.5,147.65L141.55,147.74L144.13,149.85L144.18,149.94L147.64,152.95L147.69,153.11L149.45,154.59L149.5,154.74L150.99,156.34L151.05,156.37L155.84,160.1L155.9,160.24L157.39,161.62L157.44,161.74L162.35,165.99L162.4,166.03L179.84,179.31L179.89,179.31L182.37,181.28L182.42,181.28L203.37,196.73L203.42,196.75L205.69,198.34L205.75,198.53L210.34,201.43L210.39,201.48L222.57,209.38L222.62,209.46L236.3,217.69L236.35,217.7L240.06,220.23L240.11,220.31L241.15,221.12L241.2,221.14L260.34,230.59L260.39,230.61L269.01,235.06L269.06,235.19L271.28,236.52L271.33,236.53L275.36,239.12L275.41,239.12L276.86,240.04L276.91,240.05L281.81,243.1L281.86,243.17L293.11,249.41L293.16,249.42L299.61,253.12L299.66,253.13L306.48,255.85L306.53,255.85L311.53,258.29L311.59,258.32L314.68,259.51L314.73,259.51L317.62,260.78L317.67,260.84L334.96,269.1L335.01,269.19L343.73,274.35L343.79,274.44L346.62,275.61L346.68,275.63L349.31,276.64L349.36,276.65L361.59,280.64L361.64,280.69L368.81,282.78L368.87,282.82L372.12,284.28L372.17,284.29L382.13,288.31L382.18,288.37L391.83,292.05L391.88,292.05L394.46,292.65L394.51,292.66L400.86,294.59L400.91,294.64L433.32,302.36L433.37,302.36L441.06,304L441.11,304L452,304" style="vector-effect: non-scaling-stroke; fill: none; stroke: rgb(200, 123, 124); stroke-opacity: 1; stroke-width: 2px; opacity: 1;"/></g><g class="points"/><g class="text"/></g><g class="trace scatter tracebbf049" style="stroke-miterlimit: 2; opacity: 0.8;"><g class="fills"/><g class="errorbars"/><g class="lines"><path class="js-line" d="M0,16L14.81,16.74L14.86,16.78L20.64,20.42L20.69,20.69L21.67,21.88L21.73,22.07L22.71,22.97L22.76,23.03L24.05,24.4L24.1,24.51L28.18,27.98L28.23,28.09L30.81,30.65L30.86,30.76L34.52,37.16L34.57,37.24L36.17,39.09L36.23,39.18L41.85,45.65L41.9,45.65L43.24,46.96L43.3,46.96L45.77,49.55L45.82,49.57L49.54,52.72L49.59,52.9L52.84,58.15L52.89,58.51L58.11,65.18L58.16,65.3L59.91,67.02L59.96,67.04L61.56,69.04L61.62,69.11L62.96,70.58L63.01,70.77L64.09,72.01L64.14,72.23L71.32,81.08L71.37,81.1L77.66,88.24L77.72,88.29L79.78,90.56L79.83,90.61L81.84,92.25L81.9,92.45L83.03,93.63L83.08,93.66L95.05,106.84L95.11,106.84L96.24,107.66L96.29,107.76L108.16,120.34L108.21,120.36L112.39,123.49L112.45,123.74L124.06,134.56L124.11,134.56L125.71,135.73L125.76,135.74L129.53,138.83L129.58,138.96L133.45,141.77L133.5,141.96L136.23,144.09L136.29,144.09L137.42,145.07L137.47,145.12L141.34,148.25L141.4,148.28L143.61,150.15L143.67,150.17L144.59,151.12L144.65,151.12L150.37,155.91L150.43,156.12L164,167.84L164.05,167.85L167.46,170.29L167.51,170.3L170.65,172.54L170.71,172.64L172.93,174.28L172.98,174.43L173.91,175.21L173.96,175.27L175.97,177.38L176.02,177.61L178.81,180.01L178.86,180.06L197.7,193.54L197.75,193.55L199.4,194.6L199.45,194.66L201.26,196.13L201.31,196.21L204.25,198.13L204.3,198.24L205.69,199.29L205.75,199.6L207.19,200.5L207.24,200.54L208.48,201.44L208.53,201.5L210.49,203.19L210.54,203.19L212.61,204.38L212.66,204.38L216.22,206.86L216.27,207.02L222.52,211.3L222.57,211.41L224.37,212.74L224.43,212.81L229.79,215.96L229.84,216.1L231.55,216.95L231.6,216.98L236.45,220.22L236.5,220.22L240.17,222.35L240.22,222.49L248.73,226.7L248.78,226.73L253.38,228.79L253.43,228.79L255.13,229.7L255.18,229.78L262.56,233.55L262.61,233.56L281.55,243.64L281.6,243.72L289.29,247.89L289.34,248L291.56,249.5L291.61,249.53L294.25,251.13L294.3,251.17L296.26,252.44L296.31,252.5L299.05,254.15L299.1,254.19L325.62,265.55L325.67,265.59L330.52,268.05L330.58,268.05L333.47,269.56L333.52,269.64L336.25,270.89L336.3,270.89L338.21,272.12L338.26,272.12L343.37,274.45L343.43,274.45L346.52,276.26L346.57,276.38L352.09,278.04L352.15,278.04L356.58,279.36L356.64,279.45L359.84,280.32L359.89,280.33L368.61,283.36L368.66,283.45L375.42,285.56L375.47,285.58L379.96,287.13L380.01,287.18L382.39,288.03L382.44,288.04L384.24,288.74L384.3,288.82L398.43,293.31L398.49,293.31L404.99,294.86L405.04,294.94L410.15,296.28L410.2,296.34L419.85,299.47L419.9,299.5L421.81,300.1L421.86,300.11L433.73,302.34L433.78,302.35L438.32,303.66L438.38,303.67L442.14,304L442.2,304L452,304" style="vector-effect: non-scaling-stroke; fill: none; stroke: rgb(205, 162, 224); stroke-opacity: 1; stroke-width: 2px; opacity: 1;"/></g><g class="points"/><g class="text"/></g><g class="trace scatter trace0dae43" style="stroke-miterlimit: 2; opacity: 0.8;"><g class="fills"/><g class="errorbars"/><g class="lines"><path class="js-line" d="M0,16L12.75,16.74L12.8,16.83L15.53,18.71L15.58,18.77L17.29,19.73L17.34,19.89L19.25,22.24L19.3,22.24L21.16,24.5L21.21,24.57L29.1,31.43L29.16,31.53L34.99,39.06L35.04,39.07L37.77,42.25L37.83,42.25L44.22,48.7L44.28,48.84L46.24,50.72L46.29,50.83L49.75,53.81L49.8,53.87L53.46,58.4L53.51,58.42L54.6,59.8L54.65,60.05L56.25,61.69L56.3,61.79L57.85,63.82L57.9,63.99L59.14,65.06L59.19,65.23L60.63,67.92L60.69,67.92L61.72,68.87L61.77,68.9L66.57,73.35L66.62,73.44L67.7,74.85L67.76,74.86L72.61,79.88L72.66,79.89L75.96,83.73L76.01,83.75L84.58,93.8L84.63,93.97L87.16,96.41L87.21,96.54L89.07,98.41L89.12,98.64L90.26,99.7L90.31,99.73L92.37,101.77L92.42,101.83L94.18,103.28L94.23,103.32L103.36,113.23L103.41,113.33L104.7,115.08L104.76,115.11L105.79,116.01L105.84,116.18L109.45,119.08L109.5,119.28L111.26,121.93L111.31,121.95L112.91,123.75L112.96,123.76L118.53,128.51L118.59,128.52L119.88,129.49L119.93,129.55L132.16,140.87L132.21,141.01L135.41,143.95L135.46,144.06L136.13,144.81L136.18,144.95L139.49,147.56L139.54,147.89L144.23,152.1L144.28,152.11L147.64,155.2L147.69,155.24L159.82,167.23L159.87,167.26L161.52,168.84L161.57,168.92L163.84,171.13L163.89,171.32L169.16,176.12L169.21,176.17L175.92,181.34L175.97,181.36L177.52,183.13L177.57,183.23L181.34,185.26L181.39,185.3L189.28,190.56L189.34,190.77L196.82,195.86L196.87,196.04L203.68,200.43L203.73,200.63L205.18,201.8L205.23,201.96L209.25,204.46L209.31,204.46L216.12,208.43L216.17,208.49L225.92,214.72L225.97,214.72L228.71,216.63L228.76,216.63L230.26,217.45L230.31,217.47L231.6,218.33L231.65,218.42L240.42,223.8L240.47,223.81L243.36,225.3L243.42,225.33L251.42,230.2L251.47,230.21L253.89,231.38L253.94,231.44L257.61,233.31L257.66,233.38L261.89,235.53L261.94,235.62L265.35,236.98L265.4,237.07L271.08,240.41L271.13,240.41L273.5,241.77L273.55,241.85L278.04,244.28L278.09,244.39L279.75,245.24L279.8,245.32L289.45,250.64L289.5,250.71L291.3,251.55L291.36,251.58L293.52,253.04L293.58,253.09L300.75,256.23L300.8,256.26L303.54,257.55L303.59,257.63L305.24,258.44L305.29,258.48L307.61,259.69L307.66,259.73L313.29,262.55L313.34,262.66L316.69,264.22L316.75,264.24L320.62,265.77L320.67,265.83L325.47,267.84L325.52,267.84L341.57,274.8L341.62,274.92L343.84,276.45L343.89,276.46L347.76,277.69L347.81,277.7L354.16,279.6L354.21,279.68L366.85,283.63L366.9,283.63L373.82,286.13L373.87,286.18L377.43,287.6L377.48,287.64L380.27,288.73L380.32,288.78L383.68,289.94L383.73,289.97L394.87,293.11L394.93,293.12L428.11,301.45L428.16,301.46L442.56,304L442.61,304L452,304" style="vector-effect: non-scaling-stroke; fill: none; stroke: rgb(198, 225, 241); stroke-opacity: 1; stroke-width: 2px; opacity: 1;"/></g><g class="points"/><g class="text"/></g></g></g><g class="overplot"/><path class="xlines-above crisp" d="M79,420.5H532" style="fill: none; stroke-width: 1px; stroke: rgb(36, 36, 36); stroke-opacity: 1;"/><path class="ylines-above crisp" d="M79.5,100V420" style="fill: none; stroke-width: 1px; stroke: rgb(36, 36, 36); stroke-opacity: 1;"/><g class="overlines-above"/><g class="xaxislayer-above"><path class="xtick ticks crisp" d="M0,421v5" transform="translate(170.36,0)" style="stroke: rgb(68, 68, 68); stroke-opacity: 1; stroke-width: 1px;"/><path class="xtick ticks crisp" d="M0,421v5" transform="translate(260.77,0)" style="stroke: rgb(68, 68, 68); stroke-opacity: 1; stroke-width: 1px;"/><path class="xtick ticks crisp" d="M0,421v5" transform="translate(351.18,0)" style="stroke: rgb(68, 68, 68); stroke-opacity: 1; stroke-width: 1px;"/><path class="xtick ticks crisp" d="M0,421v5" transform="translate(441.59,0)" style="stroke: rgb(68, 68, 68); stroke-opacity: 1; stroke-width: 1px;"/><path class="xtick ticks crisp" d="M0,421v5" transform="translate(532,0)" style="stroke: rgb(68, 68, 68); stroke-opacity: 1; stroke-width: 1px;"/><g class="xtick"><text text-anchor="middle" x="0" y="440.4" transform="translate(170.36,0)" style="font-family: 'Open Sans', verdana, arial, sans-serif; font-size: 12px; fill: rgb(36, 36, 36); fill-opacity: 1; white-space: pre;">20%</text></g><g class="xtick"><text text-anchor="middle" x="0" y="440.4" transform="translate(260.77,0)" style="font-family: 'Open Sans', verdana, arial, sans-serif; font-size: 12px; fill: rgb(36, 36, 36); fill-opacity: 1; white-space: pre;">40%</text></g><g class="xtick"><text text-anchor="middle" x="0" y="440.4" transform="translate(351.18,0)" style="font-family: 'Open Sans', verdana, arial, sans-serif; font-size: 12px; fill: rgb(36, 36, 36); fill-opacity: 1; white-space: pre;">60%</text></g><g class="xtick"><text text-anchor="middle" x="0" y="440.4" transform="translate(441.59,0)" style="font-family: 'Open Sans', verdana, arial, sans-serif; font-size: 12px; fill: rgb(36, 36, 36); fill-opacity: 1; white-space: pre;">80%</text></g><g class="xtick"><text text-anchor="middle" x="0" y="440.4" transform="translate(532,0)" style="font-family: 'Open Sans', verdana, arial, sans-serif; font-size: 12px; fill: rgb(36, 36, 36); fill-opacity: 1; white-space: pre;">100%</text></g></g><g class="yaxislayer-above"><path class="ytick ticks crisp" d="M79,0h-5" transform="translate(0,404)" style="stroke: rgb(68, 68, 68); stroke-opacity: 1; stroke-width: 1px;"/><path class="ytick ticks crisp" d="M79,0h-5" transform="translate(0,260)" style="stroke: rgb(68, 68, 68); stroke-opacity: 1; stroke-width: 1px;"/><path class="ytick ticks crisp" d="M79,0h-5" transform="translate(0,116)" style="stroke: rgb(68, 68, 68); stroke-opacity: 1; stroke-width: 1px;"/><g class="ytick"><text text-anchor="end" x="71.6" y="4.199999999999999" transform="translate(0,404)" style="font-family: 'Open Sans', verdana, arial, sans-serif; font-size: 12px; fill: rgb(36, 36, 36); fill-opacity: 1; white-space: pre;">0</text></g><g class="ytick"><text text-anchor="end" x="71.6" y="4.199999999999999" transform="translate(0,260)" style="font-family: 'Open Sans', verdana, arial, sans-serif; font-size: 12px; fill: rgb(36, 36, 36); fill-opacity: 1; white-space: pre;">0.5</text></g><g class="ytick"><text text-anchor="end" x="71.6" y="4.199999999999999" transform="translate(0,116)" style="font-family: 'Open Sans', verdana, arial, sans-serif; font-size: 12px; fill: rgb(36, 36, 36); fill-opacity: 1; white-space: pre;">1</text></g></g><g class="overaxes-above"/></g></g><g class="polarlayer"/><g class="ternarylayer"/><g class="geolayer"/><g class="funnelarealayer"/><g class="pielayer"/><g class="treemaplayer"/><g class="sunburstlayer"/><g class="glimages"/><defs id="topdefs-4c0f0a"><g class="clips"/><clipPath id="legend4c0f0a"><rect width="145" height="124" x="1" y="1"/></clipPath></defs><g class="layer-above"><g class="imagelayer"/><g class="shapelayer"/></g><g class="infolayer"><g class="legend" pointer-events="all" transform="translate(541.04,100)"><rect class="bg" shape-rendering="crispEdges" width="146" height="125" x="0.5" y="0.5" style="stroke: rgb(232, 232, 232); stroke-opacity: 1; fill: rgb(255, 255, 255); fill-opacity: 1; stroke-width: 1px;"/><g class="scrollbox" transform="" clip-path="url('#legend4c0f0a')"><g class="groups"><g class="traces" transform="translate(1,15.5)" style="opacity: 1;"><text class="legendtext" text-anchor="start" x="40" y="4.680000000000001" style="font-family: 'Open Sans', verdana, arial, sans-serif; font-size: 12px; fill: rgb(36, 36, 36); fill-opacity: 1; white-space: pre;">Achterhoek</text><g class="layers" style="opacity: 0.8;"><g class="legendfill"/><g class="legendlines"><path class="js-line" d="M5,0h30" style="fill: none; stroke: rgb(26, 36, 65); stroke-opacity: 1; stroke-width: 2px;"/></g><g class="legendsymbols"><g class="legendpoints"/></g></g><rect class="legendtoggle" x="0" y="-9.5" width="139.8125" height="19" style="fill: rgb(0, 0, 0); fill-opacity: 0;"/></g><g class="traces" transform="translate(1,34.5)" style="opacity: 1;"><text class="legendtext" text-anchor="start" x="40" y="4.680000000000001" style="font-family: 'Open Sans', verdana, arial, sans-serif; font-size: 12px; fill: rgb(36, 36, 36); fill-opacity: 1; white-space: pre;">ArnhemNijmegen</text><g class="layers" style="opacity: 0.8;"><g class="legendfill"/><g class="legendlines"><path class="js-line" d="M5,0h30" style="fill: none; stroke: rgb(27, 97, 69); stroke-opacity: 1; stroke-width: 2px;"/></g><g class="legendsymbols"><g class="legendpoints"/></g></g><rect class="legendtoggle" x="0" y="-9.5" width="139.8125" height="19" style="fill: rgb(0, 0, 0); fill-opacity: 0;"/></g><g class="traces" transform="translate(1,53.5)" style="opacity: 1;"><text class="legendtext" text-anchor="start" x="40" y="4.680000000000001" style="font-family: 'Open Sans', verdana, arial, sans-serif; font-size: 12px; fill: rgb(36, 36, 36); fill-opacity: 1; white-space: pre;">Cleantech</text><g class="layers" style="opacity: 0.8;"><g class="legendfill"/><g class="legendlines"><path class="js-line" d="M5,0h30" style="fill: none; stroke: rgb(105, 123, 48); stroke-opacity: 1; stroke-width: 2px;"/></g><g class="legendsymbols"><g class="legendpoints"/></g></g><rect class="legendtoggle" x="0" y="-9.5" width="139.8125" height="19" style="fill: rgb(0, 0, 0); fill-opacity: 0;"/></g><g class="traces" transform="translate(1,72.5)" style="opacity: 1;"><text class="legendtext" text-anchor="start" x="40" y="4.680000000000001" style="font-family: 'Open Sans', verdana, arial, sans-serif; font-size: 12px; fill: rgb(36, 36, 36); fill-opacity: 1; white-space: pre;">Foodvalley </text><g class="layers" style="opacity: 0.8;"><g class="legendfill"/><g class="legendlines"><path class="js-line" d="M5,0h30" style="fill: none; stroke: rgb(200, 123, 124); stroke-opacity: 1; stroke-width: 2px;"/></g><g class="legendsymbols"><g class="legendpoints"/></g></g><rect class="legendtoggle" x="0" y="-9.5" width="139.8125" height="19" style="fill: rgb(0, 0, 0); fill-opacity: 0;"/></g><g class="traces" transform="translate(1,91.5)" style="opacity: 1;"><text class="legendtext" text-anchor="start" x="40" y="4.680000000000001" style="font-family: 'Open Sans', verdana, arial, sans-serif; font-size: 12px; fill: rgb(36, 36, 36); fill-opacity: 1; white-space: pre;">NoordVeluwe</text><g class="layers" style="opacity: 0.8;"><g class="legendfill"/><g class="legendlines"><path class="js-line" d="M5,0h30" style="fill: none; stroke: rgb(205, 162, 224); stroke-opacity: 1; stroke-width: 2px;"/></g><g class="legendsymbols"><g class="legendpoints"/></g></g><rect class="legendtoggle" x="0" y="-9.5" width="139.8125" height="19" style="fill: rgb(0, 0, 0); fill-opacity: 0;"/></g><g class="traces" transform="translate(1,110.5)" style="opacity: 1;"><text class="legendtext" text-anchor="start" x="40" y="4.680000000000001" style="font-family: 'Open Sans', verdana, arial, sans-serif; font-size: 12px; fill: rgb(36, 36, 36); fill-opacity: 1; white-space: pre;">Rivierenland</text><g class="layers" style="opacity: 0.8;"><g class="legendfill"/><g class="legendlines"><path class="js-line" d="M5,0h30" style="fill: none; stroke: rgb(198, 225, 241); stroke-opacity: 1; stroke-width: 2px;"/></g><g class="legendsymbols"><g class="legendpoints"/></g></g><rect class="legendtoggle" x="0" y="-9.5" width="139.8125" height="19" style="fill: rgb(0, 0, 0); fill-opacity: 0;"/></g></g></g><rect class="scrollbar" rx="20" ry="3" width="0" height="0" x="0" y="0" style="fill: rgb(128, 139, 164); fill-opacity: 1;"/></g><g class="g-gtitle"/><g class="g-xtitle"><text class="xtitle" x="306" y="469.20625" text-anchor="middle" style="font-family: 'Open Sans', verdana, arial, sans-serif; font-size: 14px; fill: rgb(36, 36, 36); opacity: 1; font-weight: normal; white-space: pre;"><tspan style="font-weight:bold">Cumulative duration</tspan></text></g><g class="g-ytitle"><text class="ytitle" transform="rotate(-90,29.871875000000003,260)" x="29.871875000000003" y="260" text-anchor="middle" style="font-family: 'Open Sans', verdana, arial, sans-serif; font-size: 14px; fill: rgb(36, 36, 36); opacity: 1; font-weight: normal; white-space: pre;"><tspan style="font-weight:bold">Normalized power</tspan></text></g></g></svg>