<svg class="main-svg" xmlns="http://www.w3.org/2000/svg" xmlns:xlink="http://www.w3.org/1999/xlink" width="700" height="500" style="" viewBox="0 0 700 500"><rect x="0" y="0" width="700" height="500" style="fill: rgb(255, 255, 255); fill-opacity: 1;"/><defs id="defs-c422a5"><g class="clips"><clipPath id="clipc422a5xyplot" class="plotclip"><rect width="452" height="320"/></clipPath><clipPath class="axesclip" id="clipc422a5x"><rect x="80" y="0" width="452" height="500"/></clipPath><clipPath class="axesclip" id="clipc422a5y"><rect x="0" y="100" width="700" height="320"/></clipPath><clipPath class="axesclip" id="clipc422a5xy"><rect x="80" y="100" width="452" height="320"/></clipPath></g><g class="gradients"/></defs><g class="bglayer"/><g class="layer-below"><g class="imagelayer"/><g class="shapelayer"/></g><g class="cartesianlayer"><g class="subplot xy"><g class="layer-subplot"><g class="shapelayer"/><g class="imagelayer"/></g><g class="gridlayer"><g class="x"/><g class="y"/></g><g class="zerolinelayer"/><path class="xlines-below"/><path class="ylines-below"/><g class="overlines-below"/><g class="xaxislayer-below"/><g class="yaxislayer-below"/><g class="overaxes-below"/><g class="plot" transform="translate(80,100)" clip-path="url('#clipc422a5xyplot')"><g class="scatterlayer mlayer"><g class="trace scatter trace4ab121" style="stroke-miterlimit: 2; opacity: 0.8;"><g class="fills"/><g class="errorbars"/><g class="lines"><path class="js-line" d="M0,16L2.79,16.36L2.84,17.8L3.35,24.65L3.41,26.67L8.1,59.36L8.15,59.38L10.27,66.95L10.32,67.3L11.4,70L11.46,71.34L13.26,77.62L13.31,78.66L16.82,92.29L16.87,92.37L17.24,93.11L17.29,93.37L23.89,107.5L23.94,107.52L24.77,109.41L24.82,109.75L25.49,111.78L25.54,112.17L26.58,114.27L26.63,114.64L27.81,116.63L27.87,116.64L28.74,118.07L28.8,118.37L29.83,120.8L29.88,120.85L31.12,122.24L31.17,122.38L32.3,124.54L32.36,124.74L33.8,126.8L33.85,126.81L38.96,135.53L39.01,135.57L41.54,140.01L41.59,140.17L43.09,141.94L43.14,141.95L44.17,143.1L44.22,143.16L55.89,161.63L55.94,161.66L64.2,174.32L64.25,174.34L72.19,186.36L72.25,186.37L85.25,203.01L85.3,203.03L88.09,206.99L88.14,207.01L88.91,208.01L88.97,208.1L89.95,209.46L90,209.53L91.18,211.07L91.24,211.08L93.35,213.9L93.4,213.91L98.87,220.1L98.92,220.22L100.52,222.05L100.58,222.18L102.18,224.11L102.23,224.29L103.16,224.88L103.21,224.88L104.4,226.62L104.45,226.73L119.31,248.43L119.36,248.45L122.71,252.37L122.77,252.37L124.62,254.08L124.68,254.34L126.79,256.6L126.84,256.61L134.43,263.62L134.48,263.63L139.69,269.65L139.74,269.65L142.58,272.47L142.63,272.48L145.58,274.6L145.63,274.77L146.87,275.61L146.92,275.87L150.32,279.01L150.37,279.09L152.59,281.3L152.64,281.3L155.69,285.34L155.74,285.91L164.87,299.68L164.93,299.73L165.86,301.7L165.91,301.77L167.56,303.96L167.61,303.98L183.76,304L183.81,304L452,304" style="vector-effect: non-scaling-stroke; fill: none; stroke: rgb(26, 36, 65); stroke-opacity: 1; stroke-width: 2px; opacity: 1;"/></g><g class="points"/><g class="text"/></g><g class="trace scatter trace82fb4e" style="stroke-miterlimit: 2; opacity: 0.8;"><g class="fills"/><g class="errorbars"/><g class="lines"><path class="js-line" d="M0,16L5.11,16.57L5.16,17.41L5.68,21.07L5.73,21.64L6.86,29.98L6.91,30.01L13.52,56.53L13.57,57.19L14.66,61.9L14.71,62.07L15.95,66.14L16,66.21L19.97,75.7L20.02,75.97L27.45,90.21L27.5,90.49L31.53,99.33L31.58,99.35L33.49,102.07L33.54,102.7L34.52,105.57L34.57,105.82L35.71,108.12L35.76,108.26L41.03,117.86L41.08,117.87L49.39,132.1L49.44,132.25L50.37,133.99L50.42,134.13L52.95,138.01L53,138.38L54.03,139.89L54.08,140.18L54.6,141.21L54.65,141.25L56.51,144.75L56.56,145.57L57.02,146.38L57.07,146.83L58.47,149.46L58.52,149.64L59.76,152.19L59.81,152.25L61.2,154.57L61.25,155.12L68.22,166.78L68.27,167.13L70.7,171.5L70.75,171.51L71.16,172.55L71.21,172.69L75.81,179.35L75.86,179.54L77.56,181.66L77.61,181.68L79.01,184.62L79.06,184.84L80.3,186.48L80.35,186.78L82.1,189.39L82.15,189.42L83.19,190.7L83.24,190.96L84.32,192.68L84.37,192.82L89.07,198.83L89.12,199.06L92.68,203.87L92.73,204.23L94.18,206.55L94.23,206.58L107.44,227.41L107.49,227.59L110.85,232.71L110.9,232.72L112.5,235.05L112.55,235.49L115.85,241.03L115.9,241.43L117.5,244.76L117.55,244.76L121.84,252.01L121.89,252.05L127.36,259.1L127.41,259.28L130.4,263.92L130.46,263.92L131.49,265.11L131.54,265.22L134.12,268.91L134.17,268.98L135.82,271.28L135.87,271.34L137.06,272.56L137.11,272.57L139.33,274.82L139.38,274.88L140.11,275.73L140.16,275.92L141.55,277.64L141.6,278.13L145.16,283.65L145.21,283.66L146.3,284.92L146.35,285.02L147.9,286.44L147.95,286.68L149.08,288.68L149.14,289.07L154.4,297.5L154.45,297.84L157.75,303.8L157.81,303.81L160.59,303.95L160.64,303.95L452,304" style="vector-effect: non-scaling-stroke; fill: none; stroke: rgb(27, 97, 69); stroke-opacity: 1; stroke-width: 2px; opacity: 1;"/></g><g class="points"/><g class="text"/></g><g class="trace scatter trace387764" style="stroke-miterlimit: 2; opacity: 0.8;"><g class="fills"/><g class="errorbars"/><g class="lines"><path class="js-line" d="M0,16L5.42,16.15L5.47,17.33L6.3,23.58L6.35,24.66L8.05,31.48L8.1,31.62L9.29,34.05L9.34,34.21L10.48,38.16L10.53,38.39L11.25,41.95L11.3,42.23L12.75,49.61L12.8,49.77L13.11,50.51L13.16,51.13L19.2,70.37L19.25,70.42L20.38,73.45L20.44,73.94L22.03,77.76L22.09,77.92L22.86,80.66L22.91,80.81L23.53,82.47L23.58,82.69L27.14,91.4L27.2,91.42L29.21,95.88L29.26,95.9L30.45,98.22L30.5,98.25L33.18,104.81L33.23,104.87L42.99,128.34L43.04,129.04L45.82,134.9L45.88,134.97L47.37,137.84L47.42,137.85L49.02,140.76L49.08,140.77L50.83,143.92L50.88,143.98L54.49,149.92L54.55,150.04L56.09,152.81L56.15,152.86L59.91,160.09L59.96,160.59L68.58,178.1L68.63,178.16L70.65,181.64L70.7,181.93L71.99,184.78L72.04,184.8L73.28,187.4L73.33,187.62L75.81,190.47L75.86,190.67L78.08,193.63L78.13,193.79L80.76,196.91L80.81,196.93L82.46,198.25L82.51,198.37L87.37,203.93L87.42,204.01L88.86,205.1L88.91,205.11L89.95,206.45L90,206.66L91.13,207.64L91.18,207.72L92.42,208.9L92.47,208.93L96.04,213.43L96.09,213.72L103.72,228.71L103.78,229.07L107.23,234.09L107.28,234.29L109.04,237.38L109.09,237.45L110.17,239.39L110.23,239.51L113.37,246.24L113.43,246.42L114.77,249.39L114.82,249.41L117.76,256.45L117.81,256.45L119.15,259.02L119.21,259.03L122.35,263.96L122.4,264.06L124.37,267.96L124.42,268.08L125.35,269.98L125.4,270.03L126.84,272.68L126.89,272.88L128.08,274.67L128.13,274.76L132.93,282.33L132.98,282.37L134.33,283.86L134.38,283.91L144.03,296.65L144.08,296.76L146.61,300.93L146.66,301.09L147.59,303.1L147.64,303.32L148.77,303.87L148.83,303.88L161.68,303.99L161.73,303.99L452,304" style="vector-effect: non-scaling-stroke; fill: none; stroke: rgb(105, 123, 48); stroke-opacity: 1; stroke-width: 2px; opacity: 1;"/></g><g class="points"/><g class="text"/></g><g class="trace scatter trace0b5e93" style="stroke-miterlimit: 2; opacity: 0.8;"><g class="fills"/><g class="errorbars"/><g class="lines"><path class="js-line" d="M0,16L5.99,16.38L6.04,18.36L6.55,23.25L6.61,23.78L11.92,47.73L11.97,47.82L13.26,52.25L13.31,52.73L14.71,58.22L14.76,58.34L18.58,70.4L18.63,70.47L24.41,85.19L24.46,85.24L27.35,94.36L27.4,94.41L30.03,101.14L30.09,101.19L32.15,104.66L32.2,105.05L34.32,109.86L34.37,109.93L37.88,116.24L37.93,116.33L39.43,120.05L39.48,120.11L40.87,123.29L40.92,123.8L47.42,137.67L47.48,137.69L49.13,140.79L49.18,140.93L51.5,144.39L51.55,144.41L52.64,147.12L52.69,147.22L54.13,148.43L54.18,148.51L55.22,149.79L55.27,149.95L56.3,152.24L56.35,152.4L58.62,156.8L58.67,156.81L59.96,159.47L60.02,159.52L61.87,162.63L61.92,162.89L63.32,165.31L63.37,165.34L64.3,166.53L64.35,166.83L65.43,168.68L65.49,168.83L66.78,170.99L66.83,171L68.01,172.68L68.07,172.93L70.75,177.14L70.8,177.27L71.63,179.09L71.68,179.39L73.43,182.33L73.48,182.78L79.42,192.39L79.47,192.39L85.51,201.74L85.56,201.8L86.44,202.71L86.49,202.91L87.57,204.35L87.62,204.36L88.71,206.21L88.76,206.25L89.89,207.4L89.95,207.54L92.32,210.29L92.37,210.32L94.9,214.12L94.95,214.12L95.78,215.47L95.83,215.57L96.81,217L96.86,217.22L98.36,219.44L98.41,219.56L100.52,223.75L100.58,223.79L101.71,225.87L101.76,225.91L103.72,229.34L103.78,229.4L104.45,230.47L104.5,230.85L105.17,232.74L105.22,233L107.65,237.87L107.7,237.87L111.88,246.23L111.93,246.23L116.11,252.42L116.16,252.44L117.19,253.97L117.24,254.02L118.74,256.92L118.79,257.07L125.19,267.26L125.24,267.26L127.72,271.03L127.77,271.05L131.75,276.79L131.8,276.93L133.6,278.94L133.65,279.29L135.1,280.81L135.15,281.08L142.48,289.73L142.53,289.75L143.1,290.64L143.15,290.75L147.28,297.16L147.33,297.53L149.34,303.05L149.39,303.15L150.32,303.68L150.37,303.7L166.17,303.97L166.22,303.97L452,304" style="vector-effect: non-scaling-stroke; fill: none; stroke: rgb(200, 123, 124); stroke-opacity: 1; stroke-width: 2px; opacity: 1;"/></g><g class="points"/><g class="text"/></g><g class="trace scatter trace73a57b" style="stroke-miterlimit: 2; opacity: 0.8;"><g class="fills"/><g class="errorbars"/><g class="lines"><path class="js-line" d="M0,16L9.08,16.01L9.13,16.94L11.2,29.31L11.25,29.48L12.38,33.58L12.44,34.14L15.43,43.8L15.48,43.91L15.89,46.03L15.95,46.28L17.39,50.19L17.44,50.33L25.91,74.82L25.96,74.89L28.07,81.36L28.12,81.41L29.41,84.08L29.47,84.15L30.6,87.18L30.65,87.41L33.85,93.81L33.9,93.83L35.66,98.07L35.71,98.08L40.97,110.41L41.03,110.9L43.3,114.45L43.35,114.47L45.93,120.31L45.98,120.55L47.27,123.02L47.32,123.35L48.04,124.54L48.09,124.71L49.59,126.82L49.64,127.01L50.11,129.19L50.16,129.42L50.98,130.81L51.04,130.95L51.71,131.84L51.76,131.96L54.44,137.29L54.49,137.36L57.74,143.89L57.8,144.14L58.78,145.61L58.83,145.97L61.1,150.47L61.15,150.53L64.35,155.22L64.4,155.63L66.05,158.43L66.1,158.44L67.96,161.67L68.01,161.7L69.56,164.59L69.61,164.64L71.99,168.19L72.04,168.28L72.92,169.42L72.97,169.58L80.14,181.61L80.19,181.84L83.29,186.31L83.34,186.64L84.68,188.98L84.73,189.02L88.5,196.02L88.55,196.83L93.3,203.54L93.35,203.76L94.13,205.2L94.18,205.32L95,206.68L95.05,206.74L97.07,209.85L97.12,209.85L97.79,210.97L97.84,211.23L104.91,221.21L104.96,221.39L105.53,222.64L105.58,222.82L106.77,225.34L106.82,225.38L108.68,227.14L108.73,227.19L110.64,230.83L110.69,231.28L111.93,234.21L111.98,234.25L114.82,239.27L114.87,239.52L116.78,243.22L116.83,243.25L122.04,251.54L122.1,251.59L125.86,257.53L125.91,257.76L126.64,259.69L126.69,259.84L127.82,261.65L127.87,261.68L129.89,265.08L129.94,265.08L131.44,267.28L131.49,267.29L135.51,274.67L135.56,274.75L139.69,281.7L139.74,282.16L140.16,283.47L140.21,284.46L141.7,287.38L141.76,287.41L143.72,292L143.77,292.15L145.21,295.39L145.27,295.54L146.76,297.25L146.81,297.45L148.31,301.36L148.36,301.39L149.45,303.86L149.5,303.86L155.79,303.99L155.84,303.99L452,304" style="vector-effect: non-scaling-stroke; fill: none; stroke: rgb(205, 162, 224); stroke-opacity: 1; stroke-width: 2px; opacity: 1;"/></g><g class="points"/><g class="text"/></g><g class="trace scatter trace901ceb" style="stroke-miterlimit: 2; opacity: 0.8;"><g class="fills"/><g class="errorbars"/><g class="lines"><path class="js-line" d="M0,16L16.67,16.65L16.72,17.16L17.55,20.81L17.6,20.88L20.38,29.53L20.44,29.63L22.14,35.15L22.19,35.58L23.22,39.28L23.27,39.37L24.67,41.88L24.72,42.07L26.06,44.83L26.11,45.28L27.4,47.58L27.45,47.74L29.31,51.87L29.36,52.05L30.19,54.17L30.24,54.49L31.12,56.2L31.17,56.9L32.77,60.91L32.82,61.19L35.19,69.97L35.25,69.97L39.22,79.02L39.27,79.22L40.35,81.99L40.41,82.01L42.01,87.54L42.06,87.68L45.57,96.29L45.62,96.32L46.8,100.01L46.86,100.3L47.73,102.61L47.79,102.87L49.75,107.63L49.8,107.64L51.5,111.7L51.55,112.38L53.93,118.15L53.98,118.27L56.61,125.96L56.66,125.96L59.86,136.47L59.91,136.52L61.41,139.5L61.46,139.64L62.75,143.09L62.8,143.96L65.43,151.53L65.49,152.15L67.39,156.73L67.45,156.79L68.89,160.19L68.94,160.59L71.94,169.65L71.99,169.66L72.92,171.69L72.97,172.06L74.88,177.52L74.93,178.45L78.13,186.29L78.18,186.31L80.09,190.18L80.14,190.2L82.77,197.3L82.82,197.57L83.65,199.57L83.7,200.08L85.71,204.97L85.77,205.64L86.49,207.14L86.54,207.29L88.5,211L88.55,211.36L89.95,215.48L90,215.51L94.75,229.08L94.8,229.18L95.21,230.61L95.26,231L103.67,255.71L103.72,255.73L104.55,257.59L104.6,257.69L105.53,258.96L105.58,259.26L106.56,260.6L106.61,260.72L108.21,264.95L108.27,264.97L109.4,267.57L109.45,267.79L110.95,271.53L111,272.08L113.79,282.59L113.84,282.6L114.97,285.11L115.03,285.22L117.45,289.98L117.5,290L119.82,294.51L119.88,294.91L122.3,301.67L122.35,301.69L123.69,302.62L123.75,303.13L124.78,303.95L124.83,303.95L137.63,304L137.68,304L452,304" style="vector-effect: non-scaling-stroke; fill: none; stroke: rgb(198, 225, 241); stroke-opacity: 1; stroke-width: 2px; opacity: 1;"/></g><g class="points"/><g class="text"/></g></g></g><g class="overplot"/><path class="xlines-above crisp" d="M79,420.5H532" style="fill: none; stroke-width: 1px; stroke: rgb(36, 36, 36); stroke-opacity: 1;"/><path class="ylines-above crisp" d="M79.5,100V420" style="fill: none; stroke-width: 1px; stroke: rgb(36, 36, 36); stroke-opacity: 1;"/><g class="overlines-above"/><g class="xaxislayer-above"><path class="xtick ticks crisp" d="M0,421v5" transform="translate(170.36,0)" style="stroke: rgb(68, 68, 68); stroke-opacity: 1; stroke-width: 1px;"/><path class="xtick ticks crisp" d="M0,421v5" transform="translate(260.77,0)" style="stroke: rgb(68, 68, 68); stroke-opacity: 1; stroke-width: 1px;"/><path class="xtick ticks crisp" d="M0,421v5" transform="translate(351.18,0)" style="stroke: rgb(68, 68, 68); stroke-opacity: 1; stroke-width: 1px;"/><path class="xtick ticks crisp" d="M0,421v5" transform="translate(441.59,0)" style="stroke: rgb(68, 68, 68); stroke-opacity: 1; stroke-width: 1px;"/><path class="xtick ticks crisp" d="M0,421v5" transform="translate(532,0)" style="stroke: rgb(68, 68, 68); stroke-opacity: 1; stroke-width: 1px;"/><g class="xtick"><text text-anchor="middle" x="0" y="440.4" transform="translate(170.36,0)" style="font-family: 'Open Sans', verdana, arial, sans-serif; font-size: 12px; fill: rgb(36, 36, 36); fill-opacity: 1; white-space: pre;">20%</text></g><g class="xtick"><text text-anchor="middle" x="0" y="440.4" transform="translate(260.77,0)" style="font-family: 'Open Sans', verdana, arial, sans-serif; font-size: 12px; fill: rgb(36, 36, 36); fill-opacity: 1; white-space: pre;">40%</text></g><g class="xtick"><text text-anchor="middle" x="0" y="440.4" transform="translate(351.18,0)" style="font-family: 'Open Sans', verdana, arial, sans-serif; font-size: 12px; fill: rgb(36, 36, 36); fill-opacity: 1; white-space: pre;">60%</text></g><g class="xtick"><text text-anchor="middle" x="0" y="440.4" transform="translate(441.59,0)" style="font-family: 'Open Sans', verdana, arial, sans-serif; font-size: 12px; fill: rgb(36, 36, 36); fill-opacity: 1; white-space: pre;">80%</text></g><g class="xtick"><text text-anchor="middle" x="0" y="440.4" transform="translate(532,0)" style="font-family: 'Open Sans', verdana, arial, sans-serif; font-size: 12px; fill: rgb(36, 36, 36); fill-opacity: 1; white-space: pre;">100%</text></g></g><g class="yaxislayer-above"><path class="ytick ticks crisp" d="M79,0h-5" transform="translate(0,404)" style="stroke: rgb(68, 68, 68); stroke-opacity: 1; stroke-width: 1px;"/><path class="ytick ticks crisp" d="M79,0h-5" transform="translate(0,260)" style="stroke: rgb(68, 68, 68); stroke-opacity: 1; stroke-width: 1px;"/><path class="ytick ticks crisp" d="M79,0h-5" transform="translate(0,116)" style="stroke: rgb(68, 68, 68); stroke-opacity: 1; stroke-width: 1px;"/><g class="ytick"><text text-anchor="end" x="71.6" y="4.199999999999999" transform="translate(0,404)" style="font-family: 'Open Sans', verdana, arial, sans-serif; font-size: 12px; fill: rgb(36, 36, 36); fill-opacity: 1; white-space: pre;">0</text></g><g class="ytick"><text text-anchor="end" x="71.6" y="4.199999999999999" transform="translate(0,260)" style="font-family: 'Open Sans', verdana, arial, sans-serif; font-size: 12px; fill: rgb(36, 36, 36); fill-opacity: 1; white-space: pre;">0.5</text></g><g class="ytick"><text text-anchor="end" x="71.6" y="4.199999999999999" transform="translate(0,116)" style="font-family: 'Open Sans', verdana, arial, sans-serif; font-size: 12px; fill: rgb(36, 36, 36); fill-opacity: 1; white-space: pre;">1</text></g></g><g class="overaxes-above"/></g></g><g class="polarlayer"/><g class="ternarylayer"/><g class="geolayer"/><g class="funnelarealayer"/><g class="pielayer"/><g class="treemaplayer"/><g class="sunburstlayer"/><g class="glimages"/><defs id="topdefs-c422a5"><g class="clips"/><clipPath id="legendc422a5"><rect width="145" height="124" x="1" y="1"/></clipPath></defs><g class="layer-above"><g class="imagelayer"/><g class="shapelayer"/></g><g class="infolayer"><g class="legend" pointer-events="all" transform="translate(541.04,100)"><rect class="bg" shape-rendering="crispEdges" width="146" height="125" x="0.5" y="0.5" style="stroke: rgb(232, 232, 232); stroke-opacity: 1; fill: rgb(255, 255, 255); fill-opacity: 1; stroke-width: 1px;"/><g class="scrollbox" transform="" clip-path="url('#legendc422a5')"><g class="groups"><g class="traces" transform="translate(1,15.5)" style="opacity: 1;"><text class="legendtext" text-anchor="start" x="40" y="4.680000000000001" style="font-family: 'Open Sans', verdana, arial, sans-serif; font-size: 12px; fill: rgb(36, 36, 36); fill-opacity: 1; white-space: pre;">Achterhoek</text><g class="layers" style="opacity: 0.8;"><g class="legendfill"/><g class="legendlines"><path class="js-line" d="M5,0h30" style="fill: none; stroke: rgb(26, 36, 65); stroke-opacity: 1; stroke-width: 2px;"/></g><g class="legendsymbols"><g class="legendpoints"/></g></g><rect class="legendtoggle" x="0" y="-9.5" width="139.8125" height="19" style="fill: rgb(0, 0, 0); fill-opacity: 0;"/></g><g class="traces" transform="translate(1,34.5)" style="opacity: 1;"><text class="legendtext" text-anchor="start" x="40" y="4.680000000000001" style="font-family: 'Open Sans', verdana, arial, sans-serif; font-size: 12px; fill: rgb(36, 36, 36); fill-opacity: 1; white-space: pre;">ArnhemNijmegen</text><g class="layers" style="opacity: 0.8;"><g class="legendfill"/><g class="legendlines"><path class="js-line" d="M5,0h30" style="fill: none; stroke: rgb(27, 97, 69); stroke-opacity: 1; stroke-width: 2px;"/></g><g class="legendsymbols"><g class="legendpoints"/></g></g><rect class="legendtoggle" x="0" y="-9.5" width="139.8125" height="19" style="fill: rgb(0, 0, 0); fill-opacity: 0;"/></g><g class="traces" transform="translate(1,53.5)" style="opacity: 1;"><text class="legendtext" text-anchor="start" x="40" y="4.680000000000001" style="font-family: 'Open Sans', verdana, arial, sans-serif; font-size: 12px; fill: rgb(36, 36, 36); fill-opacity: 1; white-space: pre;">Cleantech</text><g class="layers" style="opacity: 0.8;"><g class="legendfill"/><g class="legendlines"><path class="js-line" d="M5,0h30" style="fill: none; stroke: rgb(105, 123, 48); stroke-opacity: 1; stroke-width: 2px;"/></g><g class="legendsymbols"><g class="legendpoints"/></g></g><rect class="legendtoggle" x="0" y="-9.5" width="139.8125" height="19" style="fill: rgb(0, 0, 0); fill-opacity: 0;"/></g><g class="traces" transform="translate(1,72.5)" style="opacity: 1;"><text class="legendtext" text-anchor="start" x="40" y="4.680000000000001" style="font-family: 'Open Sans', verdana, arial, sans-serif; font-size: 12px; fill: rgb(36, 36, 36); fill-opacity: 1; white-space: pre;">Foodvalley </text><g class="layers" style="opacity: 0.8;"><g class="legendfill"/><g class="legendlines"><path class="js-line" d="M5,0h30" style="fill: none; stroke: rgb(200, 123, 124); stroke-opacity: 1; stroke-width: 2px;"/></g><g class="legendsymbols"><g class="legendpoints"/></g></g><rect class="legendtoggle" x="0" y="-9.5" width="139.8125" height="19" style="fill: rgb(0, 0, 0); fill-opacity: 0;"/></g><g class="traces" transform="translate(1,91.5)" style="opacity: 1;"><text class="legendtext" text-anchor="start" x="40" y="4.680000000000001" style="font-family: 'Open Sans', verdana, arial, sans-serif; font-size: 12px; fill: rgb(36, 36, 36); fill-opacity: 1; white-space: pre;">NoordVeluwe</text><g class="layers" style="opacity: 0.8;"><g class="legendfill"/><g class="legendlines"><path class="js-line" d="M5,0h30" style="fill: none; stroke: rgb(205, 162, 224); stroke-opacity: 1; stroke-width: 2px;"/></g><g class="legendsymbols"><g class="legendpoints"/></g></g><rect class="legendtoggle" x="0" y="-9.5" width="139.8125" height="19" style="fill: rgb(0, 0, 0); fill-opacity: 0;"/></g><g class="traces" transform="translate(1,110.5)" style="opacity: 1;"><text class="legendtext" text-anchor="start" x="40" y="4.680000000000001" style="font-family: 'Open Sans', verdana, arial, sans-serif; font-size: 12px; fill: rgb(36, 36, 36); fill-opacity: 1; white-space: pre;">Rivierenland</text><g class="layers" style="opacity: 0.8;"><g class="legendfill"/><g class="legendlines"><path class="js-line" d="M5,0h30" style="fill: none; stroke: rgb(198, 225, 241); stroke-opacity: 1; stroke-width: 2px;"/></g><g class="legendsymbols"><g class="legendpoints"/></g></g><rect class="legendtoggle" x="0" y="-9.5" width="139.8125" height="19" style="fill: rgb(0, 0, 0); fill-opacity: 0;"/></g></g></g><rect class="scrollbar" rx="20" ry="3" width="0" height="0" x="0" y="0" style="fill: rgb(128, 139, 164); fill-opacity: 1;"/></g><g class="g-gtitle"/><g class="g-xtitle"><text class="xtitle" x="306" y="469.20625" text-anchor="middle" style="font-family: 'Open Sans', verdana, arial, sans-serif; font-size: 14px; fill: rgb(36, 36, 36); opacity: 1; font-weight: normal; white-space: pre;"><tspan style="font-weight:bold">Cumulative duration</tspan></text></g><g class="g-ytitle"><text class="ytitle" transform="rotate(-90,29.871875000000003,260)" x="29.871875000000003" y="260" text-anchor="middle" style="font-family: 'Open Sans', verdana, arial, sans-serif; font-size: 14px; fill: rgb(36, 36, 36); opacity: 1; font-weight: normal; white-space: pre;"><tspan style="font-weight:bold">Normalized power</tspan></text></g></g></svg>