<svg class="main-svg" xmlns="http://www.w3.org/2000/svg" xmlns:xlink="http://www.w3.org/1999/xlink" width="700" height="500" style="" viewBox="0 0 700 500"><rect x="0" y="0" width="700" height="500" style="fill: rgb(255, 255, 255); fill-opacity: 1;"/><defs id="defs-2c3036"><g class="clips"><clipPath id="clip2c3036xyplot" class="plotclip"><rect width="452" height="320"/></clipPath><clipPath class="axesclip" id="clip2c3036x"><rect x="80" y="0" width="452" height="500"/></clipPath><clipPath class="axesclip" id="clip2c3036y"><rect x="0" y="100" width="700" height="320"/></clipPath><clipPath class="axesclip" id="clip2c3036xy"><rect x="80" y="100" width="452" height="320"/></clipPath></g><g class="gradients"/></defs><g class="bglayer"/><g class="layer-below"><g class="imagelayer"/><g class="shapelayer"/></g><g class="cartesianlayer"><g class="subplot xy"><g class="layer-subplot"><g class="shapelayer"/><g class="imagelayer"/></g><g class="gridlayer"><g class="x"/><g class="y"/></g><g class="zerolinelayer"/><path class="xlines-below"/><path class="ylines-below"/><g class="overlines-below"/><g class="xaxislayer-below"/><g class="yaxislayer-below"/><g class="overaxes-below"/><g class="plot" transform="translate(80,100)" clip-path="url('#clip2c3036xyplot')"><g class="scatterlayer mlayer"><g class="trace scatter tracef5915a" style="stroke-miterlimit: 2; opacity: 0.8;"><g class="fills"/><g class="errorbars"/><g class="lines"><path class="js-line" d="M0,16L7.38,16.71L7.43,17.53L7.69,20.23L7.74,21.43L8.15,25.97L8.21,26.76L9.91,47.81L9.96,47.81L10.63,47.95L10.68,49.28L13,73.69L13.06,73.89L13.42,77.03L13.47,77.63L14.86,87.66L14.91,88.19L16,97.97L16.05,98.49L17.6,108.47L17.65,109.02L21.42,137.6L21.47,138.16L22.55,144.72L22.6,144.73L27.66,174.21L27.71,174.33L32.61,196.58L32.67,197.28L36.48,212.55L36.54,213.25L37.52,216.41L37.57,216.71L38.91,221.96L38.96,223.15L40.56,229.03L40.61,229.05L42.01,233.68L42.06,233.94L44.48,244.27L44.53,244.29L46.29,250.97L46.34,250.99L47.58,252.57L47.63,252.57L51.45,253.14L51.5,253.85L53.72,260.25L53.77,260.3L57.8,272.75L57.85,272.94L60.84,281.9L60.89,281.95L64.56,293.26L64.61,293.28L65.74,295.69L65.8,295.78L69.3,303.92L69.36,303.94L81.28,303.99L81.33,303.99L452,304" style="vector-effect: non-scaling-stroke; fill: none; stroke: rgb(26, 36, 65); stroke-opacity: 1; stroke-width: 2px; opacity: 1;"/></g><g class="points"/><g class="text"/></g><g class="trace scatter trace28ae71" style="stroke-miterlimit: 2; opacity: 0.8;"><g class="fills"/><g class="errorbars"/><g class="lines"><path class="js-line" d="M0,16L2.27,16.53L2.32,16.83L2.68,17.65L2.74,18.39L3.87,39.83L3.92,40.53L5.06,54.45L5.11,55.31L6.19,66.23L6.24,66.5L9.08,92.04L9.13,93.32L10.17,99.59L10.22,99.78L10.73,103.5L10.79,104.44L12.44,115.86L12.49,117.12L12.9,119.61L12.95,120.77L15.74,135.69L15.79,136.76L18.42,149.38L18.47,149.73L19.04,152.73L19.09,153.38L21.93,166.49L21.98,167.04L24.77,178.86L24.82,178.88L25.49,181.52L25.54,181.71L27.3,188.7L27.35,188.78L28.9,193.24L28.95,193.26L33.08,207.54L33.13,207.54L38.75,223.46L38.81,223.49L39.63,226.27L39.68,226.42L41.33,231.12L41.39,231.15L42.57,233.94L42.62,233.97L43.3,235.75L43.35,235.98L45.1,239.34L45.15,239.35L45.72,240.91L45.77,241.15L46.8,242.74L46.86,243.16L51.04,252.32L51.09,252.36L52.74,253.79L52.79,254.14L55.53,260.18L55.58,260.94L56.56,262.43L56.61,262.5L57.85,265.93L57.9,266.26L61.05,272.79L61.1,273.04L62.29,275.7L62.34,275.7L64.25,279.99L64.3,280.38L65.54,283.17L65.59,283.3L66.88,284.89L66.93,285.17L67.86,287.48L67.91,287.56L72.25,293.54L72.3,293.89L76.89,300.98L76.94,301.45L78.95,303.26L79.01,303.28L82.93,303.81L82.98,303.81L452,304" style="vector-effect: non-scaling-stroke; fill: none; stroke: rgb(27, 97, 69); stroke-opacity: 1; stroke-width: 2px; opacity: 1;"/></g><g class="points"/><g class="text"/></g><g class="trace scatter trace81aabb" style="stroke-miterlimit: 2; opacity: 0.8;"><g class="fills"/><g class="errorbars"/><g class="lines"><path class="js-line" d="M0,16L1.14,74.48L1.19,74.88L3.2,95.52L3.25,95.71L3.66,101.04L3.72,102.75L4.13,106.15L4.18,106.51L4.54,108.35L4.59,108.99L6.4,124L6.45,124.05L12.18,157.7L12.23,157.71L13.68,163.01L13.73,163.04L15.69,170.36L15.74,170.39L18.47,182.37L18.53,182.46L19.3,185.27L19.35,185.74L23.38,196.61L23.43,196.64L24.25,197.98L24.31,198.46L26.37,203.26L26.42,203.62L27.3,205.45L27.35,205.66L31.68,216.34L31.74,216.46L33.54,220.04L33.59,220.07L34.37,221.85L34.42,222.2L35.71,225.09L35.76,225.39L47.06,248.05L47.11,248.07L47.73,249.09L47.79,249.25L49.49,251.61L49.54,251.77L50.73,253.74L50.78,253.84L54.8,260.16L54.86,260.42L55.47,261.37L55.53,261.65L55.94,262.6L55.99,262.81L64.81,274.22L64.87,274.27L65.74,275.64L65.8,275.83L70.44,282.07L70.49,282.32L75.14,289.21L75.19,289.23L76.99,291.84L77.04,292.17L88.14,303.56L88.19,303.57L93.82,303.94L93.87,303.94L105.74,303.98L105.79,303.98L452,304" style="vector-effect: non-scaling-stroke; fill: none; stroke: rgb(105, 123, 48); stroke-opacity: 1; stroke-width: 2px; opacity: 1;"/></g><g class="points"/><g class="text"/></g><g class="trace scatter tracea479c8" style="stroke-miterlimit: 2; opacity: 0.8;"><g class="fills"/><g class="errorbars"/><g class="lines"><path class="js-line" d="M0,16L2.32,16.75L2.37,17.19L6.66,69.98L6.71,70.28L8.1,88.75L8.15,89.77L9.19,97.77L9.24,98.52L10.01,104.35L10.06,105.11L12.8,124.29L12.85,125.55L13.83,130.86L13.88,131.08L14.71,136.14L14.76,137.74L18.53,157.28L18.58,157.31L19.15,159.14L19.2,159.26L23.43,174.31L23.48,174.72L24.87,179.14L24.92,179.33L27.87,190.5L27.92,190.54L29,195.46L29.05,195.77L31.12,204.29L31.17,204.31L32.1,208.11L32.15,208.56L33.34,211.11L33.39,211.21L38.55,226.65L38.6,226.69L41.7,236.65L41.75,236.66L43.55,242.88L43.61,243.85L44.95,246.14L45,246.19L49.59,252.6L49.64,252.6L50.31,253.21L50.37,253.52L51.09,255.63L51.14,255.89L52.12,257.99L52.17,258.28L56.3,269.04L56.35,269.12L57.69,271.31L57.74,271.38L59.24,274.08L59.29,274.53L60.02,276.15L60.07,276.36L62.96,281.6L63.01,282.02L67.09,289.42L67.14,289.8L69.1,293.87L69.15,293.92L75.14,302.69L75.19,302.71L86.33,303.69L86.39,303.69L100.06,303.85L100.11,303.85L452,304" style="vector-effect: non-scaling-stroke; fill: none; stroke: rgb(200, 123, 124); stroke-opacity: 1; stroke-width: 2px; opacity: 1;"/></g><g class="points"/><g class="text"/></g><g class="trace scatter trace3d4156" style="stroke-miterlimit: 2; opacity: 0.8;"><g class="fills"/><g class="errorbars"/><g class="lines"><path class="js-line" d="M0,16L3.3,16.21L3.35,17.78L5.37,47.81L5.42,47.81L5.68,48.65L5.73,49.99L6.91,62.08L6.97,62.09L9.03,82.55L9.08,82.73L10.48,95.36L10.53,95.8L11.09,99.55L11.15,100.58L18.68,154.46L18.73,154.57L24.46,184.23L24.51,184.24L25.23,186.33L25.29,186.45L28.07,199.07L28.12,199.17L29.26,202.81L29.31,202.97L32.72,213.99L32.77,214.03L34.57,218.53L34.63,218.58L35.61,221.24L35.66,221.81L37.31,226.51L37.36,226.75L41.49,238.26L41.54,238.26L43.5,243.27L43.55,243.33L44.69,246.32L44.74,246.72L45.98,249.57L46.03,249.8L47.68,252.57L47.73,252.58L49.18,253.18L49.23,253.44L50.31,255.84L50.37,255.93L51.4,258.98L51.45,259.08L52.58,261.94L52.64,262.12L55.22,268.33L55.27,268.39L57.74,273.45L57.8,273.56L58.98,275.25L59.04,275.26L65.95,288.71L66,288.71L68.07,291.62L68.12,291.7L70.7,296.76L70.75,296.76L75.24,303.9L75.29,303.9L88.55,303.98L88.6,303.98L452,304" style="vector-effect: non-scaling-stroke; fill: none; stroke: rgb(205, 162, 224); stroke-opacity: 1; stroke-width: 2px; opacity: 1;"/></g><g class="points"/><g class="text"/></g><g class="trace scatter trace198608" style="stroke-miterlimit: 2; opacity: 0.8;"><g class="fills"/><g class="errorbars"/><g class="lines"><path class="js-line" d="M0,16L1.34,74.37L1.39,75.04L5.78,120.29L5.83,120.3L7.22,128.24L7.28,128.77L9.29,137.79L9.34,137.86L11.4,148.17L11.46,148.28L12.13,149.8L12.18,150.39L16,163.21L16.05,163.22L21.36,180.18L21.42,180.22L21.98,181.66L22.03,181.82L23.74,186.39L23.79,186.45L26.27,191.73L26.32,191.97L28.02,196.51L28.07,196.51L29.1,198.46L29.16,198.61L30.5,202.59L30.55,202.82L33.75,208.42L33.8,208.74L34.32,209.47L34.37,209.82L50.42,235.69L50.47,235.69L51.55,237.7L51.6,237.72L53,238.65L53.05,238.72L56.4,242.54L56.45,242.57L59.04,246.77L59.09,246.78L60.74,248.97L60.79,248.99L62.44,251.13L62.49,251.16L66.47,256.39L66.52,256.6L69.15,260.21L69.2,260.21L72.3,264.09L72.35,264.11L73.95,265.45L74,265.56L75.6,267.58L75.65,267.65L77.15,269.07L77.2,269.17L79.57,271.39L79.63,271.42L85.4,277.19L85.46,277.24L87.57,279.31L87.62,279.5L92.27,284.74L92.32,284.74L106.72,296.82L106.77,296.83L108.99,298.88L109.04,298.93L110.54,300.37L110.59,300.57L113.32,302.46L113.37,302.69L115.39,303.87L115.44,303.88L119.77,303.99L119.82,303.99L452,304" style="vector-effect: non-scaling-stroke; fill: none; stroke: rgb(198, 225, 241); stroke-opacity: 1; stroke-width: 2px; opacity: 1;"/></g><g class="points"/><g class="text"/></g></g></g><g class="overplot"/><path class="xlines-above crisp" d="M79,420.5H532" style="fill: none; stroke-width: 1px; stroke: rgb(36, 36, 36); stroke-opacity: 1;"/><path class="ylines-above crisp" d="M79.5,100V420" style="fill: none; stroke-width: 1px; stroke: rgb(36, 36, 36); stroke-opacity: 1;"/><g class="overlines-above"/><g class="xaxislayer-above"><path class="xtick ticks crisp" d="M0,421v5" transform="translate(170.36,0)" style="stroke: rgb(68, 68, 68); stroke-opacity: 1; stroke-width: 1px;"/><path class="xtick ticks crisp" d="M0,421v5" transform="translate(260.77,0)" style="stroke: rgb(68, 68, 68); stroke-opacity: 1; stroke-width: 1px;"/><path class="xtick ticks crisp" d="M0,421v5" transform="translate(351.18,0)" style="stroke: rgb(68, 68, 68); stroke-opacity: 1; stroke-width: 1px;"/><path class="xtick ticks crisp" d="M0,421v5" transform="translate(441.59,0)" style="stroke: rgb(68, 68, 68); stroke-opacity: 1; stroke-width: 1px;"/><path class="xtick ticks crisp" d="M0,421v5" transform="translate(532,0)" style="stroke: rgb(68, 68, 68); stroke-opacity: 1; stroke-width: 1px;"/><g class="xtick"><text text-anchor="middle" x="0" y="440.4" transform="translate(170.36,0)" style="font-family: 'Open Sans', verdana, arial, sans-serif; font-size: 12px; fill: rgb(36, 36, 36); fill-opacity: 1; white-space: pre;">20%</text></g><g class="xtick"><text text-anchor="middle" x="0" y="440.4" transform="translate(260.77,0)" style="font-family: 'Open Sans', verdana, arial, sans-serif; font-size: 12px; fill: rgb(36, 36, 36); fill-opacity: 1; white-space: pre;">40%</text></g><g class="xtick"><text text-anchor="middle" x="0" y="440.4" transform="translate(351.18,0)" style="font-family: 'Open Sans', verdana, arial, sans-serif; font-size: 12px; fill: rgb(36, 36, 36); fill-opacity: 1; white-space: pre;">60%</text></g><g class="xtick"><text text-anchor="middle" x="0" y="440.4" transform="translate(441.59,0)" style="font-family: 'Open Sans', verdana, arial, sans-serif; font-size: 12px; fill: rgb(36, 36, 36); fill-opacity: 1; white-space: pre;">80%</text></g><g class="xtick"><text text-anchor="middle" x="0" y="440.4" transform="translate(532,0)" style="font-family: 'Open Sans', verdana, arial, sans-serif; font-size: 12px; fill: rgb(36, 36, 36); fill-opacity: 1; white-space: pre;">100%</text></g></g><g class="yaxislayer-above"><path class="ytick ticks crisp" d="M79,0h-5" transform="translate(0,404)" style="stroke: rgb(68, 68, 68); stroke-opacity: 1; stroke-width: 1px;"/><path class="ytick ticks crisp" d="M79,0h-5" transform="translate(0,260)" style="stroke: rgb(68, 68, 68); stroke-opacity: 1; stroke-width: 1px;"/><path class="ytick ticks crisp" d="M79,0h-5" transform="translate(0,116)" style="stroke: rgb(68, 68, 68); stroke-opacity: 1; stroke-width: 1px;"/><g class="ytick"><text text-anchor="end" x="71.6" y="4.199999999999999" transform="translate(0,404)" style="font-family: 'Open Sans', verdana, arial, sans-serif; font-size: 12px; fill: rgb(36, 36, 36); fill-opacity: 1; white-space: pre;">0</text></g><g class="ytick"><text text-anchor="end" x="71.6" y="4.199999999999999" transform="translate(0,260)" style="font-family: 'Open Sans', verdana, arial, sans-serif; font-size: 12px; fill: rgb(36, 36, 36); fill-opacity: 1; white-space: pre;">0.5</text></g><g class="ytick"><text text-anchor="end" x="71.6" y="4.199999999999999" transform="translate(0,116)" style="font-family: 'Open Sans', verdana, arial, sans-serif; font-size: 12px; fill: rgb(36, 36, 36); fill-opacity: 1; white-space: pre;">1</text></g></g><g class="overaxes-above"/></g></g><g class="polarlayer"/><g class="ternarylayer"/><g class="geolayer"/><g class="funnelarealayer"/><g class="pielayer"/><g class="treemaplayer"/><g class="sunburstlayer"/><g class="glimages"/><defs id="topdefs-2c3036"><g class="clips"/><clipPath id="legend2c3036"><rect width="145" height="124" x="1" y="1"/></clipPath></defs><g class="layer-above"><g class="imagelayer"/><g class="shapelayer"/></g><g class="infolayer"><g class="legend" pointer-events="all" transform="translate(541.04,100)"><rect class="bg" shape-rendering="crispEdges" width="146" height="125" x="0.5" y="0.5" style="stroke: rgb(232, 232, 232); stroke-opacity: 1; fill: rgb(255, 255, 255); fill-opacity: 1; stroke-width: 1px;"/><g class="scrollbox" transform="" clip-path="url('#legend2c3036')"><g class="groups"><g class="traces" transform="translate(1,15.5)" style="opacity: 1;"><text class="legendtext" text-anchor="start" x="40" y="4.680000000000001" style="font-family: 'Open Sans', verdana, arial, sans-serif; font-size: 12px; fill: rgb(36, 36, 36); fill-opacity: 1; white-space: pre;">Achterhoek</text><g class="layers" style="opacity: 0.8;"><g class="legendfill"/><g class="legendlines"><path class="js-line" d="M5,0h30" style="fill: none; stroke: rgb(26, 36, 65); stroke-opacity: 1; stroke-width: 2px;"/></g><g class="legendsymbols"><g class="legendpoints"/></g></g><rect class="legendtoggle" x="0" y="-9.5" width="139.8125" height="19" style="fill: rgb(0, 0, 0); fill-opacity: 0;"/></g><g class="traces" transform="translate(1,34.5)" style="opacity: 1;"><text class="legendtext" text-anchor="start" x="40" y="4.680000000000001" style="font-family: 'Open Sans', verdana, arial, sans-serif; font-size: 12px; fill: rgb(36, 36, 36); fill-opacity: 1; white-space: pre;">ArnhemNijmegen</text><g class="layers" style="opacity: 0.8;"><g class="legendfill"/><g class="legendlines"><path class="js-line" d="M5,0h30" style="fill: none; stroke: rgb(27, 97, 69); stroke-opacity: 1; stroke-width: 2px;"/></g><g class="legendsymbols"><g class="legendpoints"/></g></g><rect class="legendtoggle" x="0" y="-9.5" width="139.8125" height="19" style="fill: rgb(0, 0, 0); fill-opacity: 0;"/></g><g class="traces" transform="translate(1,53.5)" style="opacity: 1;"><text class="legendtext" text-anchor="start" x="40" y="4.680000000000001" style="font-family: 'Open Sans', verdana, arial, sans-serif; font-size: 12px; fill: rgb(36, 36, 36); fill-opacity: 1; white-space: pre;">Cleantech</text><g class="layers" style="opacity: 0.8;"><g class="legendfill"/><g class="legendlines"><path class="js-line" d="M5,0h30" style="fill: none; stroke: rgb(105, 123, 48); stroke-opacity: 1; stroke-width: 2px;"/></g><g class="legendsymbols"><g class="legendpoints"/></g></g><rect class="legendtoggle" x="0" y="-9.5" width="139.8125" height="19" style="fill: rgb(0, 0, 0); fill-opacity: 0;"/></g><g class="traces" transform="translate(1,72.5)" style="opacity: 1;"><text class="legendtext" text-anchor="start" x="40" y="4.680000000000001" style="font-family: 'Open Sans', verdana, arial, sans-serif; font-size: 12px; fill: rgb(36, 36, 36); fill-opacity: 1; white-space: pre;">Foodvalley </text><g class="layers" style="opacity: 0.8;"><g class="legendfill"/><g class="legendlines"><path class="js-line" d="M5,0h30" style="fill: none; stroke: rgb(200, 123, 124); stroke-opacity: 1; stroke-width: 2px;"/></g><g class="legendsymbols"><g class="legendpoints"/></g></g><rect class="legendtoggle" x="0" y="-9.5" width="139.8125" height="19" style="fill: rgb(0, 0, 0); fill-opacity: 0;"/></g><g class="traces" transform="translate(1,91.5)" style="opacity: 1;"><text class="legendtext" text-anchor="start" x="40" y="4.680000000000001" style="font-family: 'Open Sans', verdana, arial, sans-serif; font-size: 12px; fill: rgb(36, 36, 36); fill-opacity: 1; white-space: pre;">NoordVeluwe</text><g class="layers" style="opacity: 0.8;"><g class="legendfill"/><g class="legendlines"><path class="js-line" d="M5,0h30" style="fill: none; stroke: rgb(205, 162, 224); stroke-opacity: 1; stroke-width: 2px;"/></g><g class="legendsymbols"><g class="legendpoints"/></g></g><rect class="legendtoggle" x="0" y="-9.5" width="139.8125" height="19" style="fill: rgb(0, 0, 0); fill-opacity: 0;"/></g><g class="traces" transform="translate(1,110.5)" style="opacity: 1;"><text class="legendtext" text-anchor="start" x="40" y="4.680000000000001" style="font-family: 'Open Sans', verdana, arial, sans-serif; font-size: 12px; fill: rgb(36, 36, 36); fill-opacity: 1; white-space: pre;">Rivierenland</text><g class="layers" style="opacity: 0.8;"><g class="legendfill"/><g class="legendlines"><path class="js-line" d="M5,0h30" style="fill: none; stroke: rgb(198, 225, 241); stroke-opacity: 1; stroke-width: 2px;"/></g><g class="legendsymbols"><g class="legendpoints"/></g></g><rect class="legendtoggle" x="0" y="-9.5" width="139.8125" height="19" style="fill: rgb(0, 0, 0); fill-opacity: 0;"/></g></g></g><rect class="scrollbar" rx="20" ry="3" width="0" height="0" x="0" y="0" style="fill: rgb(128, 139, 164); fill-opacity: 1;"/></g><g class="g-gtitle"/><g class="g-xtitle"><text class="xtitle" x="306" y="469.20625" text-anchor="middle" style="font-family: 'Open Sans', verdana, arial, sans-serif; font-size: 14px; fill: rgb(36, 36, 36); opacity: 1; font-weight: normal; white-space: pre;"><tspan style="font-weight:bold">Cumulative duration</tspan></text></g><g class="g-ytitle"><text class="ytitle" transform="rotate(-90,29.871875000000003,260)" x="29.871875000000003" y="260" text-anchor="middle" style="font-family: 'Open Sans', verdana, arial, sans-serif; font-size: 14px; fill: rgb(36, 36, 36); opacity: 1; font-weight: normal; white-space: pre;"><tspan style="font-weight:bold">Normalized power</tspan></text></g></g></svg>