<svg class="main-svg" xmlns="http://www.w3.org/2000/svg" xmlns:xlink="http://www.w3.org/1999/xlink" width="700" height="500" style="" viewBox="0 0 700 500"><rect x="0" y="0" width="700" height="500" style="fill: rgb(255, 255, 255); fill-opacity: 1;"/><defs id="defs-5b347d"><g class="clips"><clipPath id="clip5b347dxyplot" class="plotclip"><rect width="440" height="320"/></clipPath><clipPath class="axesclip" id="clip5b347dx"><rect x="92" y="0" width="440" height="500"/></clipPath><clipPath class="axesclip" id="clip5b347dy"><rect x="0" y="100" width="700" height="320"/></clipPath><clipPath class="axesclip" id="clip5b347dxy"><rect x="92" y="100" width="440" height="320"/></clipPath></g><g class="gradients"/></defs><g class="bglayer"/><g class="layer-below"><g class="imagelayer"/><g class="shapelayer"/></g><g class="cartesianlayer"><g class="subplot xy"><g class="layer-subplot"><g class="shapelayer"/><g class="imagelayer"/></g><g class="gridlayer"><g class="x"/><g class="y"/></g><g class="zerolinelayer"/><path class="xlines-below"/><path class="ylines-below"/><g class="overlines-below"/><g class="xaxislayer-below"/><g class="yaxislayer-below"/><g class="overaxes-below"/><g class="plot" transform="translate(92,100)" clip-path="url('#clip5b347dxyplot')"><g class="scatterlayer mlayer"><g class="trace scatter traceee5682" style="stroke-miterlimit: 2; opacity: 0.8;"><g class="fills"/><g class="errorbars"/><g class="lines"><path class="js-line" d="M0,180.83L2.71,180.98L2.76,181.6L3.06,183.3L3.11,183.95L5.43,192.4L5.48,192.49L6.83,196.33L6.88,197.01L10.65,203.28L10.7,203.31L11.91,205.71L11.96,205.92L12.91,207.18L12.96,207.62L16.07,213L16.13,213.03L20.04,217.31L20.09,217.34L21.15,218.59L21.2,218.63L24.11,220.77L24.16,220.92L25.12,222.09L25.17,222.15L26.27,223.38L26.32,223.39L28.43,225.07L28.48,225.11L30.89,226.59L30.94,226.61L32.05,227.82L32.1,227.86L34.66,229.46L34.71,229.53L41.44,234.41L41.49,234.43L46.01,237.38L46.06,237.39L47.62,238.47L47.67,238.57L50.13,240.47L50.18,240.48L75.7,256.79L75.75,256.79L78.11,258.53L78.16,258.56L83.44,261.03L83.49,261.14L97.45,268.76L97.5,268.78L102.48,271.56L102.53,271.62L104.29,272.58L104.34,272.62L105.29,273.22L105.34,273.25L111.27,277.44L111.32,277.45L117.2,280.84L117.25,280.84L121.21,282.59L121.26,282.6L122.82,283.58L122.87,283.59L134.98,288.9L135.03,288.99L137.99,290.08L138.04,290.18L140.05,290.75L140.1,290.75L152.56,296.84L152.61,296.92L161.6,303.14L161.65,303.24L162.91,303.97L162.96,303.98L440,304" style="vector-effect: non-scaling-stroke; fill: none; stroke: rgb(26, 36, 65); stroke-opacity: 1; stroke-width: 2px; opacity: 1;"/></g><g class="points"/><g class="text"/></g><g class="trace scatter trace39db19" style="stroke-miterlimit: 2; opacity: 0.8;"><g class="fills"/><g class="errorbars"/><g class="lines"><path class="js-line" d="M0,16L4.97,16.57L5.02,17.41L5.53,21.07L5.58,21.64L6.68,29.98L6.73,30.01L9.64,41.47L9.7,41.56L13.76,59.3L13.81,59.48L16.83,69.36L16.88,69.42L18.08,72.7L18.13,73.01L21,78.28L21.05,78.69L22.4,81.51L22.45,81.52L24.41,85.61L24.46,85.64L26.27,88.8L26.32,89.13L35.31,109.19L35.36,109.68L42.05,120.9L42.1,120.93L46.11,128.75L46.17,128.75L48.58,133.06L48.63,133.32L51.54,138.01L51.59,138.38L52.6,139.89L52.65,140.18L53.2,141.25L53.25,141.29L55.46,145.97L55.51,146.38L56.51,148.67L56.56,148.78L58.52,152.56L58.57,152.6L59.08,153.57L59.13,153.78L60.38,156.53L60.43,156.61L65.91,165.42L65.96,165.56L70.58,174.45L70.63,174.46L71.58,175.73L71.63,175.82L72.79,177.63L72.84,177.8L78.16,186.48L78.21,186.78L79.97,189.42L80.02,189.43L81.63,191.57L81.68,191.89L83.04,194.15L83.09,194.27L84.85,196.17L84.9,196.53L86.3,198.32L86.35,198.45L90.62,204.79L90.67,204.97L94.14,210.76L94.19,211.13L96.7,214.45L96.75,214.47L98.26,216.9L98.31,217.12L99.46,219.1L99.51,219.11L101.22,221.11L101.27,221.16L105.79,229.55L105.84,229.74L107.4,232.24L107.45,232.25L108.86,233.93L108.91,234.01L109.51,235.05L109.56,235.49L112.78,241.03L112.83,241.43L114.43,244.76L114.48,244.79L115.89,247.42L115.94,247.43L119.81,253.53L119.86,253.56L125.18,261.17L125.23,261.34L134.73,273.64L134.78,273.65L136.44,275.92L136.49,275.98L137.54,277.38L137.59,277.58L138.04,278.37L138.09,278.67L139.8,282.08L139.85,282.09L140.91,283.38L140.96,283.39L145.13,288.68L145.18,289.07L150.2,297.35L150.25,297.46L152.11,301.7L152.16,301.71L153.62,303.81L153.67,303.82L157.03,303.95L157.08,303.95L440,304" style="vector-effect: non-scaling-stroke; fill: none; stroke: rgb(27, 97, 69); stroke-opacity: 1; stroke-width: 2px; opacity: 1;"/></g><g class="points"/><g class="text"/></g><g class="trace scatter tracee751a5" style="stroke-miterlimit: 2; opacity: 0.8;"><g class="fills"/><g class="errorbars"/><g class="lines"><path class="js-line" d="M0,158.86L5.32,159.53L5.38,159.64L8.04,167.01L8.09,167.05L9.7,169.03L9.75,169.34L10.9,171.73L10.95,171.94L12.91,176.74L12.96,176.82L16.48,183.19L16.53,183.2L17.53,185.01L17.58,185.02L19.79,187.52L19.84,187.82L20.85,189.12L20.9,189.22L30.04,200.63L30.09,200.68L31.15,201.94L31.2,202.07L39.74,212.22L39.79,212.23L43.1,216.97L43.15,216.99L46.82,221.05L46.87,221.22L50.84,224.37L50.89,224.48L53.8,227.04L53.85,227.09L55.56,228.42L55.61,228.42L56.36,229.33L56.41,229.37L57.87,230.95L57.92,231.04L65.1,239.28L65.15,239.3L67.92,241.16L67.97,241.33L72.09,245.67L72.14,245.69L80.02,250.65L80.07,250.65L82.13,251.79L82.18,251.85L86.6,254.18L86.65,254.21L89.87,256.04L89.92,256.05L93.13,258.11L93.18,258.23L94.84,259.79L94.89,259.97L96.35,261.22L96.4,261.31L100.97,266.06L101.02,266.24L103.03,267.76L103.08,267.86L109.66,273.83L109.71,274.1L112.32,276.93L112.37,276.96L114.03,279.19L114.08,279.29L115.19,280.63L115.24,280.68L116.24,281.47L116.29,281.52L120.66,285.25L120.71,285.48L124.48,288.94L124.53,288.96L126.09,290.23L126.14,290.24L127.59,291.44L127.64,291.44L129.3,293.01L129.35,293.03L132.72,295.36L132.77,295.36L136.79,298.01L136.84,298.11L142.77,302.54L142.82,302.79L144.52,303.93L144.57,303.93L440,304" style="vector-effect: non-scaling-stroke; fill: none; stroke: rgb(105, 123, 48); stroke-opacity: 1; stroke-width: 2px; opacity: 1;"/></g><g class="points"/><g class="text"/></g><g class="trace scatter tracede65d4" style="stroke-miterlimit: 2; opacity: 0.8;"><g class="fills"/><g class="errorbars"/><g class="lines"><path class="js-line" d="M0,174.97L5.83,175.14L5.88,176.02L6.58,178.76L6.63,179.07L14.77,194.65L14.82,194.71L17.63,198.95L17.68,198.95L19.69,201.2L19.74,201.24L20.7,202.67L20.75,202.89L21.7,203.72L21.75,203.85L29.29,213.13L29.34,213.14L31.09,214.58L31.15,214.61L32,215.62L32.05,216.07L36.42,219.48L36.47,219.6L41.49,225.16L41.54,225.23L43,226.48L43.05,226.58L46.47,229.67L46.52,229.83L52.75,234.33L52.8,234.34L56.26,237.2L56.31,237.29L58.47,239.29L58.52,239.3L81.08,256.63L81.13,256.63L97.91,268.06L97.96,268.19L101.37,270.78L101.42,270.79L104.69,274.31L104.74,274.33L106.25,275.58L106.3,275.68L109.81,278.77L109.86,278.78L117.15,283.92L117.2,284.08L121.57,287.41L121.62,287.41L128.1,291.61L128.15,291.76L133.67,294.94L133.72,294.95L143.47,301.2L143.52,301.28L146.63,303.87L146.68,303.88L159.44,303.98L159.49,303.98L440,304" style="vector-effect: non-scaling-stroke; fill: none; stroke: rgb(200, 123, 124); stroke-opacity: 1; stroke-width: 2px; opacity: 1;"/></g><g class="points"/><g class="text"/></g><g class="trace scatter trace2a0379" style="stroke-miterlimit: 2; opacity: 0.8;"><g class="fills"/><g class="errorbars"/><g class="lines"><path class="js-line" d="M0,236.97L9.19,237.65L9.24,237.76L10.4,239.42L10.45,239.49L13.46,242.44L13.51,242.44L17.33,245.25L17.38,245.43L18.99,246.62L19.04,246.63L20.6,247.79L20.65,247.8L27.18,252.12L27.23,252.12L48.07,262.67L48.12,262.68L59.78,268.36L59.83,268.36L68.72,271.98L68.77,272.02L73.04,273.55L73.09,273.63L80.42,276.31L80.47,276.33L83.34,277.55L83.39,277.57L87.96,279.73L88.01,279.73L103.83,285.64L103.88,285.68L108.3,287.54L108.35,287.56L130.51,296.53L130.56,296.54L132.37,297.3L132.42,297.32L134.68,298.19L134.73,298.23L139.65,300.94L139.7,300.97L141.51,302.05L141.56,302.05L144.22,303.31L144.27,303.38L157.08,304L157.13,304L440,304" style="vector-effect: non-scaling-stroke; fill: none; stroke: rgb(205, 162, 224); stroke-opacity: 1; stroke-width: 2px; opacity: 1;"/></g><g class="points"/><g class="text"/></g><g class="trace scatter trace69f8c4" style="stroke-miterlimit: 2; opacity: 0.8;"><g class="fills"/><g class="errorbars"/><g class="lines"><path class="js-line" d="M0,167.62L16.28,168.17L16.33,168.93L18.29,171.95L18.34,172.04L22.66,178.69L22.71,178.72L24.92,180.84L24.97,180.96L30.29,186.65L30.34,186.99L32.1,189.26L32.15,189.44L34.21,193.08L34.26,193.17L35.72,194.88L35.77,194.99L39.23,198.86L39.28,198.86L39.89,199.86L39.94,200.03L43,203.97L43.05,204.16L43.9,205.21L43.95,205.41L44.91,206.3L44.96,206.47L47.07,209.52L47.12,209.55L51.34,214.3L51.39,214.31L53.45,217.6L53.5,217.68L54.35,218.75L54.4,218.88L56.31,221.84L56.36,221.86L68.27,238.01L68.32,238.26L70.08,240.38L70.13,240.39L71.43,241.96L71.48,242.1L76.41,248.58L76.46,248.58L78.97,251.34L79.02,251.34L82.48,255.77L82.53,255.77L86.05,259.84L86.1,259.89L88.06,262.71L88.11,262.81L91.98,268.41L92.03,268.42L92.83,269.61L92.88,269.8L93.28,270.8L93.33,270.92L100.67,281.02L100.72,281.02L102.98,283.02L103.03,283.08L105.94,285.89L105.99,286.17L107.75,287.76L107.8,288.02L109.86,292.69L109.91,292.72L111.62,294.72L111.67,294.73L114.78,297.58L114.84,297.59L118.35,302.08L118.4,302.09L119.61,302.97L119.66,302.98L120.91,303.89L120.96,303.9L127.24,304L127.29,304L440,304" style="vector-effect: non-scaling-stroke; fill: none; stroke: rgb(198, 225, 241); stroke-opacity: 1; stroke-width: 2px; opacity: 1;"/></g><g class="points"/><g class="text"/></g></g></g><g class="overplot"/><path class="xlines-above crisp" d="M91,420.5H532" style="fill: none; stroke-width: 1px; stroke: rgb(36, 36, 36); stroke-opacity: 1;"/><path class="ylines-above crisp" d="M91.5,100V420" style="fill: none; stroke-width: 1px; stroke: rgb(36, 36, 36); stroke-opacity: 1;"/><g class="overlines-above"/><g class="xaxislayer-above"><path class="xtick ticks crisp" d="M0,421v5" transform="translate(179.95999999999998,0)" style="stroke: rgb(68, 68, 68); stroke-opacity: 1; stroke-width: 1px;"/><path class="xtick ticks crisp" d="M0,421v5" transform="translate(267.97,0)" style="stroke: rgb(68, 68, 68); stroke-opacity: 1; stroke-width: 1px;"/><path class="xtick ticks crisp" d="M0,421v5" transform="translate(355.98,0)" style="stroke: rgb(68, 68, 68); stroke-opacity: 1; stroke-width: 1px;"/><path class="xtick ticks crisp" d="M0,421v5" transform="translate(443.99,0)" style="stroke: rgb(68, 68, 68); stroke-opacity: 1; stroke-width: 1px;"/><path class="xtick ticks crisp" d="M0,421v5" transform="translate(532,0)" style="stroke: rgb(68, 68, 68); stroke-opacity: 1; stroke-width: 1px;"/><g class="xtick"><text text-anchor="middle" x="0" y="440.4" transform="translate(179.95999999999998,0)" style="font-family: 'Open Sans', verdana, arial, sans-serif; font-size: 12px; fill: rgb(36, 36, 36); fill-opacity: 1; white-space: pre;">20%</text></g><g class="xtick"><text text-anchor="middle" x="0" y="440.4" transform="translate(267.97,0)" style="font-family: 'Open Sans', verdana, arial, sans-serif; font-size: 12px; fill: rgb(36, 36, 36); fill-opacity: 1; white-space: pre;">40%</text></g><g class="xtick"><text text-anchor="middle" x="0" y="440.4" transform="translate(355.98,0)" style="font-family: 'Open Sans', verdana, arial, sans-serif; font-size: 12px; fill: rgb(36, 36, 36); fill-opacity: 1; white-space: pre;">60%</text></g><g class="xtick"><text text-anchor="middle" x="0" y="440.4" transform="translate(443.99,0)" style="font-family: 'Open Sans', verdana, arial, sans-serif; font-size: 12px; fill: rgb(36, 36, 36); fill-opacity: 1; white-space: pre;">80%</text></g><g class="xtick"><text text-anchor="middle" x="0" y="440.4" transform="translate(532,0)" style="font-family: 'Open Sans', verdana, arial, sans-serif; font-size: 12px; fill: rgb(36, 36, 36); fill-opacity: 1; white-space: pre;">100%</text></g></g><g class="yaxislayer-above"><path class="ytick ticks crisp" d="M91,0h-5" transform="translate(0,404)" style="stroke: rgb(68, 68, 68); stroke-opacity: 1; stroke-width: 1px;"/><path class="ytick ticks crisp" d="M91,0h-5" transform="translate(0,332.9)" style="stroke: rgb(68, 68, 68); stroke-opacity: 1; stroke-width: 1px;"/><path class="ytick ticks crisp" d="M91,0h-5" transform="translate(0,261.81)" style="stroke: rgb(68, 68, 68); stroke-opacity: 1; stroke-width: 1px;"/><path class="ytick ticks crisp" d="M91,0h-5" transform="translate(0,190.70999999999998)" style="stroke: rgb(68, 68, 68); stroke-opacity: 1; stroke-width: 1px;"/><path class="ytick ticks crisp" d="M91,0h-5" transform="translate(0,119.62)" style="stroke: rgb(68, 68, 68); stroke-opacity: 1; stroke-width: 1px;"/><g class="ytick"><text text-anchor="end" x="83.6" y="4.199999999999999" transform="translate(0,404)" style="font-family: 'Open Sans', verdana, arial, sans-serif; font-size: 12px; fill: rgb(36, 36, 36); fill-opacity: 1; white-space: pre;">0 MW</text></g><g class="ytick"><text text-anchor="end" x="83.6" y="4.199999999999999" transform="translate(0,332.9)" style="font-family: 'Open Sans', verdana, arial, sans-serif; font-size: 12px; fill: rgb(36, 36, 36); fill-opacity: 1; white-space: pre;">100 MW</text></g><g class="ytick"><text text-anchor="end" x="83.6" y="4.199999999999999" transform="translate(0,261.81)" style="font-family: 'Open Sans', verdana, arial, sans-serif; font-size: 12px; fill: rgb(36, 36, 36); fill-opacity: 1; white-space: pre;">200 MW</text></g><g class="ytick"><text text-anchor="end" x="83.6" y="4.199999999999999" transform="translate(0,190.70999999999998)" style="font-family: 'Open Sans', verdana, arial, sans-serif; font-size: 12px; fill: rgb(36, 36, 36); fill-opacity: 1; white-space: pre;">300 MW</text></g><g class="ytick"><text text-anchor="end" x="83.6" y="4.199999999999999" transform="translate(0,119.62)" style="font-family: 'Open Sans', verdana, arial, sans-serif; font-size: 12px; fill: rgb(36, 36, 36); fill-opacity: 1; white-space: pre;">400 MW</text></g></g><g class="overaxes-above"/></g></g><g class="polarlayer"/><g class="ternarylayer"/><g class="geolayer"/><g class="funnelarealayer"/><g class="pielayer"/><g class="treemaplayer"/><g class="sunburstlayer"/><g class="glimages"/><defs id="topdefs-5b347d"><g class="clips"/><clipPath id="legend5b347d"><rect width="145" height="124" x="1" y="1"/></clipPath></defs><g class="layer-above"><g class="imagelayer"/><g class="shapelayer"/></g><g class="infolayer"><g class="legend" pointer-events="all" transform="translate(540.8,100)"><rect class="bg" shape-rendering="crispEdges" style="stroke: rgb(232, 232, 232); stroke-opacity: 1; fill: rgb(255, 255, 255); fill-opacity: 1; stroke-width: 1px;" width="146" height="125" x="0.5" y="0.5"/><g class="scrollbox" transform="" clip-path="url('#legend5b347d')"><g class="groups"><g class="traces" transform="translate(1,15.5)" style="opacity: 1;"><text class="legendtext" text-anchor="start" x="40" y="4.680000000000001" style="font-family: 'Open Sans', verdana, arial, sans-serif; font-size: 12px; fill: rgb(36, 36, 36); fill-opacity: 1; white-space: pre;">Achterhoek</text><g class="layers" style="opacity: 0.8;"><g class="legendfill"/><g class="legendlines"><path class="js-line" d="M5,0h30" style="fill: none; stroke: rgb(26, 36, 65); stroke-opacity: 1; stroke-width: 2px;"/></g><g class="legendsymbols"><g class="legendpoints"/></g></g><rect class="legendtoggle" x="0" y="-9.5" width="139.8125" height="19" style="fill: rgb(0, 0, 0); fill-opacity: 0;"/></g><g class="traces" transform="translate(1,34.5)" style="opacity: 1;"><text class="legendtext" text-anchor="start" x="40" y="4.680000000000001" style="font-family: 'Open Sans', verdana, arial, sans-serif; font-size: 12px; fill: rgb(36, 36, 36); fill-opacity: 1; white-space: pre;">ArnhemNijmegen</text><g class="layers" style="opacity: 0.8;"><g class="legendfill"/><g class="legendlines"><path class="js-line" d="M5,0h30" style="fill: none; stroke: rgb(27, 97, 69); stroke-opacity: 1; stroke-width: 2px;"/></g><g class="legendsymbols"><g class="legendpoints"/></g></g><rect class="legendtoggle" x="0" y="-9.5" width="139.8125" height="19" style="fill: rgb(0, 0, 0); fill-opacity: 0;"/></g><g class="traces" transform="translate(1,53.5)" style="opacity: 1;"><text class="legendtext" text-anchor="start" x="40" y="4.680000000000001" style="font-family: 'Open Sans', verdana, arial, sans-serif; font-size: 12px; fill: rgb(36, 36, 36); fill-opacity: 1; white-space: pre;">Cleantech</text><g class="layers" style="opacity: 0.8;"><g class="legendfill"/><g class="legendlines"><path class="js-line" d="M5,0h30" style="fill: none; stroke: rgb(105, 123, 48); stroke-opacity: 1; stroke-width: 2px;"/></g><g class="legendsymbols"><g class="legendpoints"/></g></g><rect class="legendtoggle" x="0" y="-9.5" width="139.8125" height="19" style="fill: rgb(0, 0, 0); fill-opacity: 0;"/></g><g class="traces" transform="translate(1,72.5)" style="opacity: 1;"><text class="legendtext" text-anchor="start" x="40" y="4.680000000000001" style="font-family: 'Open Sans', verdana, arial, sans-serif; font-size: 12px; fill: rgb(36, 36, 36); fill-opacity: 1; white-space: pre;">Foodvalley </text><g class="layers" style="opacity: 0.8;"><g class="legendfill"/><g class="legendlines"><path class="js-line" d="M5,0h30" style="fill: none; stroke: rgb(200, 123, 124); stroke-opacity: 1; stroke-width: 2px;"/></g><g class="legendsymbols"><g class="legendpoints"/></g></g><rect class="legendtoggle" x="0" y="-9.5" width="139.8125" height="19" style="fill: rgb(0, 0, 0); fill-opacity: 0;"/></g><g class="traces" transform="translate(1,91.5)" style="opacity: 1;"><text class="legendtext" text-anchor="start" x="40" y="4.680000000000001" style="font-family: 'Open Sans', verdana, arial, sans-serif; font-size: 12px; fill: rgb(36, 36, 36); fill-opacity: 1; white-space: pre;">NoordVeluwe</text><g class="layers" style="opacity: 0.8;"><g class="legendfill"/><g class="legendlines"><path class="js-line" d="M5,0h30" style="fill: none; stroke: rgb(205, 162, 224); stroke-opacity: 1; stroke-width: 2px;"/></g><g class="legendsymbols"><g class="legendpoints"/></g></g><rect class="legendtoggle" x="0" y="-9.5" width="139.8125" height="19" style="fill: rgb(0, 0, 0); fill-opacity: 0;"/></g><g class="traces" transform="translate(1,110.5)" style="opacity: 1;"><text class="legendtext" text-anchor="start" x="40" y="4.680000000000001" style="font-family: 'Open Sans', verdana, arial, sans-serif; font-size: 12px; fill: rgb(36, 36, 36); fill-opacity: 1; white-space: pre;">Rivierenland</text><g class="layers" style="opacity: 0.8;"><g class="legendfill"/><g class="legendlines"><path class="js-line" d="M5,0h30" style="fill: none; stroke: rgb(198, 225, 241); stroke-opacity: 1; stroke-width: 2px;"/></g><g class="legendsymbols"><g class="legendpoints"/></g></g><rect class="legendtoggle" x="0" y="-9.5" width="139.8125" height="19" style="fill: rgb(0, 0, 0); fill-opacity: 0;"/></g></g></g><rect class="scrollbar" rx="20" ry="3" width="0" height="0" style="fill: rgb(128, 139, 164); fill-opacity: 1;" x="0" y="0"/></g><g class="g-gtitle"/><g class="g-xtitle"><text class="xtitle" x="312" y="469.20625" text-anchor="middle" style="font-family: 'Open Sans', verdana, arial, sans-serif; font-size: 14px; fill: rgb(36, 36, 36); opacity: 1; font-weight: normal; white-space: pre;"><tspan style="font-weight:bold">Cumulative duration</tspan></text></g><g class="g-ytitle" transform="translate(2.8466796875,0)"><text class="ytitle" transform="rotate(-90,12.153125000000003,260)" x="12.153125000000003" y="260" text-anchor="middle" style="font-family: 'Open Sans', verdana, arial, sans-serif; font-size: 14px; fill: rgb(36, 36, 36); opacity: 1; font-weight: normal; white-space: pre;"><tspan style="font-weight:bold">Power</tspan></text></g></g></svg>