<svg class="main-svg" xmlns="http://www.w3.org/2000/svg" xmlns:xlink="http://www.w3.org/1999/xlink" width="700" height="500" style="" viewBox="0 0 700 500"><rect x="0" y="0" width="700" height="500" style="fill: rgb(255, 255, 255); fill-opacity: 1;"/><defs id="defs-b363da"><g class="clips"><clipPath id="clipb363daxyplot" class="plotclip"><rect width="452" height="320"/></clipPath><clipPath class="axesclip" id="clipb363dax"><rect x="80" y="0" width="452" height="500"/></clipPath><clipPath class="axesclip" id="clipb363day"><rect x="0" y="100" width="700" height="320"/></clipPath><clipPath class="axesclip" id="clipb363daxy"><rect x="80" y="100" width="452" height="320"/></clipPath></g><g class="gradients"/></defs><g class="bglayer"/><g class="layer-below"><g class="imagelayer"/><g class="shapelayer"/></g><g class="cartesianlayer"><g class="subplot xy"><g class="layer-subplot"><g class="shapelayer"/><g class="imagelayer"/></g><g class="gridlayer"><g class="x"/><g class="y"/></g><g class="zerolinelayer"/><path class="xlines-below"/><path class="ylines-below"/><g class="overlines-below"/><g class="xaxislayer-below"/><g class="yaxislayer-below"/><g class="overaxes-below"/><g class="plot" transform="translate(80,100)" clip-path="url('#clipb363daxyplot')"><g class="scatterlayer mlayer"><g class="trace scatter trace465f39" style="stroke-miterlimit: 2; opacity: 0.8;"><g class="fills"/><g class="errorbars"/><g class="lines"><path class="js-line" d="M0,16L2.06,36.69L2.12,36.75L6.09,46.18L6.14,46.19L8.05,49.63L8.1,49.65L14.97,58.26L15.02,58.29L16.31,59.81L16.36,60.15L17.96,61.89L18.01,61.93L22.96,67.07L23.02,67.13L24.41,68.48L24.46,68.53L26.52,70.18L26.58,70.19L28.43,71.88L28.49,71.92L29.88,73.39L29.93,73.45L33.85,77.68L33.9,77.69L35.66,79.33L35.71,79.43L39.63,82.58L39.68,82.62L46.86,88.74L46.91,88.75L48.15,89.93L48.2,89.95L50.52,91.95L50.57,91.96L53.62,94.01L53.67,94.16L54.91,95.24L54.96,95.45L56.35,96.75L56.4,96.84L59.09,99.7L59.14,99.7L60.74,101.22L60.79,101.37L62.49,102.8L62.54,102.99L64.51,104.34L64.56,104.38L65.8,105.56L65.85,105.63L67.96,107.26L68.01,107.34L69.25,108.48L69.3,108.49L75.7,113.86L75.75,113.86L78.28,115.73L78.33,115.73L79.47,116.5L79.52,116.58L80.97,117.79L81.02,117.92L86.33,121.94L86.39,122.03L88.09,123.23L88.14,123.27L92.53,126.06L92.58,126.19L98.92,131L98.98,131.11L101.61,133.11L101.66,133.15L108.21,137.41L108.27,137.49L110.54,138.83L110.59,138.9L112.81,140.88L112.86,140.88L122.92,147.52L122.97,147.52L125.04,148.81L125.09,148.81L136.65,155.73L136.7,155.77L162.04,165.46L162.09,165.46L164.36,166.5L164.41,166.56L167.2,167.42L167.25,167.44L170.4,168.46L170.45,168.47L173.13,169.57L173.18,169.59L179.84,172.49L179.89,172.5L183.14,173.83L183.19,173.86L187.53,175.99L187.58,176.06L190.63,177.58L190.68,177.62L194.75,180L194.81,180.06L198.21,181.65L198.26,181.66L210.8,187.91L210.85,188L216.17,190.84L216.22,190.84L222.67,193.25L222.72,193.25L224.53,194.02L224.58,194.04L231.86,196.63L231.91,196.68L235.42,198.12L235.47,198.2L325.05,233.24L325.11,233.25L334.7,236.33L334.76,236.34L343.84,239.17L343.89,239.18L355.71,242.98L355.76,243.05L360.2,244.69L360.25,244.72L365.15,247.1L365.2,247.1L367.73,248.15L367.78,248.3L370.72,249.88L370.78,249.89L372.63,250.79L372.68,250.82L376.14,252.45L376.19,252.48L378,253.46L378.05,253.54L381.46,255.1L381.51,255.22L385.79,257.1L385.84,257.15L388.73,258.71L388.79,258.72L417.22,274.4L417.27,274.6L421.61,276.98L421.66,277.07L436.78,285.53L436.83,285.67L438.69,287.04L438.74,287.04L440.29,288.06L440.34,288.14L441.73,289.06L441.78,289.33L445.45,292.25L445.5,292.29L450.09,296.47L450.14,296.83L450.71,297.88L450.76,298.25L451.69,301.74L451.74,302.16L452,304" style="vector-effect: non-scaling-stroke; fill: none; stroke: rgb(26, 36, 65); stroke-opacity: 1; stroke-width: 2px; opacity: 1;"/></g><g class="points"/><g class="text"/></g><g class="trace scatter tracea6f899" style="stroke-miterlimit: 2; opacity: 0.8;"><g class="fills"/><g class="errorbars"/><g class="lines"><path class="js-line" d="M0,16L0.93,31.72L0.98,32.05L2.32,39.2L2.37,39.23L3.77,44.67L3.82,44.68L4.23,45.94L4.28,46.28L5.47,49.54L5.52,49.93L7.74,54.85L7.79,54.92L8.62,55.95L8.67,56.16L10.68,59.76L10.73,59.99L11.4,60.98L11.46,61.03L12.44,62.27L12.49,62.3L13.93,63.63L13.98,63.71L27.3,77.96L27.35,77.98L34.57,83.47L34.63,83.65L36.02,84.62L36.07,84.92L38.45,86.98L38.5,86.99L52.27,98.75L52.33,98.77L59.76,105.17L59.81,105.17L61.98,107.08L62.03,107.09L66.98,111.16L67.03,111.24L69.05,112.89L69.1,112.89L75.39,118.25L75.45,118.28L84.06,125.82L84.11,126.06L87.93,129.25L87.98,129.26L95.62,134.62L95.67,134.62L100.68,137.55L100.73,137.66L104.03,139.44L104.09,139.48L105.38,140.29L105.43,140.32L108.88,142.25L108.94,142.38L111.31,143.72L111.36,143.73L113.74,145.32L113.79,145.45L137.11,157.65L137.16,157.66L143.98,160.57L144.03,160.61L188.41,178.56L188.46,178.67L191.92,180.36L191.97,180.39L193.62,181.2L193.67,181.25L197.18,182.94L197.23,182.97L200.02,184.58L200.07,184.58L205.33,186.61L205.38,186.74L215.86,191.17L215.91,191.17L219.68,192.63L219.73,192.7L221.28,193.39L221.33,193.42L240.11,200.24L240.17,200.25L246,202.52L246.05,202.62L252.45,205.19L252.5,205.2L276.49,215.51L276.55,215.61L280.11,217.09L280.16,217.09L301.47,224.95L301.52,225.04L306.22,226.89L306.27,226.9L317.06,230.55L317.11,230.57L321.39,231.89L321.44,231.91L326.09,233.22L326.14,233.25L331.04,234.65L331.09,234.68L339.71,237.04L339.76,237.07L342.44,237.98L342.5,238L349,240.05L349.05,240.09L354.78,242.76L354.83,242.8L365.72,248.5L365.77,248.5L367.83,249.51L367.89,249.54L369.33,250.35L369.38,250.36L372.94,251.79L372.99,251.81L374.08,252.53L374.13,252.54L375.73,253.34L375.78,253.41L378.21,254.42L378.26,254.42L380.32,255.28L380.37,255.34L392.24,259.78L392.29,259.86L394.41,260.84L394.46,260.85L396.11,261.85L396.16,261.96L402,264.51L402.05,264.58L405.5,266.74L405.56,266.8L409.12,269.2L409.17,269.29L412.99,271.66L413.04,271.92L414.79,272.77L414.85,272.94L418.92,274.76L418.97,274.76L426.46,278.81L426.51,278.89L428.37,280.23L428.42,280.33L438.38,285.78L438.43,285.83L447.56,293.82L447.61,294.04L450.66,297.59L450.71,297.88L451.85,302.92L451.9,303.25L452,304" style="vector-effect: non-scaling-stroke; fill: none; stroke: rgb(27, 97, 69); stroke-opacity: 1; stroke-width: 2px; opacity: 1;"/></g><g class="points"/><g class="text"/></g><g class="trace scatter trace378e44" style="stroke-miterlimit: 2; opacity: 0.8;"><g class="fills"/><g class="errorbars"/><g class="lines"><path class="js-line" d="M0,16L0.88,30.06L0.93,30.38L3.1,41.85L3.15,41.92L4.54,47.06L4.59,47.06L5.83,49.47L5.88,49.59L7.07,52.9L7.12,52.95L15.17,64.43L15.22,64.46L23.84,75L23.89,75L26.16,76.78L26.21,76.87L28.38,78.89L28.43,79L32.25,81.68L32.3,81.91L38.14,87.97L38.19,88.2L42.16,91.88L42.21,91.88L45.1,94.66L45.15,94.82L47.48,96.95L47.53,97.11L49.39,98.33L49.44,98.49L65.33,112.65L65.38,112.74L68.01,114.75L68.07,114.76L70.28,116.42L70.34,116.53L72.35,117.83L72.4,117.88L73.95,119.04L74,119.21L75.03,120.26L75.08,120.28L77.92,122.94L77.97,122.95L80.61,124.7L80.66,124.77L81.95,125.96L82,126.06L84.68,128.26L84.73,128.34L89.74,132.12L89.79,132.15L93.15,134.64L93.2,134.68L94.64,135.88L94.69,135.88L100.37,139.46L100.42,139.56L102.28,141L102.33,141.08L106.82,143.62L106.87,143.69L110.12,146.1L110.17,146.23L112.75,148.33L112.81,148.37L137.52,162.93L137.58,162.94L140.57,164.3L140.62,164.45L144.59,166.3L144.65,166.3L182.52,179.7L182.58,179.74L252.34,207.26L252.4,207.26L256.16,208.47L256.21,208.54L262.46,210.85L262.51,210.85L265.3,211.97L265.35,211.97L279.23,217.16L279.28,217.27L287.64,220.63L287.69,220.69L308.13,228.84L308.18,228.84L357.1,245.02L357.15,245.02L359.37,245.77L359.42,245.78L360.92,246.45L360.97,246.45L367.68,248.58L367.73,248.58L372.79,250.25L372.84,250.31L391.62,257.08L391.67,257.12L405.5,264.49L405.56,264.55L407.52,265.56L407.57,265.56L415.67,270.63L415.72,270.64L423.1,274.65L423.15,274.71L431.93,280.43L431.98,280.49L434.4,281.88L434.45,281.95L435.85,282.88L435.9,282.9L438.48,284.6L438.53,284.8L440.34,286.39L440.39,286.47L447.77,293.66L447.82,293.95L449.83,296.61L449.88,296.78L450.5,298.2L450.56,298.5L451.12,299.52L451.17,299.85L451.9,303.31L451.95,303.82L452,304" style="vector-effect: non-scaling-stroke; fill: none; stroke: rgb(105, 123, 48); stroke-opacity: 1; stroke-width: 2px; opacity: 1;"/></g><g class="points"/><g class="text"/></g><g class="trace scatter tracea27901" style="stroke-miterlimit: 2; opacity: 0.8;"><g class="fills"/><g class="errorbars"/><g class="lines"><path class="js-line" d="M0,16L1.14,31.56L1.19,31.6L4.13,41.17L4.18,41.23L5.62,43.82L5.68,43.86L9.03,49.45L9.08,49.48L12.95,53.49L13,53.69L16.87,57.89L16.93,58.22L18.63,60.31L18.68,60.43L22.6,64.26L22.65,64.27L25.8,67.21L25.85,67.21L28.95,70.17L29,70.23L42.52,83.02L42.57,83.11L58.93,98.06L58.98,98.17L61.82,100.6L61.87,100.62L71.21,109.63L71.27,109.85L94.75,129.08L94.8,129.25L97.02,130.99L97.07,131.02L99.65,133.54L99.7,133.54L102.02,135.02L102.07,135.14L105.74,137.43L105.79,137.56L107.59,138.7L107.65,138.74L111.72,141.07L111.77,141.07L126.89,149.38L126.95,149.48L142.94,156.5L142.99,156.5L152.75,160.25L152.8,160.31L158.94,162.75L158.99,162.75L161.37,163.78L161.42,163.88L163.64,164.94L163.69,164.96L166.63,166.06L166.68,166.13L168.38,167.15L168.44,167.17L177.36,172.12L177.41,172.2L181.7,174.5L181.75,174.51L184.85,175.88L184.9,175.9L187.43,176.98L187.48,177.01L190.37,178.61L190.42,178.62L191.86,179.37L191.92,179.38L199.66,183.25L199.71,183.33L202.6,184.82L202.65,184.82L204.4,185.75L204.46,185.91L230.67,197.6L230.72,197.6L257.25,208.14L257.3,208.2L261.99,210.17L262.05,210.17L267.05,212.26L267.1,212.29L287.28,220.55L287.33,220.69L293.42,223.35L293.47,223.39L296.72,224.52L296.77,224.64L309.01,229.45L309.06,229.45L310.3,230.02L310.35,230.02L314.01,231.58L314.06,231.59L318.55,233.27L318.6,233.28L320,233.87L320.05,233.89L328.31,236.26L328.36,236.29L337.65,238.89L337.7,238.94L341.88,240.24L341.93,240.28L347.76,242.18L347.81,242.21L357.72,246.07L357.77,246.1L361.13,247.33L361.18,247.34L370.78,250.63L370.83,250.68L373.46,251.6L373.51,251.63L396.16,260.43L396.22,260.52L401.32,263.35L401.38,263.42L402.56,264.19L402.61,264.2L405.2,265.63L405.25,265.64L408.03,267.3L408.08,267.38L412.06,269.92L412.11,269.94L415.93,271.95L415.98,272.02L418.56,273.3L418.61,273.31L421.71,275.04L421.76,275.05L423.72,276.42L423.77,276.42L426.51,278.42L426.56,278.46L430.07,280.16L430.12,280.22L432.75,281.49L432.8,281.55L439.87,286.27L439.92,286.35L442.81,288.65L442.87,288.66L444.57,290.08L444.62,290.09L445.39,290.95L445.45,291.15L447.51,293.5L447.56,293.63L448.9,295.48L448.96,295.55L451.17,299.64L451.23,299.9L452,304" style="vector-effect: non-scaling-stroke; fill: none; stroke: rgb(200, 123, 124); stroke-opacity: 1; stroke-width: 2px; opacity: 1;"/></g><g class="points"/><g class="text"/></g><g class="trace scatter tracedc4f55" style="stroke-miterlimit: 2; opacity: 0.8;"><g class="fills"/><g class="errorbars"/><g class="lines"><path class="js-line" d="M0,16L0.88,31.18L0.93,31.19L2.84,41.58L2.89,41.67L7.9,57.79L7.95,57.87L9.19,60.87L9.24,60.92L19.66,76.52L19.71,76.53L20.74,78.05L20.8,78.12L23.07,79.81L23.12,79.89L24.1,80.93L24.15,80.98L25.49,82.37L25.54,82.42L27.5,84.7L27.56,84.72L32.1,88.58L32.15,88.68L34.63,90.92L34.68,90.92L37,93.06L37.05,93.07L39.43,95.44L39.48,95.65L41.75,97.67L41.8,97.79L46.6,102.4L46.65,102.42L47.99,103.63L48.04,103.69L50.16,105.26L50.21,105.33L52.84,107.23L52.89,107.37L54.8,108.87L54.86,108.95L55.42,109.47L55.47,109.8L64.04,115.96L64.09,116.03L66.78,118.4L66.83,118.45L68.38,119.64L68.43,119.67L69.67,120.81L69.72,121.02L71.47,122.09L71.52,122.21L72.76,123.62L72.81,123.72L81.38,131.85L81.43,131.87L97.48,142.99L97.53,142.99L103.16,146.18L103.21,146.5L105.17,147.86L105.22,147.87L109.09,149.73L109.14,149.87L113.89,153.38L113.94,153.47L115.23,154.44L115.28,154.45L129.22,163.2L129.27,163.21L130.61,164.14L130.66,164.14L143.05,171.07L143.1,171.07L144.34,171.73L144.39,171.78L159.66,178.14L159.71,178.14L169.78,181.38L169.83,181.44L182.27,184.69L182.32,184.71L193.21,187.63L193.26,187.66L203.78,191.75L203.84,191.76L208.48,193.41L208.53,193.41L251.36,208.91L251.42,208.92L253.58,209.73L253.63,209.73L274.28,216.82L274.33,217L284.75,221.06L284.8,221.07L289.03,222.58L289.09,222.66L296.88,225.98L296.93,225.98L300.08,227.13L300.13,227.16L301.94,227.96L301.99,228.06L307.2,229.86L307.25,229.88L311.38,231.41L311.43,231.43L315.82,232.98L315.87,233.04L319.53,234.01L319.58,234.04L324.69,235.78L324.74,235.78L335.37,238.98L335.43,239L345.39,242.26L345.44,242.34L347.91,243.49L347.97,243.52L353.08,245.3L353.13,245.35L356.58,246.14L356.64,246.16L360.14,247.14L360.2,247.17L365.87,248.68L365.92,248.7L371.14,250.17L371.19,250.18L373.61,250.91L373.67,250.91L388.68,256.29L388.73,256.35L391.52,257.37L391.57,257.38L402.56,262.79L402.61,262.8L418.15,271.23L418.2,271.33L424.5,276.38L424.55,276.38L433.32,282.17L433.37,282.24L434.92,283.69L434.97,283.7L445.24,291.79L445.29,292.03L450.76,299.56L450.81,299.75L451.74,302.47L451.79,302.77L452,304" style="vector-effect: non-scaling-stroke; fill: none; stroke: rgb(205, 162, 224); stroke-opacity: 1; stroke-width: 2px; opacity: 1;"/></g><g class="points"/><g class="text"/></g><g class="trace scatter tracee4eeb9" style="stroke-miterlimit: 2; opacity: 0.8;"><g class="fills"/><g class="errorbars"/><g class="lines"><path class="js-line" d="M0,16L1.14,24.78L1.19,24.79L4.64,33.23L4.7,33.65L6.14,36.32L6.19,36.54L10.22,45.96L10.27,45.97L16,55.09L16.05,55.09L19.09,58.94L19.15,58.94L25.54,67.43L25.6,67.45L28.02,71.02L28.07,71.05L30.19,73.23L30.24,73.26L32.61,75.99L32.67,75.99L33.8,77.44L33.85,77.57L34.83,78.8L34.88,78.85L36.64,80.73L36.69,80.75L38.24,82.65L38.29,82.68L39.37,84.12L39.43,84.35L41.03,85.82L41.08,86.13L43.14,87.9L43.19,87.93L45.72,90.78L45.77,90.95L46.8,92.39L46.86,92.41L48.71,94.12L48.77,94.15L56.56,101.63L56.61,101.64L59.29,103.64L59.34,103.69L61.41,105.09L61.46,105.21L63.63,106.67L63.68,106.71L84.01,118.35L84.06,118.44L87.16,120.12L87.21,120.21L88.81,121.06L88.86,121.09L92.99,122.87L93.04,122.92L94.38,123.56L94.44,123.7L100.78,127.44L100.83,127.45L104.24,130.09L104.29,130.1L108.32,133.22L108.37,133.26L111.52,135.72L111.57,135.82L113.37,137.72L113.43,137.78L115.34,140.11L115.39,140.32L117.35,141.69L117.4,141.7L118.28,142.28L118.33,142.3L119.36,143.34L119.41,143.34L121.06,145.04L121.11,145.18L121.94,146.24L121.99,146.34L122.77,147.15L122.82,147.2L126.02,149.88L126.07,149.92L128.49,151.84L128.55,151.86L135.41,156.96L135.46,156.97L136.39,157.47L136.44,157.49L137.73,158.47L137.78,158.68L156.57,173.83L156.62,173.84L158.84,175.83L158.89,175.83L160.9,177.57L160.95,177.66L169.83,185.01L169.88,185.01L172.15,187.07L172.2,187.13L173.54,188.19L173.6,188.26L175.76,189.9L175.82,189.96L179.01,192.25L179.07,192.31L182.47,194.7L182.52,194.86L185.98,196.95L186.03,197L189.34,198.6L189.39,198.66L191.97,199.96L192.02,199.97L210.03,208.73L210.08,208.73L214.16,210.59L214.21,210.61L242.75,221.61L242.8,221.62L247.29,223.19L247.34,223.19L267.05,230.36L267.1,230.36L278.66,234.21L278.71,234.21L294.66,239.82L294.71,239.88L300.59,241.35L300.65,241.38L302.45,241.99L302.5,241.99L308.33,243.73L308.39,243.81L311.59,244.76L311.64,244.78L317.11,246.18L317.16,246.18L319.22,246.78L319.27,246.79L322.27,247.64L322.32,247.64L326.71,248.97L326.76,249L355.76,256.03L355.81,256.03L364.84,258.26L364.89,258.27L381.82,262.13L381.87,262.2L401.17,267.8L401.22,267.85L413.76,272.42L413.81,272.53L420.32,274.96L420.37,274.97L422.95,275.88L423,275.92L430.22,278.94L430.27,278.94L443.69,285.79L443.74,285.94L446.84,288.84L446.89,288.84L448.18,290.48L448.23,290.55L450.61,295.88L450.66,296.44L451.38,298.23L451.43,298.97L452,304" style="vector-effect: non-scaling-stroke; fill: none; stroke: rgb(198, 225, 241); stroke-opacity: 1; stroke-width: 2px; opacity: 1;"/></g><g class="points"/><g class="text"/></g></g></g><g class="overplot"/><path class="xlines-above crisp" d="M79,420.5H532" style="fill: none; stroke-width: 1px; stroke: rgb(36, 36, 36); stroke-opacity: 1;"/><path class="ylines-above crisp" d="M79.5,100V420" style="fill: none; stroke-width: 1px; stroke: rgb(36, 36, 36); stroke-opacity: 1;"/><g class="overlines-above"/><g class="xaxislayer-above"><path class="xtick ticks crisp" d="M0,421v5" transform="translate(170.36,0)" style="stroke: rgb(68, 68, 68); stroke-opacity: 1; stroke-width: 1px;"/><path class="xtick ticks crisp" d="M0,421v5" transform="translate(260.77,0)" style="stroke: rgb(68, 68, 68); stroke-opacity: 1; stroke-width: 1px;"/><path class="xtick ticks crisp" d="M0,421v5" transform="translate(351.18,0)" style="stroke: rgb(68, 68, 68); stroke-opacity: 1; stroke-width: 1px;"/><path class="xtick ticks crisp" d="M0,421v5" transform="translate(441.59,0)" style="stroke: rgb(68, 68, 68); stroke-opacity: 1; stroke-width: 1px;"/><path class="xtick ticks crisp" d="M0,421v5" transform="translate(532,0)" style="stroke: rgb(68, 68, 68); stroke-opacity: 1; stroke-width: 1px;"/><g class="xtick"><text text-anchor="middle" x="0" y="440.4" transform="translate(170.36,0)" style="font-family: 'Open Sans', verdana, arial, sans-serif; font-size: 12px; fill: rgb(36, 36, 36); fill-opacity: 1; white-space: pre;">20%</text></g><g class="xtick"><text text-anchor="middle" x="0" y="440.4" transform="translate(260.77,0)" style="font-family: 'Open Sans', verdana, arial, sans-serif; font-size: 12px; fill: rgb(36, 36, 36); fill-opacity: 1; white-space: pre;">40%</text></g><g class="xtick"><text text-anchor="middle" x="0" y="440.4" transform="translate(351.18,0)" style="font-family: 'Open Sans', verdana, arial, sans-serif; font-size: 12px; fill: rgb(36, 36, 36); fill-opacity: 1; white-space: pre;">60%</text></g><g class="xtick"><text text-anchor="middle" x="0" y="440.4" transform="translate(441.59,0)" style="font-family: 'Open Sans', verdana, arial, sans-serif; font-size: 12px; fill: rgb(36, 36, 36); fill-opacity: 1; white-space: pre;">80%</text></g><g class="xtick"><text text-anchor="middle" x="0" y="440.4" transform="translate(532,0)" style="font-family: 'Open Sans', verdana, arial, sans-serif; font-size: 12px; fill: rgb(36, 36, 36); fill-opacity: 1; white-space: pre;">100%</text></g></g><g class="yaxislayer-above"><path class="ytick ticks crisp" d="M79,0h-5" transform="translate(0,404)" style="stroke: rgb(68, 68, 68); stroke-opacity: 1; stroke-width: 1px;"/><path class="ytick ticks crisp" d="M79,0h-5" transform="translate(0,260)" style="stroke: rgb(68, 68, 68); stroke-opacity: 1; stroke-width: 1px;"/><path class="ytick ticks crisp" d="M79,0h-5" transform="translate(0,116)" style="stroke: rgb(68, 68, 68); stroke-opacity: 1; stroke-width: 1px;"/><g class="ytick"><text text-anchor="end" x="71.6" y="4.199999999999999" transform="translate(0,404)" style="font-family: 'Open Sans', verdana, arial, sans-serif; font-size: 12px; fill: rgb(36, 36, 36); fill-opacity: 1; white-space: pre;">0</text></g><g class="ytick"><text text-anchor="end" x="71.6" y="4.199999999999999" transform="translate(0,260)" style="font-family: 'Open Sans', verdana, arial, sans-serif; font-size: 12px; fill: rgb(36, 36, 36); fill-opacity: 1; white-space: pre;">0.5</text></g><g class="ytick"><text text-anchor="end" x="71.6" y="4.199999999999999" transform="translate(0,116)" style="font-family: 'Open Sans', verdana, arial, sans-serif; font-size: 12px; fill: rgb(36, 36, 36); fill-opacity: 1; white-space: pre;">1</text></g></g><g class="overaxes-above"/></g></g><g class="polarlayer"/><g class="ternarylayer"/><g class="geolayer"/><g class="funnelarealayer"/><g class="pielayer"/><g class="treemaplayer"/><g class="sunburstlayer"/><g class="glimages"/><defs id="topdefs-b363da"><g class="clips"/><clipPath id="legendb363da"><rect width="145" height="124" x="1" y="1"/></clipPath></defs><g class="layer-above"><g class="imagelayer"/><g class="shapelayer"/></g><g class="infolayer"><g class="legend" pointer-events="all" transform="translate(541.04,100)"><rect class="bg" shape-rendering="crispEdges" width="146" height="125" x="0.5" y="0.5" style="stroke: rgb(232, 232, 232); stroke-opacity: 1; fill: rgb(255, 255, 255); fill-opacity: 1; stroke-width: 1px;"/><g class="scrollbox" transform="" clip-path="url('#legendb363da')"><g class="groups"><g class="traces" transform="translate(1,15.5)" style="opacity: 1;"><text class="legendtext" text-anchor="start" x="40" y="4.680000000000001" style="font-family: 'Open Sans', verdana, arial, sans-serif; font-size: 12px; fill: rgb(36, 36, 36); fill-opacity: 1; white-space: pre;">Achterhoek</text><g class="layers" style="opacity: 0.8;"><g class="legendfill"/><g class="legendlines"><path class="js-line" d="M5,0h30" style="fill: none; stroke: rgb(26, 36, 65); stroke-opacity: 1; stroke-width: 2px;"/></g><g class="legendsymbols"><g class="legendpoints"/></g></g><rect class="legendtoggle" x="0" y="-9.5" width="139.8125" height="19" style="fill: rgb(0, 0, 0); fill-opacity: 0;"/></g><g class="traces" transform="translate(1,34.5)" style="opacity: 1;"><text class="legendtext" text-anchor="start" x="40" y="4.680000000000001" style="font-family: 'Open Sans', verdana, arial, sans-serif; font-size: 12px; fill: rgb(36, 36, 36); fill-opacity: 1; white-space: pre;">ArnhemNijmegen</text><g class="layers" style="opacity: 0.8;"><g class="legendfill"/><g class="legendlines"><path class="js-line" d="M5,0h30" style="fill: none; stroke: rgb(27, 97, 69); stroke-opacity: 1; stroke-width: 2px;"/></g><g class="legendsymbols"><g class="legendpoints"/></g></g><rect class="legendtoggle" x="0" y="-9.5" width="139.8125" height="19" style="fill: rgb(0, 0, 0); fill-opacity: 0;"/></g><g class="traces" transform="translate(1,53.5)" style="opacity: 1;"><text class="legendtext" text-anchor="start" x="40" y="4.680000000000001" style="font-family: 'Open Sans', verdana, arial, sans-serif; font-size: 12px; fill: rgb(36, 36, 36); fill-opacity: 1; white-space: pre;">Cleantech</text><g class="layers" style="opacity: 0.8;"><g class="legendfill"/><g class="legendlines"><path class="js-line" d="M5,0h30" style="fill: none; stroke: rgb(105, 123, 48); stroke-opacity: 1; stroke-width: 2px;"/></g><g class="legendsymbols"><g class="legendpoints"/></g></g><rect class="legendtoggle" x="0" y="-9.5" width="139.8125" height="19" style="fill: rgb(0, 0, 0); fill-opacity: 0;"/></g><g class="traces" transform="translate(1,72.5)" style="opacity: 1;"><text class="legendtext" text-anchor="start" x="40" y="4.680000000000001" style="font-family: 'Open Sans', verdana, arial, sans-serif; font-size: 12px; fill: rgb(36, 36, 36); fill-opacity: 1; white-space: pre;">Foodvalley </text><g class="layers" style="opacity: 0.8;"><g class="legendfill"/><g class="legendlines"><path class="js-line" d="M5,0h30" style="fill: none; stroke: rgb(200, 123, 124); stroke-opacity: 1; stroke-width: 2px;"/></g><g class="legendsymbols"><g class="legendpoints"/></g></g><rect class="legendtoggle" x="0" y="-9.5" width="139.8125" height="19" style="fill: rgb(0, 0, 0); fill-opacity: 0;"/></g><g class="traces" transform="translate(1,91.5)" style="opacity: 1;"><text class="legendtext" text-anchor="start" x="40" y="4.680000000000001" style="font-family: 'Open Sans', verdana, arial, sans-serif; font-size: 12px; fill: rgb(36, 36, 36); fill-opacity: 1; white-space: pre;">NoordVeluwe</text><g class="layers" style="opacity: 0.8;"><g class="legendfill"/><g class="legendlines"><path class="js-line" d="M5,0h30" style="fill: none; stroke: rgb(205, 162, 224); stroke-opacity: 1; stroke-width: 2px;"/></g><g class="legendsymbols"><g class="legendpoints"/></g></g><rect class="legendtoggle" x="0" y="-9.5" width="139.8125" height="19" style="fill: rgb(0, 0, 0); fill-opacity: 0;"/></g><g class="traces" transform="translate(1,110.5)" style="opacity: 1;"><text class="legendtext" text-anchor="start" x="40" y="4.680000000000001" style="font-family: 'Open Sans', verdana, arial, sans-serif; font-size: 12px; fill: rgb(36, 36, 36); fill-opacity: 1; white-space: pre;">Rivierenland</text><g class="layers" style="opacity: 0.8;"><g class="legendfill"/><g class="legendlines"><path class="js-line" d="M5,0h30" style="fill: none; stroke: rgb(198, 225, 241); stroke-opacity: 1; stroke-width: 2px;"/></g><g class="legendsymbols"><g class="legendpoints"/></g></g><rect class="legendtoggle" x="0" y="-9.5" width="139.8125" height="19" style="fill: rgb(0, 0, 0); fill-opacity: 0;"/></g></g></g><rect class="scrollbar" rx="20" ry="3" width="0" height="0" x="0" y="0" style="fill: rgb(128, 139, 164); fill-opacity: 1;"/></g><g class="g-gtitle"/><g class="g-xtitle"><text class="xtitle" x="306" y="469.20625" text-anchor="middle" style="font-family: 'Open Sans', verdana, arial, sans-serif; font-size: 14px; fill: rgb(36, 36, 36); opacity: 1; font-weight: normal; white-space: pre;"><tspan style="font-weight:bold">Cumulative duration</tspan></text></g><g class="g-ytitle"><text class="ytitle" transform="rotate(-90,29.871875000000003,260)" x="29.871875000000003" y="260" text-anchor="middle" style="font-family: 'Open Sans', verdana, arial, sans-serif; font-size: 14px; fill: rgb(36, 36, 36); opacity: 1; font-weight: normal; white-space: pre;"><tspan style="font-weight:bold">Normalized power</tspan></text></g></g></svg>