<svg class="main-svg" xmlns="http://www.w3.org/2000/svg" xmlns:xlink="http://www.w3.org/1999/xlink" width="700" height="500" style="" viewBox="0 0 700 500"><rect x="0" y="0" width="700" height="500" style="fill: rgb(255, 255, 255); fill-opacity: 1;"/><defs id="defs-ba3d1d"><g class="clips"><clipPath id="clipba3d1dxyplot" class="plotclip"><rect width="440" height="320"/></clipPath><clipPath class="axesclip" id="clipba3d1dx"><rect x="92" y="0" width="440" height="500"/></clipPath><clipPath class="axesclip" id="clipba3d1dy"><rect x="0" y="100" width="700" height="320"/></clipPath><clipPath class="axesclip" id="clipba3d1dxy"><rect x="92" y="100" width="440" height="320"/></clipPath></g><g class="gradients"/></defs><g class="bglayer"/><g class="layer-below"><g class="imagelayer"/><g class="shapelayer"/></g><g class="cartesianlayer"><g class="subplot xy"><g class="layer-subplot"><g class="shapelayer"/><g class="imagelayer"/></g><g class="gridlayer"><g class="x"/><g class="y"/></g><g class="zerolinelayer"/><path class="xlines-below"/><path class="ylines-below"/><g class="overlines-below"/><g class="xaxislayer-below"/><g class="yaxislayer-below"/><g class="overaxes-below"/><g class="plot" transform="translate(92,100)" clip-path="url('#clipba3d1dxyplot')"><g class="scatterlayer mlayer"><g class="trace scatter trace660c90" style="stroke-miterlimit: 2; opacity: 0.8;"><g class="fills"/><g class="errorbars"/><g class="lines"><path class="js-line" d="M0,209.67L1,213.99L1.05,214.07L2.71,216.13L2.76,216.15L4.12,217.14L4.17,217.16L5.78,217.97L5.83,217.97L7.48,218.79L7.54,218.86L12.91,220.68L12.96,220.71L16.78,222.14L16.83,222.15L28.58,225.25L28.63,225.28L32.55,226.55L32.6,226.58L39.68,228.27L39.74,228.29L42.75,229.03L42.8,229.05L51.14,230.91L51.19,230.92L54.86,231.89L54.91,231.92L59.38,233.19L59.43,233.19L62.39,233.92L62.44,233.92L80.93,238.08L80.98,238.08L92.23,240.33L92.28,240.35L99.61,242.01L99.66,242.01L138.09,248.75L138.14,248.75L157.68,250.8L157.73,250.81L165.12,251.55L165.17,251.59L180.09,253.3L180.14,253.33L238.31,260.77L238.36,260.77L253.58,262.52L253.63,262.54L269.46,264.34L269.51,264.35L277.64,265.1L277.69,265.11L313.36,269.13L313.41,269.13L332.15,270.88L332.2,270.88L353.8,273.06L353.85,273.08L365.5,274.65L365.55,274.65L371.83,275.55L371.88,275.56L406.19,280.84L406.24,280.85L415.89,282.24L415.94,282.25L438.74,287.25L438.79,287.35L439.85,288.63L439.9,288.7L440,288.94" style="vector-effect: non-scaling-stroke; fill: none; stroke: rgb(26, 36, 65); stroke-opacity: 1; stroke-width: 2px; opacity: 1;"/></g><g class="points"/><g class="text"/></g><g class="trace scatter traceca76df" style="stroke-miterlimit: 2; opacity: 0.8;"><g class="fills"/><g class="errorbars"/><g class="lines"><path class="js-line" d="M0,16L0.9,26.85L0.95,27.08L2.31,32.04L2.36,32.38L4.87,38.35L4.92,38.44L6.23,40.98L6.28,41.06L14.07,49.24L14.12,49.26L16.43,51.59L16.48,51.6L20.75,54.66L20.8,54.76L28.78,59.55L28.83,59.55L31.8,61.05L31.85,61.13L33.76,62.71L33.81,62.71L35.62,63.91L35.67,64.02L37.73,65.18L37.78,65.22L39.43,66.3L39.48,66.35L44.31,69.65L44.36,69.72L46.37,70.91L46.42,70.92L50.38,72.91L50.43,72.93L54.25,75.15L54.3,75.2L92.63,97.74L92.68,97.75L97.1,99.54L97.15,99.55L132.42,113.48L132.47,113.48L140.05,115.74L140.1,115.78L143.17,116.57L143.22,116.57L146.58,117.54L146.63,117.55L153.01,119.15L153.06,119.18L157.23,120.48L157.28,120.5L182.3,127.88L182.35,127.94L186.02,129.17L186.07,129.21L189.63,130.4L189.68,130.48L192.9,131.63L192.95,131.7L202.85,134.88L202.9,134.88L252.48,148.79L252.53,148.86L267.04,152.92L267.09,152.92L270.76,154.35L270.81,154.35L314.41,165.31L314.47,165.31L342.5,171.63L342.55,171.69L350.94,174.79L350.99,174.8L356.16,176.58L356.21,176.61L358.92,177.52L358.97,177.57L364.7,179.46L364.75,179.47L379.27,183.65L379.32,183.66L391.32,187.57L391.37,187.61L397.9,190.54L397.95,190.61L408.65,194.94L408.7,194.94L429.3,203.65L429.35,203.74L431.16,204.94L431.21,205.03L432.82,205.81L432.87,205.81L437.54,209.44L437.59,209.44L439.95,214.35L440,214.83" style="vector-effect: non-scaling-stroke; fill: none; stroke: rgb(27, 97, 69); stroke-opacity: 1; stroke-width: 2px; opacity: 1;"/></g><g class="points"/><g class="text"/></g><g class="trace scatter trace9479be" style="stroke-miterlimit: 2; opacity: 0.8;"><g class="fills"/><g class="errorbars"/><g class="lines"><path class="js-line" d="M0,166.24L0.9,171.3L0.95,171.43L2.26,174.22L2.31,174.24L3.92,176.71L3.97,176.82L10.8,181.52L10.85,181.53L13.31,182.6L13.36,182.64L18.79,185.16L18.84,185.24L26.52,188.05L26.57,188.09L30.69,189.11L30.74,189.12L39.89,192.6L39.94,192.61L44.16,194.03L44.21,194.03L61.94,199.52L61.99,199.6L69.12,201.76L69.17,201.76L74.3,203.37L74.35,203.37L76.21,203.99L76.26,204L81.78,205.49L81.83,205.5L85.45,206.59L85.5,206.59L90.72,208.02L90.77,208.05L94.64,209.03L94.69,209.04L109.21,212.67L109.26,212.69L114.63,214.05L114.68,214.05L117.55,214.65L117.6,214.65L148.04,220.2L148.09,220.2L163.01,221.94L163.06,221.95L226.61,231.09L226.66,231.11L238.46,232.64L238.51,232.65L244.49,233.47L244.54,233.47L348.93,247.02L348.98,247.02L392.33,253.16L392.38,253.2L406.75,256.26L406.8,256.26L426.34,260.7L426.39,260.7L430,261.93L430.05,261.98L436.58,264.41L436.63,264.47L439.7,266.68L439.75,266.8L440,267.63" style="vector-effect: non-scaling-stroke; fill: none; stroke: rgb(105, 123, 48); stroke-opacity: 1; stroke-width: 2px; opacity: 1;"/></g><g class="points"/><g class="text"/></g><g class="trace scatter trace3a4d30" style="stroke-miterlimit: 2; opacity: 0.8;"><g class="fills"/><g class="errorbars"/><g class="lines"><path class="js-line" d="M0,192.38L1.11,197.29L1.16,197.3L2.46,198.98L2.51,199.13L6.68,201.81L6.73,201.92L23.51,208.05L23.56,208.06L29.04,209.79L29.09,209.79L47.92,215.36L47.97,215.37L55.11,217.53L55.16,217.58L74.25,223.17L74.3,223.17L108.76,231.84L108.81,231.84L124.33,234.63L124.38,234.66L133.87,236.04L133.92,236.05L174.81,242.04L174.86,242.11L195.56,245.45L195.61,245.46L323.66,262.22L323.71,262.22L356.66,265.86L356.71,265.86L371.33,267.58L371.38,267.6L383.64,269.15L383.69,269.17L397.4,271.73L397.45,271.76L403.93,272.93L403.98,272.95L415.49,275.22L415.54,275.25L428.25,277.67L428.3,277.71L432.31,278.69L432.36,278.75L439.2,281.86L439.25,281.94L440,283.24" style="vector-effect: non-scaling-stroke; fill: none; stroke: rgb(200, 123, 124); stroke-opacity: 1; stroke-width: 2px; opacity: 1;"/></g><g class="points"/><g class="text"/></g><g class="trace scatter traceb5b399" style="stroke-miterlimit: 2; opacity: 0.8;"><g class="fills"/><g class="errorbars"/><g class="lines"><path class="js-line" d="M0,255.78L0.9,258.32L0.95,258.39L2.46,259.84L2.51,259.86L6.18,262.08L6.23,262.08L23.96,266.72L24.01,266.72L44.31,270.1L44.36,270.1L48.33,270.64L48.38,270.64L54.6,271.55L54.65,271.55L68.87,273.46L68.92,273.46L83.84,275.68L83.89,275.68L119.1,279.7L119.16,279.7L141.61,281.95L141.66,281.95L218.92,286.46L218.97,286.46L229.62,287.13L229.67,287.13L350.83,294.49L350.88,294.49L405.09,298.32L405.14,298.34L420.21,300.07L420.26,300.09L431.06,301.54L431.11,301.57L437.19,302.81L437.24,302.82L440,304" style="vector-effect: non-scaling-stroke; fill: none; stroke: rgb(205, 162, 224); stroke-opacity: 1; stroke-width: 2px; opacity: 1;"/></g><g class="points"/><g class="text"/></g><g class="trace scatter tracebdf115" style="stroke-miterlimit: 2; opacity: 0.8;"><g class="fills"/><g class="errorbars"/><g class="lines"><path class="js-line" d="M0,111.1L1.11,115.86L1.16,115.86L3.97,119.63L4.02,119.67L11.96,129.34L12.01,129.35L13.51,130.85L13.56,130.87L15.17,132.11L15.22,132.11L16.68,133.12L16.73,133.19L21.8,137.01L21.85,137.06L23.56,138.2L23.61,138.2L32.4,143.85L32.45,143.86L34.46,145.46L34.51,145.5L47.72,153.55L47.77,153.56L56.41,158.06L56.46,158.07L62.49,160.44L62.54,160.47L71.73,163.34L71.78,163.35L78.77,165.37L78.82,165.44L105.44,174.6L105.49,174.63L108.71,176.02L108.76,176.06L110.72,177.18L110.77,177.23L115.69,179.81L115.74,179.82L119.21,181.98L119.26,182.06L132.97,187.77L133.02,187.77L137.89,190.43L137.94,190.46L143.77,193.14L143.82,193.21L148.44,194.88L148.49,195L150.65,195.88L150.7,195.97L153.72,197.33L153.77,197.35L156.48,198.56L156.53,198.57L159.84,200.08L159.89,200.09L174.11,206.52L174.16,206.54L182.15,209.48L182.2,209.48L187.72,210.97L187.77,210.98L192.95,212.36L193,212.4L204.95,215.6L205.01,215.6L210.28,216.93L210.33,216.94L218.72,218.8L218.77,218.82L223.49,219.88L223.54,219.91L233.09,221.93L233.14,221.95L239.11,223.08L239.16,223.1L294.32,233.51L294.37,233.51L320.44,237.69L320.49,237.71L332.2,239.24L332.25,239.26L343.4,240.75L343.45,240.76L392.78,247.96L392.83,247.98L406.14,250.76L406.19,250.76L412.07,251.96L412.12,251.96L415.54,252.73L415.59,252.74L420.46,253.89L420.51,253.89L426.49,255.4L426.54,255.5L432.92,257.91L432.97,257.98L435.83,259.46L435.88,259.55L438.19,262.06L438.24,262.14L439.35,263.77L439.4,263.99L440,267.12" style="vector-effect: non-scaling-stroke; fill: none; stroke: rgb(198, 225, 241); stroke-opacity: 1; stroke-width: 2px; opacity: 1;"/></g><g class="points"/><g class="text"/></g></g></g><g class="overplot"/><path class="xlines-above crisp" d="M91,420.5H532" style="fill: none; stroke-width: 1px; stroke: rgb(36, 36, 36); stroke-opacity: 1;"/><path class="ylines-above crisp" d="M91.5,100V420" style="fill: none; stroke-width: 1px; stroke: rgb(36, 36, 36); stroke-opacity: 1;"/><g class="overlines-above"/><g class="xaxislayer-above"><path class="xtick ticks crisp" d="M0,421v5" transform="translate(179.95999999999998,0)" style="stroke: rgb(68, 68, 68); stroke-opacity: 1; stroke-width: 1px;"/><path class="xtick ticks crisp" d="M0,421v5" transform="translate(267.97,0)" style="stroke: rgb(68, 68, 68); stroke-opacity: 1; stroke-width: 1px;"/><path class="xtick ticks crisp" d="M0,421v5" transform="translate(355.98,0)" style="stroke: rgb(68, 68, 68); stroke-opacity: 1; stroke-width: 1px;"/><path class="xtick ticks crisp" d="M0,421v5" transform="translate(443.99,0)" style="stroke: rgb(68, 68, 68); stroke-opacity: 1; stroke-width: 1px;"/><path class="xtick ticks crisp" d="M0,421v5" transform="translate(532,0)" style="stroke: rgb(68, 68, 68); stroke-opacity: 1; stroke-width: 1px;"/><g class="xtick"><text text-anchor="middle" x="0" y="440.4" transform="translate(179.95999999999998,0)" style="font-family: 'Open Sans', verdana, arial, sans-serif; font-size: 12px; fill: rgb(36, 36, 36); fill-opacity: 1; white-space: pre;">20%</text></g><g class="xtick"><text text-anchor="middle" x="0" y="440.4" transform="translate(267.97,0)" style="font-family: 'Open Sans', verdana, arial, sans-serif; font-size: 12px; fill: rgb(36, 36, 36); fill-opacity: 1; white-space: pre;">40%</text></g><g class="xtick"><text text-anchor="middle" x="0" y="440.4" transform="translate(355.98,0)" style="font-family: 'Open Sans', verdana, arial, sans-serif; font-size: 12px; fill: rgb(36, 36, 36); fill-opacity: 1; white-space: pre;">60%</text></g><g class="xtick"><text text-anchor="middle" x="0" y="440.4" transform="translate(443.99,0)" style="font-family: 'Open Sans', verdana, arial, sans-serif; font-size: 12px; fill: rgb(36, 36, 36); fill-opacity: 1; white-space: pre;">80%</text></g><g class="xtick"><text text-anchor="middle" x="0" y="440.4" transform="translate(532,0)" style="font-family: 'Open Sans', verdana, arial, sans-serif; font-size: 12px; fill: rgb(36, 36, 36); fill-opacity: 1; white-space: pre;">100%</text></g></g><g class="yaxislayer-above"><path class="ytick ticks crisp" d="M91,0h-5" transform="translate(0,348.07)" style="stroke: rgb(68, 68, 68); stroke-opacity: 1; stroke-width: 1px;"/><path class="ytick ticks crisp" d="M91,0h-5" transform="translate(0,261.9)" style="stroke: rgb(68, 68, 68); stroke-opacity: 1; stroke-width: 1px;"/><path class="ytick ticks crisp" d="M91,0h-5" transform="translate(0,175.73000000000002)" style="stroke: rgb(68, 68, 68); stroke-opacity: 1; stroke-width: 1px;"/><g class="ytick"><text text-anchor="end" x="83.6" y="4.199999999999999" transform="translate(0,348.07)" style="font-family: 'Open Sans', verdana, arial, sans-serif; font-size: 12px; fill: rgb(36, 36, 36); fill-opacity: 1; white-space: pre;">200 MW</text></g><g class="ytick"><text text-anchor="end" x="83.6" y="4.199999999999999" transform="translate(0,261.9)" style="font-family: 'Open Sans', verdana, arial, sans-serif; font-size: 12px; fill: rgb(36, 36, 36); fill-opacity: 1; white-space: pre;">400 MW</text></g><g class="ytick"><text text-anchor="end" x="83.6" y="4.199999999999999" transform="translate(0,175.73000000000002)" style="font-family: 'Open Sans', verdana, arial, sans-serif; font-size: 12px; fill: rgb(36, 36, 36); fill-opacity: 1; white-space: pre;">600 MW</text></g></g><g class="overaxes-above"/></g></g><g class="polarlayer"/><g class="ternarylayer"/><g class="geolayer"/><g class="funnelarealayer"/><g class="pielayer"/><g class="treemaplayer"/><g class="sunburstlayer"/><g class="glimages"/><defs id="topdefs-ba3d1d"><g class="clips"/><clipPath id="legendba3d1d"><rect width="145" height="124" x="1" y="1"/></clipPath></defs><g class="layer-above"><g class="imagelayer"/><g class="shapelayer"/></g><g class="infolayer"><g class="legend" pointer-events="all" transform="translate(540.8,100)"><rect class="bg" shape-rendering="crispEdges" width="146" height="125" x="0.5" y="0.5" style="stroke: rgb(232, 232, 232); stroke-opacity: 1; fill: rgb(255, 255, 255); fill-opacity: 1; stroke-width: 1px;"/><g class="scrollbox" transform="" clip-path="url('#legendba3d1d')"><g class="groups"><g class="traces" transform="translate(1,15.5)" style="opacity: 1;"><text class="legendtext" text-anchor="start" x="40" y="4.680000000000001" style="font-family: 'Open Sans', verdana, arial, sans-serif; font-size: 12px; fill: rgb(36, 36, 36); fill-opacity: 1; white-space: pre;">Achterhoek</text><g class="layers" style="opacity: 0.8;"><g class="legendfill"/><g class="legendlines"><path class="js-line" d="M5,0h30" style="fill: none; stroke: rgb(26, 36, 65); stroke-opacity: 1; stroke-width: 2px;"/></g><g class="legendsymbols"><g class="legendpoints"/></g></g><rect class="legendtoggle" x="0" y="-9.5" width="139.8125" height="19" style="fill: rgb(0, 0, 0); fill-opacity: 0;"/></g><g class="traces" transform="translate(1,34.5)" style="opacity: 1;"><text class="legendtext" text-anchor="start" x="40" y="4.680000000000001" style="font-family: 'Open Sans', verdana, arial, sans-serif; font-size: 12px; fill: rgb(36, 36, 36); fill-opacity: 1; white-space: pre;">ArnhemNijmegen</text><g class="layers" style="opacity: 0.8;"><g class="legendfill"/><g class="legendlines"><path class="js-line" d="M5,0h30" style="fill: none; stroke: rgb(27, 97, 69); stroke-opacity: 1; stroke-width: 2px;"/></g><g class="legendsymbols"><g class="legendpoints"/></g></g><rect class="legendtoggle" x="0" y="-9.5" width="139.8125" height="19" style="fill: rgb(0, 0, 0); fill-opacity: 0;"/></g><g class="traces" transform="translate(1,53.5)" style="opacity: 1;"><text class="legendtext" text-anchor="start" x="40" y="4.680000000000001" style="font-family: 'Open Sans', verdana, arial, sans-serif; font-size: 12px; fill: rgb(36, 36, 36); fill-opacity: 1; white-space: pre;">Cleantech</text><g class="layers" style="opacity: 0.8;"><g class="legendfill"/><g class="legendlines"><path class="js-line" d="M5,0h30" style="fill: none; stroke: rgb(105, 123, 48); stroke-opacity: 1; stroke-width: 2px;"/></g><g class="legendsymbols"><g class="legendpoints"/></g></g><rect class="legendtoggle" x="0" y="-9.5" width="139.8125" height="19" style="fill: rgb(0, 0, 0); fill-opacity: 0;"/></g><g class="traces" transform="translate(1,72.5)" style="opacity: 1;"><text class="legendtext" text-anchor="start" x="40" y="4.680000000000001" style="font-family: 'Open Sans', verdana, arial, sans-serif; font-size: 12px; fill: rgb(36, 36, 36); fill-opacity: 1; white-space: pre;">Foodvalley </text><g class="layers" style="opacity: 0.8;"><g class="legendfill"/><g class="legendlines"><path class="js-line" d="M5,0h30" style="fill: none; stroke: rgb(200, 123, 124); stroke-opacity: 1; stroke-width: 2px;"/></g><g class="legendsymbols"><g class="legendpoints"/></g></g><rect class="legendtoggle" x="0" y="-9.5" width="139.8125" height="19" style="fill: rgb(0, 0, 0); fill-opacity: 0;"/></g><g class="traces" transform="translate(1,91.5)" style="opacity: 1;"><text class="legendtext" text-anchor="start" x="40" y="4.680000000000001" style="font-family: 'Open Sans', verdana, arial, sans-serif; font-size: 12px; fill: rgb(36, 36, 36); fill-opacity: 1; white-space: pre;">NoordVeluwe</text><g class="layers" style="opacity: 0.8;"><g class="legendfill"/><g class="legendlines"><path class="js-line" d="M5,0h30" style="fill: none; stroke: rgb(205, 162, 224); stroke-opacity: 1; stroke-width: 2px;"/></g><g class="legendsymbols"><g class="legendpoints"/></g></g><rect class="legendtoggle" x="0" y="-9.5" width="139.8125" height="19" style="fill: rgb(0, 0, 0); fill-opacity: 0;"/></g><g class="traces" transform="translate(1,110.5)" style="opacity: 1;"><text class="legendtext" text-anchor="start" x="40" y="4.680000000000001" style="font-family: 'Open Sans', verdana, arial, sans-serif; font-size: 12px; fill: rgb(36, 36, 36); fill-opacity: 1; white-space: pre;">Rivierenland</text><g class="layers" style="opacity: 0.8;"><g class="legendfill"/><g class="legendlines"><path class="js-line" d="M5,0h30" style="fill: none; stroke: rgb(198, 225, 241); stroke-opacity: 1; stroke-width: 2px;"/></g><g class="legendsymbols"><g class="legendpoints"/></g></g><rect class="legendtoggle" x="0" y="-9.5" width="139.8125" height="19" style="fill: rgb(0, 0, 0); fill-opacity: 0;"/></g></g></g><rect class="scrollbar" rx="20" ry="3" width="0" height="0" x="0" y="0" style="fill: rgb(128, 139, 164); fill-opacity: 1;"/></g><g class="g-gtitle"/><g class="g-xtitle"><text class="xtitle" x="312" y="469.20625" text-anchor="middle" style="font-family: 'Open Sans', verdana, arial, sans-serif; font-size: 14px; fill: rgb(36, 36, 36); opacity: 1; font-weight: normal; white-space: pre;"><tspan style="font-weight:bold">Cumulative duration</tspan></text></g><g class="g-ytitle" transform="translate(2.8466796875,0)"><text class="ytitle" transform="rotate(-90,12.153125000000003,260)" x="12.153125000000003" y="260" text-anchor="middle" style="font-family: 'Open Sans', verdana, arial, sans-serif; font-size: 14px; fill: rgb(36, 36, 36); opacity: 1; font-weight: normal; white-space: pre;"><tspan style="font-weight:bold">Power</tspan></text></g></g></svg>