<?xml version="1.0" encoding="utf-8"?>
<!-- Generator: Adobe Illustrator 24.1.2, SVG Export Plug-In . SVG Version: 6.00 Build 0)  -->
<svg version="1.1" id="Layer_1" xmlns="http://www.w3.org/2000/svg" xmlns:xlink="http://www.w3.org/1999/xlink" x="0px" y="0px"
	 viewBox="0 0 700 500" style="enable-background:new 0 0 700 500;" xml:space="preserve">
<style type="text/css">
	.st0{fill-opacity:0;}
	.st1{clip-path:url(#SVGID_2_);}
	.st2{opacity:0.8;fill:#7FC78F;stroke:#E5ECF6;stroke-width:0.5;enable-background:new    ;}
	.st3{opacity:0.8;fill:#46B3AF;stroke:#E5ECF6;stroke-width:0.5;enable-background:new    ;}
	.st4{fill:none;}
	.st5{fill:#2A3F5F;}
	.st6{font-family:'Poppins-Medium';}
	.st7{font-size:12px;}
	.st8{clip-path:url(#SVGID_4_);}
	.st9{font-family:'Poppins-Regular';}
	.st10{fill:#7FC78F;stroke:#E5ECF6;stroke-width:0.5;}
	.st11{fill:#46B3AF;stroke:#E5ECF6;stroke-width:0.5;}
	.st12{fill:#808BA4;}
</style>
<g>
	<rect x="20" y="20" class="st0" width="660" height="399"/>
</g>
<g>
	<g>
		<path class="st0" d="M0,0"/>
		<path class="st0" d="M0,0"/>
		<g>
			<defs>
				<rect id="SVGID_1_" x="20" y="20" width="660" height="399"/>
			</defs>
			<clipPath id="SVGID_2_">
				<use xlink:href="#SVGID_1_"  style="overflow:visible;"/>
			</clipPath>
			<g transform="translate(20,20)" class="st1">
				<g>
					<g>
						<g>
							<g>
								<path class="st2" d="M11,399v-42.7h44V399H11z"/>
							</g>
							<g>
								<path class="st2" d="M121,399V258.7h44V399H121z"/>
							</g>
							<g>
								<path class="st2" d="M231,399V256.2h44V399H231z"/>
							</g>
							<g>
								<path class="st2" d="M341,399v-65.7h44V399H341z"/>
							</g>
							<g>
								<path class="st2" d="M451,399v-35h44v35H451z"/>
							</g>
							<g>
								<path class="st2" d="M561,399V90.1h44V399H561z"/>
							</g>
						</g>
					</g>
					<g>
						<g>
							<g>
								<path class="st3" d="M55,399V236.9h44V399H55z"/>
							</g>
							<g>
								<path class="st3" d="M165,399V19.9h44V399H165z"/>
							</g>
							<g>
								<path class="st3" d="M275,399V208h44v191H275z"/>
							</g>
							<g>
								<path class="st3" d="M385,399V229.2h44V399H385z"/>
							</g>
							<g>
								<path class="st3" d="M495,399v-88.2h44V399H495z"/>
							</g>
							<g>
								<path class="st3" d="M605,399V219.5h44V399H605z"/>
							</g>
						</g>
					</g>
				</g>
			</g>
		</g>
		<path class="st4" d="M0,0"/>
		<path class="st4" d="M0,0"/>
		<g>
			<g>
				<text transform="matrix(1 0 0 1 42.9082 432)" class="st5 st6 st7">Achterhoek</text>
			</g>
			<g>
				<text transform="matrix(1 0 0 1 135.5996 432)" class="st5 st6 st7">ArnhemNijmegen</text>
			</g>
			<g>
				<text transform="matrix(1 0 0 1 267.2881 432)" class="st5 st6 st7">Cleantech</text>
			</g>
			<g>
				<text transform="matrix(1 0 0 1 375.2109 432)" class="st5 st6 st7">Foodvalley</text>
			</g>
			<g>
				<text transform="matrix(1 0 0 1 476.9316 432)" class="st5 st6 st7">NoordVeluwe</text>
			</g>
			<g>
				<text transform="matrix(1 0 0 1 590.1719 432)" class="st5 st6 st7">Rivierenland</text>
			</g>
		</g>
	</g>
</g>
<g>
	<g transform="translate(20,458.90000000000003)" pointer-events="all">
		<rect x="85.5" y="0" shape-rendering="crispEdges" class="st0" width="489" height="29"/>
		<g>
			<defs>
				<rect id="SVGID_3_" x="85.5" y="0" width="489" height="29"/>
			</defs>
			<clipPath id="SVGID_4_">
				<use xlink:href="#SVGID_3_"  style="overflow:visible;"/>
			</clipPath>
			<g transform="" class="st8">
				<g>
					<g transform="translate(0,14.5)">
						<text transform="matrix(1 0 0 1 125.5 4.68)" class="st5 st9 st7">Lithium storage capacity (MWh)</text>
						<g>
							<g>
								<g>
									<path class="st10" d="M111.5,6h-12V-6h12V6z"/>
								</g>
							</g>
						</g>
						<rect x="85.5" y="-9.5" class="st0" width="235" height="19"/>
					</g>
					<g transform="translate(237.453125,14.5)">
						<text transform="matrix(1 0 0 1 125.5 4.68)" class="st5 st9 st7">Hydrogen storage capacity (MWh)</text>
						<g>
							<g>
								<g>
									<path class="st11" d="M111.5,6h-12V-6h12V6z"/>
								</g>
							</g>
						</g>
						<rect x="85.5" y="-9.5" class="st0" width="248.3" height="19"/>
					</g>
				</g>
			</g>
		</g>
		<polygon class="st12" points="85.5,0 85.5,0 85.5,0 85.5,0 85.5,0 85.5,0 85.5,0 85.5,0 		"/>
	</g>
</g>
</svg>
