<?xml version="1.0" encoding="utf-8" standalone="no"?>
<!DOCTYPE svg PUBLIC "-//W3C//DTD SVG 1.1//EN"
  "http://www.w3.org/Graphics/SVG/1.1/DTD/svg11.dtd">
<svg height="360pt" version="1.1" viewBox="0 0 360 360" width="360pt" xmlns="http://www.w3.org/2000/svg" xmlns:xlink="http://www.w3.org/1999/xlink">
 <metadata>
  <rdf:RDF xmlns:cc="http://creativecommons.org/ns#" xmlns:dc="http://purl.org/dc/elements/1.1/" xmlns:rdf="http://www.w3.org/1999/02/22-rdf-syntax-ns#">
   <cc:Work>
    <dc:type rdf:resource="http://purl.org/dc/dcmitype/StillImage"/>
    <dc:date>2021-12-07T21:24:06.909225</dc:date>
    <dc:format>image/svg+xml</dc:format>
    <dc:creator>
     <cc:Agent>
      <dc:title>Matplotlib v3.4.2, https://matplotlib.org/</dc:title>
     </cc:Agent>
    </dc:creator>
   </cc:Work>
  </rdf:RDF>
 </metadata>
 <defs>
  <style type="text/css">*{stroke-linecap:butt;stroke-linejoin:round;}</style>
 </defs>
 <g id="figure_1">
  <g id="patch_1">
   <path d="M 0 360 
L 360 360 
L 360 0 
L 0 0 
z
" style="fill:none;"/>
  </g>
  <g id="axes_1">
   <g id="PatchCollection_1">
    <path clip-path="url(#p8787ba82b4)" d="M 301.491668 171.877517 
L 304.903161 177.428545 
L 308.21239 174.648632 
L 315.145385 177.193468 
L 315.378055 183.64517 
L 313.14535 187.0876 
L 322.2941 190.84865 
L 329.949894 191.048435 
L 328.738428 197.612167 
L 326.85184 198.132688 
L 327.473584 201.010007 
L 325.058918 203.241331 
L 317.944077 204.279266 
L 316.354245 209.059835 
L 316.384103 212.627325 
L 320.932641 212.77476 
L 327.505353 216.347468 
L 336.578924 226.149129 
L 339.818182 226.695521 
L 339.790974 234.965492 
L 334.586069 236.245027 
L 333.450138 242.787653 
L 329.058969 247.961738 
L 320.467348 253.238803 
L 316.099767 247.473478 
L 312.535159 247.29172 
L 292.285441 255.831875 
L 289.460429 255.026017 
L 276.608845 263.066771 
L 273.059902 259.684674 
L 269.713871 261.167616 
L 262.659613 256.718742 
L 262.043635 260.078935 
L 265.565779 262.661367 
L 263.965324 269.917195 
L 257.388706 267.371019 
L 254.806256 262.875886 
L 247.66311 262.966485 
L 246.680683 257.64415 
L 243.424939 255.709782 
L 240.202943 257.229268 
L 230.692751 256.158956 
L 226.856797 252.485517 
L 228.298244 249.994248 
L 211.719879 235.878274 
L 211.979803 227.700391 
L 224.34579 224.643864 
L 225.241939 219.646341 
L 223.514686 218.278931 
L 227.802798 213.77556 
L 227.779961 208.419215 
L 223.394213 207.435238 
L 219.065245 209.449238 
L 216.660468 206.822952 
L 227.048844 198.023849 
L 228.666694 194.053773 
L 235.958338 192.391643 
L 235.882702 194.719099 
L 236.481135 194.980078 
L 236.809556 189.961947 
L 238.939221 188.258587 
L 245.126678 188.994142 
L 246.591259 186.232674 
L 255.590879 182.194654 
L 260.634154 183.062754 
L 262.380518 186.434668 
L 267.147095 184.707196 
L 266.154827 189.658499 
L 271.537655 194.463828 
L 277.079057 191.621288 
L 281.009976 193.862191 
L 283.666852 187.074794 
L 278.746315 179.29959 
L 282.68326 178.052483 
L 284.442392 172.46486 
L 301.491668 171.877517 
" style="fill:#2f7da0;stroke:#aad6e5;"/>
    <path clip-path="url(#p8787ba82b4)" d="M 211.304189 194.00598 
L 221.238885 201.694267 
L 216.890518 206.170456 
L 217.319953 208.659468 
L 227.779961 208.419215 
L 227.802798 213.77556 
L 223.514686 218.278931 
L 225.241939 219.646341 
L 224.34579 224.643864 
L 218.885037 225.138345 
L 211.762178 228.908096 
L 211.719879 235.878274 
L 224.416128 247.170124 
L 215.750703 246.518554 
L 213.108282 248.960939 
L 218.851001 251.143337 
L 219.89836 255.715478 
L 223.67663 258.199535 
L 223.291548 264.0576 
L 212.047725 261.129419 
L 205.766707 256.167223 
L 204.14783 259.763669 
L 194.63278 264.832377 
L 187.88001 263.215592 
L 184.557098 266.792079 
L 186.730712 268.773118 
L 184.664945 269.629217 
L 190.065679 274.381415 
L 189.085549 277.868496 
L 191.785639 278.484555 
L 190.267841 281.130732 
L 191.90265 282.191568 
L 184.610019 289.020389 
L 181.146965 289.558443 
L 174.000017 278.845823 
L 170.392538 279.505775 
L 169.513246 284.47457 
L 150.440504 284.145252 
L 146.710775 279.160635 
L 134.897357 271.870168 
L 131.661067 265.285036 
L 124.35759 262.028863 
L 126.555614 259.84722 
L 122.294802 258.792466 
L 121.38527 251.567504 
L 117.145814 251.885748 
L 121.811222 243.755652 
L 113.816417 243.560945 
L 116.780177 241.426541 
L 144.863804 244.287649 
L 142.96473 237.027588 
L 139.456947 236.745779 
L 142.631109 233.12614 
L 136.885815 234.201753 
L 138.013472 230.950606 
L 134.648136 230.838124 
L 140.62424 226.299955 
L 148.239346 225.183456 
L 146.750998 223.916296 
L 148.832673 215.925393 
L 153.054556 209.788161 
L 163.183835 210.1193 
L 171.705039 201.908531 
L 180.208231 202.852929 
L 180.199767 199.081486 
L 188.535251 195.477866 
L 190.342894 196.842497 
L 196.401085 195.538885 
L 199.494429 197.157686 
L 199.508311 199.412407 
L 211.304189 194.00598 
" style="fill:#2f7da0;stroke:#aad6e5;"/>
    <path clip-path="url(#p8787ba82b4)" d="M 219.831942 91.453342 
L 221.580353 91.473985 
L 223.99186 97.523139 
L 222.122041 104.503639 
L 225.397001 106.863789 
L 223.670153 112.333615 
L 216.008529 114.927713 
L 218.624747 118.600265 
L 215.302468 120.22108 
L 213.12461 129.001532 
L 215.44611 129.504989 
L 215.942834 134.040128 
L 218.892922 134.295024 
L 223.227392 145.928176 
L 222.026738 148.461801 
L 227.099091 150.052746 
L 225.385716 154.846698 
L 228.555264 158.376647 
L 228.320386 155.416878 
L 231.188281 153.980401 
L 237.720451 156.335527 
L 237.43238 154.872589 
L 255.481206 157.452459 
L 258.649967 157.195029 
L 258.660671 154.644941 
L 260.952987 153.225183 
L 272.277837 153.65964 
L 274.084369 158.926183 
L 284.455472 172.269774 
L 282.68326 178.052483 
L 278.746315 179.29959 
L 283.666852 187.074794 
L 281.009976 193.862191 
L 277.079057 191.621288 
L 271.537655 194.463828 
L 266.154827 189.658499 
L 267.147095 184.707196 
L 262.380518 186.434668 
L 260.634154 183.062754 
L 255.590879 182.194654 
L 246.591259 186.232674 
L 245.126678 188.994142 
L 238.939221 188.258587 
L 236.809556 189.961947 
L 236.481135 194.980078 
L 235.958338 192.391643 
L 228.7474 194.000918 
L 227.081269 197.985819 
L 221.4929 202.517111 
L 209.992486 193.727298 
L 201.96313 199.186513 
L 198.898826 199.281312 
L 199.494429 197.157686 
L 196.401085 195.538885 
L 190.342894 196.842497 
L 188.640225 195.412581 
L 189.986814 189.350079 
L 178.347519 186.884931 
L 175.426796 181.313858 
L 174.899981 174.758304 
L 166.373049 173.520209 
L 165.434663 166.165052 
L 167.274818 164.156858 
L 165.318676 161.294135 
L 156.851218 161.061434 
L 153.682776 156.692124 
L 153.286284 153.658292 
L 156.039536 152.640284 
L 153.489616 147.140744 
L 159.616821 145.867161 
L 158.213962 139.803893 
L 175.317925 141.035202 
L 174.176178 130.924901 
L 181.560924 122.682825 
L 179.048392 117.998323 
L 187.65691 108.507326 
L 197.53818 103.655531 
L 206.735329 93.413654 
L 219.831942 91.453342 
" style="fill:#2f7da0;stroke:#aad6e5;"/>
    <path clip-path="url(#p8787ba82b4)" d="M 110.297295 140.300554 
L 111.681394 145.530857 
L 115.462463 147.918251 
L 116.65803 146.827323 
L 122.439229 156.58144 
L 136.84599 155.833705 
L 145.440469 151.494858 
L 146.10371 147.235215 
L 153.489616 147.140744 
L 156.039536 152.640284 
L 153.286284 153.658292 
L 153.682776 156.692124 
L 156.851218 161.061434 
L 165.318676 161.294135 
L 167.274818 164.156858 
L 165.434663 166.165052 
L 166.373049 173.520209 
L 174.899981 174.758304 
L 175.426796 181.313858 
L 178.347519 186.884931 
L 189.986814 189.350079 
L 188.707891 195.515831 
L 180.199767 199.081486 
L 180.208231 202.852929 
L 171.705039 201.908531 
L 163.183835 210.1193 
L 153.054556 209.788161 
L 148.832673 215.925393 
L 146.750998 223.916296 
L 148.239346 225.183456 
L 134.863798 227.40713 
L 132.826438 231.966762 
L 106.177927 217.175065 
L 116.104705 201.810485 
L 113.978725 197.754982 
L 110.952162 196.772416 
L 110.906443 192.644706 
L 108.758009 193.079489 
L 104.686071 189.851269 
L 109.553596 186.374068 
L 111.23778 181.174111 
L 109.994757 180.29322 
L 113.635916 180.930324 
L 111.580009 177.763317 
L 115.117707 174.822737 
L 109.727457 170.386172 
L 110.37228 168.297653 
L 108.408003 166.828213 
L 109.750246 166.077574 
L 102.944978 164.137654 
L 103.753303 154.479009 
L 95.786421 149.764498 
L 98.02477 142.551556 
L 110.297295 140.300554 
" style="fill:#2f7da0;stroke:#aad6e5;"/>
    <path clip-path="url(#p8787ba82b4)" d="M 109.948679 138.737723 
L 109.818936 138.771944 
L 109.58273 138.671242 
L 110.150798 138.541056 
L 109.948679 138.737723 
" style="fill:#2f7da0;stroke:#aad6e5;"/>
    <path clip-path="url(#p8787ba82b4)" d="M 183.928468 70.441557 
L 191.412905 84.166965 
L 196.270887 81.515234 
L 198.257906 83.877215 
L 206.0117 76.417695 
L 211.366577 76.097545 
L 220.878553 86.506095 
L 221.580353 91.473985 
L 206.735329 93.413654 
L 197.53818 103.655531 
L 187.65691 108.507326 
L 179.048392 117.998323 
L 181.560924 122.682825 
L 174.176178 130.924901 
L 175.317925 141.035202 
L 158.213962 139.803893 
L 159.616821 145.867161 
L 146.10371 147.235215 
L 145.440469 151.494858 
L 136.84599 155.833705 
L 122.439229 156.58144 
L 116.65803 146.827323 
L 115.462463 147.918251 
L 111.681394 145.530857 
L 110.3603 140.566383 
L 119.637076 139.102509 
L 125.681058 124.878477 
L 134.988641 117.496156 
L 136.193394 112.411493 
L 138.330134 113.860941 
L 138.655977 111.898721 
L 139.488867 112.71831 
L 140.673185 112.354849 
L 139.073714 111.662313 
L 142.985499 112.12328 
L 170.198778 94.692292 
L 173.002409 91.21741 
L 172.508994 88.197006 
L 174.665489 84.512341 
L 174.298118 87.725508 
L 176.698349 85.452203 
L 181.856435 71.100536 
L 183.928468 70.441557 
" style="fill:#2f7da0;stroke:#aad6e5;"/>
    <path clip-path="url(#p8787ba82b4)" d="M 102.120776 216.860808 
L 107.663223 217.167717 
L 131.724611 231.965629 
L 134.863798 227.40713 
L 138.249977 227.758407 
L 134.649759 230.843456 
L 138.013472 230.950606 
L 136.885815 234.201753 
L 142.631109 233.12614 
L 139.456947 236.745779 
L 142.96473 237.027588 
L 145.118601 243.981574 
L 120.248989 241.024663 
L 113.940079 242.622997 
L 116.209366 244.671869 
L 121.811222 243.755652 
L 117.145814 251.885748 
L 121.38527 251.567504 
L 122.294802 258.792466 
L 126.545545 259.824289 
L 126.314636 261.319884 
L 117.331711 261.781431 
L 113.998021 264.72745 
L 105.688965 260.193755 
L 102.369589 264.699005 
L 98.014299 265.601949 
L 90.681339 261.625906 
L 83.568804 270.894965 
L 81.367716 279.104053 
L 70.533826 284.342743 
L 66.311249 283.151881 
L 61.916438 284.682388 
L 57.056791 281.573993 
L 40.867164 282.104952 
L 43.968276 277.418796 
L 43.40703 272.39966 
L 36.68723 267.815428 
L 31.521935 269.624629 
L 20.490346 257.324837 
L 24.960764 258.215837 
L 26.264766 252.046271 
L 20.760749 250.679563 
L 20.181818 245.919336 
L 31.335893 247.611423 
L 31.027654 243.373063 
L 35.438208 242.972656 
L 37.502776 239.32476 
L 41.25167 239.915019 
L 54.428793 218.363551 
L 59.48743 220.837632 
L 65.182132 215.856258 
L 78.666557 223.47255 
L 84.72743 219.550995 
L 89.864861 220.088684 
L 99.085163 216.190625 
L 102.120776 216.860808 
" style="fill:#2f7da0;stroke:#aad6e5;"/>
   </g>
   <g id="axes_2"/>
   <g id="axes_3"/>
   <g id="axes_4"/>
   <g id="axes_5"/>
   <g id="axes_6"/>
   <g id="axes_7"/>
  </g>
 </g>
 <defs>
  <clipPath id="p8787ba82b4">
   <rect height="241.028575" width="351.6" x="4.2" y="59.485712"/>
  </clipPath>
 </defs>
</svg>
